<?xml version="1.0" standalone="no"?>
<!DOCTYPE svg PUBLIC "-//W3C//DTD SVG 1.1//EN" "http://www.w3.org/Graphics/SVG/1.1/DTD/svg11.dtd" >
<svg xmlns="http://www.w3.org/2000/svg" xmlns:xlink="http://www.w3.org/1999/xlink" version="1.1">
<metadata>
Created by FontForge 20170731 at Sun Apr 15 07:09:28 2018
 By Aleksey,,,
The Font Software, the designs embodied therein, the trade names and/or trademarks and copyrights associated therewith are each the exclusive property of Hungarumlaut.
</metadata>
<defs>
<font id="MenoeGrotesquePro" horiz-adv-x="600" >
  <font-face 
    font-family="Menoe Grotesque Pro"
    font-weight="400"
    font-stretch="normal"
    units-per-em="1000"
    panose-1="2 0 5 3 0 0 0 2 0 4"
    ascent="810"
    descent="-190"
    x-height="480"
    cap-height="650"
    bbox="-47 -292 1137 896"
    underline-thickness="76"
    underline-position="-456"
    unicode-range="U+0020-FB02"
  />
<missing-glyph horiz-adv-x="364" 
d="M298 0h-265v666h265v-666zM66 633v-600h199v600h-199z" />
    <glyph glyph-name="ellipsis" unicode="&#x2e;&#x2e;&#x2e;" horiz-adv-x="1200" 
d="M318 15q-25 -25 -61 -25t-62 25q-25 26 -25 62t25 61q26 26 62 26t61 -26q26 -25 26 -61t-26 -62zM1004 15q-25 -25 -61 -25t-62 25q-25 26 -25 62t25 61q26 26 62 26t61 -26q26 -25 26 -61t-26 -62zM661 15q-25 -25 -61 -25t-62 25q-25 26 -25 62t25 61q26 26 62 26
t61 -26q26 -25 26 -61t-26 -62z" />
    <glyph glyph-name="i_i.liga" unicode="ii" 
d="M211 557q-25 -25 -61 -25t-62 25q-25 26 -25 62t25 61q26 26 62 26t61 -26q26 -25 26 -61t-26 -62zM511 557q-25 -25 -61 -25t-62 25q-25 26 -25 62t25 61q26 26 62 26t61 -26q26 -25 26 -61t-26 -62zM190 0h-80q1 48 1 240t-1 240h80q-1 -48 -1 -240q0 -216 1 -240z
M490 0h-80q1 48 1 240t-1 240h80q-1 -48 -1 -240q0 -216 1 -240z" />
    <glyph glyph-name="i_l.liga" unicode="il" 
d="M211 557q-25 -25 -61 -25t-62 25q-25 26 -25 62t25 61q26 26 62 26t61 -26q26 -25 26 -61t-26 -62zM490 0h-80q1 48 1 335t-1 335h80q-1 -48 -1 -335t1 -335zM190 0h-80q1 48 1 240t-1 240h80q-1 -48 -1 -240q0 -216 1 -240z" />
    <glyph glyph-name="i_l_l.liga" unicode="ill" horiz-adv-x="1200" 
d="M355 577q-25 -25 -61 -25t-62 25q-25 26 -25 62t25 61q26 26 62 26t61 -26q26 -25 26 -61t-26 -62zM790 0h-80q1 48 1 335t-1 335h80q-1 -48 -1 -335t1 -335zM1090 0h-80q1 48 1 335t-1 335h80q-1 -48 -1 -335t1 -335zM561 74v-74h-507v74h240v332h-204v74h284
q-1 -48 -1 -240v-166h188z" />
    <glyph glyph-name="l_i.liga" unicode="li" 
d="M511 557q-25 -25 -61 -25t-62 25q-25 26 -25 62t25 61q26 26 62 26t61 -26q26 -25 26 -61t-26 -62zM190 0h-80q1 48 1 335t-1 335h80q-1 -48 -1 -335t1 -335zM490 0h-80q1 48 1 240t-1 240h80q-1 -48 -1 -240q0 -216 1 -240z" />
    <glyph glyph-name="l_i_i.liga" unicode="lii" horiz-adv-x="1200" 
d="M811 557q-25 -25 -61 -25t-62 25q-25 26 -25 62t25 61q26 26 62 26t61 -26q26 -25 26 -61t-26 -62zM1111 557q-25 -25 -61 -25t-62 25q-25 26 -25 62t25 61q26 26 62 26t61 -26q26 -25 26 -61t-26 -62zM790 0h-80q1 48 1 240t-1 240h80q-1 -48 -1 -240q0 -216 1 -240z
M1090 0h-80q1 48 1 240t-1 240h80q-1 -48 -1 -240q0 -216 1 -240zM551 74v-74h-487v74h224v522h-184v74h264q-1 -48 -1 -596h184z" />
    <glyph glyph-name="l_j.liga" unicode="lj" 
d="M510 557q-25 -25 -61 -25t-62 25q-25 26 -25 62t25 61q26 26 62 26t61 -26q26 -25 26 -61t-26 -62zM190 0h-80q1 48 1 335t-1 335h80q-1 -48 -1 -335t1 -335zM409 480h80v-492q0 -92 -55 -147q-56 -56 -146 -56q-56 0 -101.5 21.5t-64.5 57.5l72 41q28 -44 103 -44
q50 0 81 32.5t31 84.5v502z" />
    <glyph glyph-name="l_l.liga" unicode="ll" 
d="M190 0h-80q1 48 1 335t-1 335h80q-1 -48 -1 -335t1 -335zM490 0h-80q1 48 1 335t-1 335h80q-1 -48 -1 -335t1 -335z" />
    <glyph glyph-name="semicolon_parenright.liga" unicode="&#x3b;&#x29;" 
d="M494 293q0 150 -46 249q-48 105 -131 196l53 52q207 -200 207 -489t-207 -489l-53 52q84 94 131 193q46 96 46 236zM212 407q-25 -25 -61 -25t-62 25q-25 26 -25 62t25 61q26 26 62 26t61 -26q26 -25 26 -61t-26 -62zM69 -39l-20 64q53 16 77.5 35t31.5 53q-45 1 -69 25
t-24 61q0 38 24.5 62.5t62.5 24.5q42 0 66 -31t24 -82q0 -78 -46 -134t-127 -78z" />
    <glyph glyph-name="colon_parenleft.liga" unicode="&#x3a;&#x28;" 
d="M433 309q0 -150 46 -249q48 -105 131 -196l-53 -52q-207 200 -207 489t207 489l53 -52q-84 -94 -131 -193q-46 -96 -46 -236zM226 374q-25 -25 -61 -25t-62 25q-25 26 -25 62t25 61q26 26 62 26t61 -26q26 -25 26 -61t-26 -62zM226 104q-25 -25 -61 -25t-62 25
q-25 26 -25 62t25 61q26 26 62 26t61 -26q26 -25 26 -61t-26 -62z" />
    <glyph glyph-name=".notdef" horiz-adv-x="364" 
d="M298 0h-265v666h265v-666zM66 633v-600h199v600h-199z" />
    <glyph glyph-name="glyph1" horiz-adv-x="0" 
 />
    <glyph glyph-name="glyph2" horiz-adv-x="333" 
 />
    <glyph glyph-name="space" unicode=" " 
 />
    <glyph glyph-name="exclam" unicode="!" 
d="M260 670h80v-435h-80v435zM361 15q-25 -25 -61 -25t-62 25q-25 26 -25 62t25 61q26 26 62 26t61 -26q26 -25 26 -61t-26 -62z" />
    <glyph glyph-name="quotedbl" unicode="&#x22;" 
d="M160 504v318h80v-318h-80zM360 504v318h80v-318h-80z" />
    <glyph glyph-name="numbersign" unicode="#" 
d="M215 261h140l35 128h-140zM357 0h-72l51 191h-140l-52 -191h-72l51 191h-92v70h111l35 128h-105v70h124l51 191h74l-52 -191h140l51 191h74l-52 -191h94v-70h-113l-35 -128h106v-70h-125z" />
    <glyph glyph-name="dollar" unicode="$" 
d="M161 487q0 -41 26.5 -63.5t88.5 -42.5v207q-55 -5 -85 -31t-30 -70zM465 175q0 38 -26 60.5t-93 43.5v-210q55 7 87 35t32 71zM346 -8v-92h-70v90q-144 4 -224 71l56 68q61 -54 168 -61v232q-106 30 -150 69.5t-44 111.5q0 74 53 121.5t141 56.5v91h70v-90
q100 -4 182 -67l-49 -61q-58 46 -133 56v-227q81 -23 138 -60q65 -41 65 -116q0 -85 -54.5 -134t-148.5 -59z" />
    <glyph glyph-name="percent" unicode="%" 
d="M556 586l-476 -560l-49 49l420 494l-156 -69q-3 -63 -40 -104t-92 -41q-57 0 -94.5 43.5t-37.5 109.5t37.5 109t94.5 43q43 0 76 -25t47 -68l229 78zM99 508q0 -35 18 -57.5t46 -22.5t46 22.5t18 57.5q0 34 -18 56.5t-46 22.5t-46 -22.5t-18 -56.5zM342 282q37 43 95 43
q57 0 94 -43q38 -44 38 -109q0 -66 -38 -110q-37 -43 -94 -43q-58 0 -95 43t-37 110q0 66 37 109zM373 173q0 -35 18 -57.5t46 -22.5t46 22.5t18 57.5q0 34 -18 56.5t-46 22.5t-46 -22.5t-18 -56.5z" />
    <glyph glyph-name="ampersand" unicode="&#x26;" 
d="M460 -10q-51 0 -118 52q-64 -52 -146 -52q-69 0 -124 46t-55 136q0 119 110 182q-35 93 -35 161q0 76 43 120.5t110 44.5q63 0 103 -37t40 -106q0 -86 -55 -138q-26 -24 -51 -40q-35 -21 -61 -34q52 -103 120 -179q26 37 53 89q3 5 10.5 21t12.5 26l24 49q44 79 85 72
q37 0 60 -16l-37 -76q-7 4 -17 4q-18 0 -31 -22q-11 -17 -34 -68q-19 -45 -36 -73q-16 -28 -37 -55q38 -30 64 -30q64 0 64 92l75 -26q0 -70 -37.5 -106.5t-99.5 -36.5zM167 507q0 -48 26 -120q62 30 90.5 62t28.5 83q0 35 -19 55t-49 20q-35 0 -56 -27t-21 -73zM203 67
q45 0 85 26q-79 88 -131 194q-58 -40 -58 -104q0 -47 31 -81q32 -35 73 -35z" />
    <glyph glyph-name="quotesingle" unicode="'" 
d="M260 504v318h80v-318h-80z" />
    <glyph glyph-name="parenleft" unicode="(" 
d="M293 305q0 -150 46 -249q48 -105 131 -196l-53 -52q-207 200 -207 489t207 489l53 -52q-84 -94 -131 -193q-46 -96 -46 -236z" />
    <glyph glyph-name="parenright" unicode=")" 
d="M347 293q0 150 -46 249q-48 105 -131 196l53 52q207 -200 207 -489t-207 -489l-53 52q84 94 131 193q46 96 46 236z" />
    <glyph glyph-name="asterisk" unicode="*" 
d="M510 391l-33 -56l-148 90l3 -172h-64l3 171l-148 -89l-32 56l151 83l-150 83l32 56l147 -89l-3 173h64l-3 -173l147 89l32 -56l-149 -83z" />
    <glyph glyph-name="plus" unicode="+" 
d="M535 310v-80h-195v-195h-80v195h-195v80h195v195h80v-195h195z" />
    <glyph glyph-name="comma" unicode="," 
d="M206 -162l-20 64q53 16 77.5 35t31.5 53q-45 1 -69 25t-24 61q0 38 24.5 62.5t62.5 24.5q42 0 66 -31t24 -82q0 -78 -46 -134t-127 -78z" />
    <glyph glyph-name="hyphen" unicode="-" 
d="M480 210h-360v80h360v-80z" />
    <glyph glyph-name="period" unicode="." 
d="M361 15q-25 -25 -61 -25t-62 25q-25 26 -25 62t25 61q26 26 62 26t61 -26q26 -25 26 -61t-26 -62z" />
    <glyph glyph-name="slash" unicode="/" 
d="M620 792l-572 -953l-68 41l572 953z" />
    <glyph glyph-name="zero" unicode="0" 
d="M49 324q0 152 69 244t182 92t182 -93q69 -91 69 -243q0 -150 -69 -242t-182 -92t-182 92t-69 242zM130 324q0 -86 25 -149l254 361q-45 53 -109 53q-78 0 -124 -73q-46 -71 -46 -192zM300 61q76 0 123 72q47 74 47 191q0 85 -24 145l-252 -359q43 -49 106 -49z" />
    <glyph glyph-name="one" unicode="1" 
d="M550 74v-74h-460v74h210v491l-162 -95l-53 54l215 126h80v-576h170z" />
    <glyph glyph-name="two" unicode="2" 
d="M535 0h-464q0 82 38 147q17 29 42 54q36 35 106 79l38 22l38 23l32 22q25 17 52 51q21 26 21 66q0 57 -41 86t-92 29q-65 0 -109 -41q-43 -40 -43 -100h-77q0 89 65 156q66 66 169 66q86 0 147 -54t61 -138t-58 -141q-31 -30 -55 -45q-21 -15 -68 -42l-59 -36
q-7 -5 -47 -33q-53 -41 -71 -97h375v-74z" />
    <glyph glyph-name="three" unicode="3" 
d="M155 360l247 216h-323v74h422v-74l-163 -149q12 4 32 4q58 0 95.5 -41t37.5 -111q0 -89 -54 -157q-52 -65 -132.5 -98.5t-176.5 -33.5q-61 0 -90 10l34 72q15 -4 51 -4q71 0 131 19q62 19 109 68q47 50 47 119q0 100 -99 100q-40 0 -84 -38l-30 -27z" />
    <glyph glyph-name="four" unicode="4" 
d="M136 229h196v337zM552 229v-69h-140v-160h-80v160h-280v69l247 421h113v-421h140z" />
    <glyph glyph-name="five" unicode="5" 
d="M163 -10q-56 0 -91 11l30 75q27 -8 56 -8q106 0 175 32q82 38 82 143q0 58 -28.5 92t-80.5 34q-38 0 -76 -19t-54 -44h-74l28 344h394v-74h-326l-16 -196q55 58 144 58q75 0 122.5 -47t47.5 -131q0 -136 -93 -203q-92 -67 -240 -67z" />
    <glyph glyph-name="six" unicode="6" 
d="M532 216q0 -104 -61 -165t-163 -61q-106 0 -173 73t-67 200q0 193 91 294q91 103 231 103q63 0 122 -22l-24 -68q-45 16 -92 16q-103 0 -170 -73q-69 -73 -79 -187q59 87 179 87q99 0 152 -56q54 -55 54 -141zM308 60q65 0 106.5 39.5t41.5 107.5q0 65 -40.5 101.5
t-107.5 36.5q-62 0 -106 -41q-43 -40 -43 -97q0 -61 43 -104t106 -43z" />
    <glyph glyph-name="seven" unicode="7" 
d="M560 650v-74q-151 -107 -214 -243q-62 -135 -62 -333h-78q0 201 54 336q56 136 191 240h-315v-106h-80v180h504z" />
    <glyph glyph-name="eight" unicode="8" 
d="M300 -10q-113 0 -181 52q-68 53 -68 139q0 56 30 99.5t85 66.5q-99 45 -99 143q0 77 64 123q65 47 170 47q104 0 169 -47q64 -46 64 -123q0 -98 -99 -143q55 -23 85 -66.5t30 -99.5q0 -87 -69 -139q-67 -52 -181 -52zM449 485q0 46 -41 73.5t-108 27.5t-108 -27.5
t-41 -73.5q0 -49 41 -78.5t108 -29.5t108 29.5t41 78.5zM466 186q0 59 -45.5 95t-120.5 36t-120.5 -36t-45.5 -95q0 -55 45.5 -88.5t120.5 -33.5t120.5 33.5t45.5 88.5z" />
    <glyph glyph-name="nine" unicode="9" 
d="M282 590q-65 0 -106.5 -39.5t-41.5 -107.5q0 -65 40.5 -101.5t107.5 -36.5q62 0 105 40q44 41 44 98q0 60 -44 104q-43 43 -105 43zM200 -10q-63 0 -122 22l24 68q45 -16 92 -16q102 0 170 72q69 75 79 188q-59 -87 -179 -87q-99 0 -153 55q-53 56 -53 142q0 103 61 164
q62 62 163 62q105 0 172 -73q68 -74 68 -200q0 -191 -92 -295q-92 -102 -230 -102z" />
    <glyph glyph-name="colon" unicode=":" 
d="M361 325q-25 -25 -61 -25t-62 25q-25 26 -25 62t25 61q26 26 62 26t61 -26q26 -25 26 -61t-26 -62zM361 55q-25 -25 -61 -25t-62 25q-25 26 -25 62t25 61q26 26 62 26t61 -26q26 -25 26 -61t-26 -62z" />
    <glyph glyph-name="semicolon" unicode=";" 
d="M351 325q-25 -25 -61 -25t-62 25q-25 26 -25 62t25 61q26 26 62 26t61 -26q26 -25 26 -61t-26 -62zM206 -162l-20 64q53 16 77.5 35t31.5 53q-45 1 -69 25t-24 61q0 38 24.5 62.5t62.5 24.5q42 0 66 -31t24 -82q0 -78 -46 -134t-127 -78z" />
    <glyph glyph-name="less" unicode="&#x3c;" 
d="M540 80v-90l-480 213v74l480 213v-91l-366 -158z" />
    <glyph glyph-name="equal" unicode="=" 
d="M535 309h-470v80h470v-80zM535 99h-470v80h470v-80z" />
    <glyph glyph-name="greater" unicode="&#x3e;" 
d="M580 203l-480 -213v91l366 158l-366 161v90l480 -213v-74z" />
    <glyph glyph-name="question" unicode="?" 
d="M340 235h-80q0 48 18.5 78.5t59.5 62.5q9 3 24 18l10 9q9 7 20 19q26 26 26 68q0 43 -28 66t-76 23q-49 0 -80.5 -29.5t-31.5 -77.5q0 -14 2 -26l-74 -11q-3 18 -3 36q0 83 54 136q56 53 145 53q76 0 125 -48q50 -48 50 -113q0 -35 -14 -66q-12 -28 -25.5 -43t-42.5 -35
q-23 -18 -40 -33q-14 -11 -26.5 -36.5t-12.5 -50.5zM361 15q-25 -25 -61 -25t-62 25q-25 26 -25 62t25 61q26 26 62 26t61 -26q26 -25 26 -61t-26 -62z" />
    <glyph glyph-name="at" unicode="@" 
d="M207 286q-29 0 -46 -31.5t-17 -86.5t17 -86.5t46 -31.5q34 0 53.5 31.5t19.5 86.5t-19.5 86.5t-53.5 31.5zM406 -5q-80 0 -109 50q-34 -55 -104 -55q-59 0 -93 47t-34 131q0 83 34 130t93 47q49 0 80 -27l-1 20h77v-229q0 -23 16 -38.5t38 -15.5q24 0 40.5 15t16.5 39
v177q0 83 -56 133t-148 50q-68 -4 -129 -31l-36 62q79 40 178 40q121 0 194 -69q74 -68 74 -181v-159q0 -66 -37 -101t-94 -35z" />
    <glyph glyph-name="A" unicode="A" 
d="M207 256h184l-92 305zM550 0h-81l-55 182h-230l-55 -182h-79l203 650h94z" />
    <glyph glyph-name="B" unicode="B" 
d="M351 581h-151v-215h143q41 0 71 34q31 34 31 84q0 43 -26.5 70t-67.5 27zM343 298h-143v-229h152q55 0 88 27.5t33 83.5t-36 87t-94 31zM370 0h-250v650h247q67 0 114 -45t47 -116q0 -104 -89 -154q54 -21 85.5 -61t31.5 -95q0 -83 -51 -131t-135 -48z" />
    <glyph glyph-name="C" unicode="C" 
d="M581 429l-74 -34q-13 87 -61.5 138t-116.5 51q-82 0 -131 -70q-50 -71 -50 -185q0 -117 50 -191q50 -72 131 -72q65 0 112.5 46t61.5 124l70 -47q-26 -92 -91 -145.5t-153 -53.5q-118 0 -190 93q-71 95 -71 246q0 148 71 240q72 91 190 91q95 0 162.5 -62t89.5 -169z" />
    <glyph glyph-name="D" unicode="D" 
d="M251 -7q-90 0 -136 7v650q52 6 136 6q142 0 228 -83q87 -82 87 -236q0 -169 -83 -256.5t-232 -87.5zM256 67q230 0 230 266q0 109 -60 179q-59 71 -171 71q-29 0 -60 -3v-510q31 -3 61 -3z" />
    <glyph glyph-name="E" unicode="E" 
d="M527 0h-405v650h401v-74h-321v-197h249v-74h-249v-231h325v-74z" />
    <glyph glyph-name="F" unicode="F" 
d="M485 356v-74h-239v-282h-80v650h441v-74h-361v-220h239z" />
    <glyph glyph-name="G" unicode="G" 
d="M552 315v-272q-92 -53 -219 -53q-134 0 -209 92q-75 91 -75 247q0 150 74 241q75 90 207 90q136 0 219 -93l-51 -55q-29 32 -73.5 52t-88.5 20q-97 0 -150.5 -68.5t-53.5 -186.5q0 -124 61 -193.5t172 -69.5q68 0 107 17v158h-129v74h209z" />
    <glyph glyph-name="H" unicode="H" 
d="M517 0h-80v300h-274v-300h-80v650h80v-276h274v276h80v-650z" />
    <glyph glyph-name="I" unicode="I" 
d="M510 74v-74h-420v74h170v502h-170v74h420v-74h-170v-502h170z" />
    <glyph glyph-name="J" unicode="J" 
d="M287 -10q-90 0 -146 50q-55 51 -55 126q0 74 56 125l54 -50q-33 -36 -33 -75q0 -43 37 -71t95 -28q63 0 96.5 35.5t33.5 103.5v370h-309v74h389v-424q0 -116 -57 -176t-161 -60z" />
    <glyph glyph-name="K" unicode="K" 
d="M587 0h-105l-219 306l-90 -99v-207h-80v650h80v-335l299 335h109l-264 -286z" />
    <glyph glyph-name="L" unicode="L" 
d="M542 0h-401v650h80v-576h321v-74z" />
    <glyph glyph-name="M" unicode="M" 
d="M361 245h-125l-99 353v-598h-77v650h141l100 -350l99 350h140v-650h-77v594z" />
    <glyph glyph-name="N" unicode="N" 
d="M517 0h-131l-226 594v-594h-77v650h144l213 -561v561h77v-650z" />
    <glyph glyph-name="O" unicode="O" 
d="M49 324q0 152 69 244t182 92t182 -93q69 -91 69 -243q0 -150 -69 -242t-182 -92t-182 92t-69 242zM300 66q74 0 121 71q46 70 46 187q0 118 -46 188q-46 72 -121 72q-76 0 -122 -72q-45 -70 -45 -188q0 -116 45 -187q47 -71 122 -71z" />
    <glyph glyph-name="P" unicode="P" 
d="M366 576h-166v-229h165q45 0 78 34q34 34 34 83q0 50 -31 81t-80 31zM381 273h-181v-273h-80v650h264q76 0 126 -51q50 -52 50 -130q0 -90 -53 -143t-126 -53z" />
    <glyph glyph-name="Q" unicode="Q" 
d="M442 40l98 -156h-93l-71 119q-33 -13 -76 -13q-113 0 -182 92t-69 242q0 152 69 244t182 92t182 -93q69 -91 69 -243q0 -94 -28.5 -168t-80.5 -116zM300 66q74 0 121 71q46 70 46 187q0 118 -46 188q-46 72 -121 72q-76 0 -122 -72q-45 -70 -45 -188q0 -116 45 -187
q47 -71 122 -71z" />
    <glyph glyph-name="R" unicode="R" 
d="M340 576h-146v-206h176q42 0 71.5 31.5t29.5 78.5q0 44 -35.5 70t-95.5 26zM576 0h-93l-142 296h-147v-296h-80v650h260q79 0 129 -46q51 -46 51 -120q0 -70 -35.5 -119t-91.5 -64z" />
    <glyph glyph-name="S" unicode="S" 
d="M52 61l56 68q71 -62 204 -62q70 0 111.5 29t41.5 79q0 47 -39 70q-38 23 -147 54q-105 30 -151 69t-46 113q0 87 66 133q68 47 168 47q123 0 212 -68l-49 -61q-73 58 -173 58q-68 0 -106.5 -26.5t-38.5 -76.5q0 -49 34 -71q33 -21 119 -46l67 -20q21 -6 62 -25
q38 -17 56 -34q50 -43 50 -106q0 -100 -71 -148q-71 -47 -179 -47q-161 0 -247 71z" />
    <glyph glyph-name="T" unicode="T" 
d="M555 650v-74h-215v-576h-80v576h-215v74h510z" />
    <glyph glyph-name="U" unicode="U" 
d="M437 195v455h80v-452q0 -94 -60 -151q-59 -57 -157 -57t-158 57q-59 57 -59 151v452h80v-455q0 -57 38 -92t99 -35t99 35t38 92z" />
    <glyph glyph-name="V" unicode="V" 
d="M552 650l-188 -650h-132l-186 650h87l168 -588l168 588h83z" />
    <glyph glyph-name="W" unicode="W" 
d="M489 0h-128l-62 350l-62 -350h-128l-71 650h75l63 -599l67 354h114l69 -354l63 599h73z" />
    <glyph glyph-name="X" unicode="X" 
d="M572 0h-92l-186 278l-175 -278h-90l219 347l-203 303h89l169 -251l157 251h87l-199 -317z" />
    <glyph glyph-name="Y" unicode="Y" 
d="M570 650l-230 -365v-285h-80v285l-230 365h90l181 -292l179 292h90z" />
    <glyph glyph-name="Z" unicode="Z" 
d="M61 0v74l379 502h-349v74h442v-74l-377 -502h383v-74h-478z" />
    <glyph glyph-name="bracketleft" unicode="[" 
d="M290 -117h184v-73h-264v940h264v-73h-184v-794z" />
    <glyph glyph-name="backslash" unicode="\" 
d="M-20 792l68 41l572 -953l-68 -41z" />
    <glyph glyph-name="bracketright" unicode="]" 
d="M350 677h-184v73h264v-940h-264v73h184v794z" />
    <glyph glyph-name="asciicircum" unicode="^" 
d="M554 480h-108l-147 160l-148 -160h-105l206 216h96z" />
    <glyph glyph-name="underscore" unicode="_" 
d="M535 -120h-470v80h470v-80z" />
    <glyph glyph-name="grave" unicode="`" 
d="M151 696h103l143 -143h-100z" />
    <glyph glyph-name="a" unicode="a" 
d="M480 -10q-40 0 -68.5 20.5t-35.5 52.5q-63 -73 -160 -73q-69 0 -110.5 34.5t-41.5 90.5q0 57 40 95t113 53q43 10 157 22v36q0 41 -31.5 68.5t-80.5 27.5q-47 0 -77.5 -20.5t-30.5 -51.5q0 -5 2 -13l-75 -15q-4 11 -4 30q0 61 54 102q55 41 137 41q81 0 133 -45
q53 -45 53 -114v-236q0 -15 9.5 -25t24.5 -10q20 0 33 23.5t13 58.5l68 -16q0 -58 -35 -98q-35 -38 -87 -38zM225 59q93 0 149 77v88q-110 -14 -159 -27q-32 -9 -50 -29t-18 -44q0 -29 21.5 -47t56.5 -18z" />
    <glyph glyph-name="b" unicode="b" 
d="M338 -10q-94 0 -152 75q2 -30 2 -65h-80q1 67 1 335t-1 335h80v-190q0 -26 -2 -64q59 74 152 74q86 0 145 -68t59 -182t-59 -182t-145 -68zM319 62q60 0 100 49q41 50 41 129q0 78 -41 128t-100 50t-100 -50t-41 -128q0 -79 41 -129q40 -49 100 -49z" />
    <glyph glyph-name="c" unicode="c" 
d="M467 171l73 -33q-26 -68 -85.5 -108t-135.5 -40q-104 0 -171 70q-68 71 -68 180q0 108 68 179t171 71q86 0 148 -49q64 -50 83 -130l-74 -24q-13 56 -55.5 90t-100.5 34q-70 0 -116 -49q-46 -47 -46 -122q0 -74 46 -123q46 -48 116 -48q50 0 89.5 27.5t57.5 74.5z" />
    <glyph glyph-name="d" unicode="d" 
d="M381 368q-41 50 -100 50t-100 -50t-41 -128q0 -79 41 -129q40 -49 100 -49t100 49q41 50 41 129q0 78 -41 128zM492 0h-80q0 36 2 64q-59 -74 -152 -74q-88 0 -146 67t-58 183q0 115 58 182q59 68 146 68q94 0 152 -75q-2 42 -2 65v190h80q-1 -67 -1 -335t1 -335z" />
    <glyph glyph-name="e" unicode="e" 
d="M142 275h316q-8 66 -49.5 104.5t-106.5 38.5t-107.5 -38.5t-52.5 -104.5zM466 140l63 -39q-31 -53 -87.5 -82t-126.5 -29q-108 0 -178 70q-71 71 -71 180t68 180q69 70 175 70q98 0 163 -65t65 -171q0 -31 -4 -52h-390q11 -65 57.5 -102.5t115.5 -37.5q47 0 88.5 21.5
t61.5 56.5z" />
    <glyph glyph-name="f" unicode="f" 
d="M525 74v-74h-446v74h178v295h-148v74h148v28q0 96 48.5 152.5t130.5 56.5q67 0 98 -37l-47 -60q-25 23 -58 23q-41 0 -66.5 -33.5t-25.5 -92.5v-37h158v-74h-158v-295h188z" />
    <glyph glyph-name="g" unicode="g" 
d="M384 372q-37 46 -93 46q-55 0 -93 -45q-38 -46 -38 -118t38 -118q38 -45 93 -45t93 45q38 47 38 118t-38 117zM263 -200q-115 0 -178 72l48 59q51 -59 139 -59q142 0 142 214q-56 -66 -142 -66q-84 0 -139 63q-55 64 -55 172q0 109 55 171q55 64 139 64q87 0 141 -66
q-1 13 -1 56h80q-1 -43 -1 -190v-202q0 -288 -228 -288z" />
    <glyph glyph-name="h" unicode="h" 
d="M173 290v-290h-80q1 48 1 335t-1 335h80v-190q0 -33 -2 -63q54 73 152 73q79 0 131 -52q53 -53 53 -136v-302h-82v290q0 61 -32 94.5t-85 33.5q-54 0 -95 -36q-40 -34 -40 -92z" />
    <glyph glyph-name="i" unicode="i" 
d="M355 577q-25 -25 -61 -25t-62 25q-25 26 -25 62t25 61q26 26 62 26t61 -26q26 -25 26 -61t-26 -62zM561 74v-74h-507v74h240v332h-204v74h284q-1 -48 -1 -240v-166h188z" />
    <glyph glyph-name="j" unicode="j" 
d="M447 577q-25 -25 -61 -25t-62 25q-25 26 -25 62t25 61q26 26 62 26t61 -26q26 -25 26 -61t-26 -62zM260 -200q-79 0 -134 43q-55 42 -55 120q0 62 34 102l58 -34q-20 -28 -20 -60q0 -44 34 -69.5t89 -25.5q57 0 88.5 31.5t31.5 85.5v413h-264v74h344v-477
q0 -93 -55.5 -148t-150.5 -55z" />
    <glyph glyph-name="k" unicode="k" 
d="M565 0h-104l-174 241l-100 -87q0 -117 1 -154h-80q1 48 1 335t-1 335h80q-1 -48 -1 -415l261 225h113l-213 -186z" />
    <glyph glyph-name="l" unicode="l" 
d="M551 74v-74h-487v74h224v522h-184v74h264q-1 -48 -1 -596h184z" />
    <glyph glyph-name="m" unicode="m" 
d="M140 290v-290h-75q1 48 1 240t-1 240h75q0 -30 -1 -39q37 49 90 49q32 0 57.5 -18.5t38.5 -51.5q37 70 103 70q46 0 76 -38t30 -100v-352h-74v346q0 35 -13.5 53.5t-37.5 18.5q-33 0 -52.5 -34.5t-19.5 -93.5v-290h-74v346q0 35 -14.5 53.5t-38.5 18.5q-32 0 -51 -34.5
t-19 -93.5z" />
    <glyph glyph-name="n" unicode="n" 
d="M173 290v-290h-80q1 48 1 240t-1 240h80q0 -35 -2 -63q54 73 152 73q77 0 129 -52q53 -53 53 -136v-302h-80v290q0 61 -32 94.5t-85 33.5q-54 0 -95 -36q-40 -34 -40 -92z" />
    <glyph glyph-name="o" unicode="o" 
d="M299 -10q-104 0 -171 70q-68 71 -68 180q0 108 68 179t171 71t171 -71q69 -71 69 -179q0 -109 -68 -180q-67 -70 -172 -70zM187 117q45 -48 113 -48t112 48q45 49 45 123t-45 122q-43 49 -112 49q-68 0 -113 -49q-45 -48 -45 -122t45 -123z" />
    <glyph glyph-name="p" unicode="p" 
d="M219 111q40 -49 100 -49t100 49q41 50 41 129q0 78 -41 128t-100 50t-100 -50t-41 -128q0 -79 41 -129zM188 0v-190h-80q1 67 1 335t-1 335h80q0 -34 -2 -64q59 74 152 74q87 0 146 -68q58 -67 58 -182q0 -116 -58 -183t-146 -67q-94 0 -152 75q2 -42 2 -65z" />
    <glyph glyph-name="q" unicode="q" 
d="M492 -190h-80v190q0 26 2 64q-59 -74 -152 -74q-88 0 -146 67t-58 183q0 115 58 182q59 68 146 68q94 0 152 -75q-2 30 -2 65h80q-1 -67 -1 -335t1 -335zM381 368q-41 50 -100 50t-100 -50t-41 -128q0 -79 41 -129q40 -49 100 -49t100 49q41 50 41 129q0 78 -41 128z" />
    <glyph glyph-name="r" unicode="r" 
d="M483 74v-74h-420v74h146v332h-123v74h202q0 -34 -2 -60q52 70 144 70q44 0 82.5 -17t60.5 -44l-59 -50q-30 39 -98 39q-58 0 -93 -34.5t-35 -93.5v-216h195z" />
    <glyph glyph-name="s" unicode="s" 
d="M506 426l-48 -62q-70 54 -171 54q-45 0 -68.5 -17t-23.5 -48t27 -45q25 -12 106 -29q3 -1 8 -1.5t7 -1.5q87 -19 129.5 -50.5t42.5 -90.5q0 -68 -53.5 -106.5t-148.5 -38.5q-148 0 -227 75l60 59q74 -62 177 -62q49 0 77.5 17t28.5 46q0 31 -24 43q-26 13 -106 32l-36 9
q-77 19 -112 51t-35 92q0 66 52 102t129 36q115 0 209 -64z" />
    <glyph glyph-name="t" unicode="t" 
d="M511 162q0 -77 -49.5 -124.5t-130.5 -47.5q-86 0 -133.5 48t-47.5 132v236h-103v74h103v140l80 11v-151h285v-74h-285v-218q0 -56 27 -87.5t73 -31.5t73.5 25t27.5 70q0 49 -18 91l74 20q24 -53 24 -113z" />
    <glyph glyph-name="u" unicode="u" 
d="M502 0h-81q0 30 3 59q-56 -69 -147 -69q-75 0 -128 50q-51 51 -51 133v307h82v-295q0 -59 30.5 -91t81.5 -32q54 0 91 34q39 34 39 89v295h80q-1 -48 -1 -240t1 -240z" />
    <glyph glyph-name="v" unicode="v" 
d="M551 480l-213 -480h-75l-213 480h91l163 -377l165 377h82z" />
    <glyph glyph-name="w" unicode="w" 
d="M461 0h-98l-62 272l-73 -272h-98l-88 480h74l66 -401l72 261h100l58 -249l73 389h73z" />
    <glyph glyph-name="x" unicode="x" 
d="M563 0h-111l-158 195l-158 -195h-103l210 259l-179 221h107l136 -167l136 167h102l-187 -229z" />
    <glyph glyph-name="y" unicode="y" 
d="M550 480l-299 -670h-86l93 201l-209 469h93l160 -370l164 370h84z" />
    <glyph glyph-name="z" unicode="z" 
d="M524 0h-449v76l329 328h-299v76h409v-76l-329 -328h339v-76z" />
    <glyph glyph-name="braceleft" unicode="{" 
d="M484 -117v-73h-82q-55 0 -94 39q-38 38 -38 93v243q0 24 -17.5 41.5t-41.5 17.5h-65v73h65q24 0 41.5 17.5t17.5 41.5v242q0 55 38 93q39 39 94 39h82v-73h-75q-24 0 -41.5 -17.5t-17.5 -41.5v-242q0 -64 -63 -95q63 -32 63 -96v-243q0 -24 17.5 -41.5t41.5 -17.5h75z
" />
    <glyph glyph-name="bar" unicode="|" 
d="M260 750h80v-940h-80v940z" />
    <glyph glyph-name="braceright" unicode="}" 
d="M370 184v-242q0 -56 -39 -93q-37 -39 -93 -39h-82v73h75q24 0 41.5 17.5t17.5 41.5v242q0 64 63 95q-63 32 -63 96v243q0 24 -17.5 41.5t-41.5 17.5h-75v73h82q56 0 93 -39q39 -37 39 -93v-243q0 -24 17.5 -41.5t41.5 -17.5h65v-73h-65q-24 0 -41.5 -17.5t-17.5 -41.5z
" />
    <glyph glyph-name="asciitilde" unicode="~" 
d="M86 161l-54 57q93 105 176 105q43 0 105 -32q60 -30 93 -30q56 0 106 56l53 -60q-79 -81 -156 -81q-38 0 -98 30q-67 34 -100 34q-53 0 -125 -79z" />
    <glyph glyph-name="uni00A0" unicode="&#xa0;" 
 />
    <glyph glyph-name="exclamdown" unicode="&#xa1;" 
d="M258 464q26 26 62 26t61 -26q26 -25 26 -61t-26 -62q-25 -25 -61 -25t-62 25q-25 26 -25 62t25 61zM360 -190h-80v435h80v-435z" />
    <glyph glyph-name="cent" unicode="&#xa2;" 
d="M158 240q0 -66 38 -113l167 279q-25 5 -43 5q-70 0 -116 -49q-46 -47 -46 -122zM319 -10q-60 0 -109 25l-85 -142l-60 36l88 146q-73 70 -73 185q0 108 68 179t171 71q45 0 86 -15l87 146l60 -36l-86 -143q61 -46 84 -131l-74 -24q-12 53 -51 86l-174 -289q31 -15 69 -15
q50 0 89.5 27.5t57.5 74.5l73 -33q-26 -68 -85.5 -108t-135.5 -40z" />
    <glyph glyph-name="sterling" unicode="&#xa3;" 
d="M519 0h-460v76q66 74 66 161q0 22 -1 29h-109v76h101q-6 58 -6 95q0 105 59 164q61 59 152 59q90 0 150 -66q61 -64 61 -156h-80q0 60 -40 100q-39 41 -99 41q-52 0 -87.5 -34t-35.5 -99q0 -34 7 -89q0 -2 0.5 -7.5t1.5 -7.5h164v-76h-160q0 -106 -48 -190h364v-76z" />
    <glyph glyph-name="currency" unicode="&#xa4;" 
d="M529 78l-57 -57l-79 79q-42 -28 -93 -28t-93 28l-79 -79l-57 57l82 82q-21 34 -21 80q0 52 28 93l-89 89l57 57l92 -92q39 21 80 21q46 0 80 -21l92 92l57 -57l-89 -89q28 -41 28 -93q0 -43 -20 -81zM228 168q31 -29 72 -29q42 0 71 29q30 30 30 72t-30 71q-29 30 -71 30
t-72 -30q-29 -29 -29 -71q0 -41 29 -72z" />
    <glyph glyph-name="yen" unicode="&#xa5;" 
d="M555 198v-74h-215v-124h-80v124h-215v74h215v86h-215v74h169l-184 292h90l181 -292l179 292h90l-184 -292h169v-74h-215v-86h215z" />
    <glyph glyph-name="brokenbar" unicode="&#xa6;" 
d="M260 750h80v-350h-80v350zM260 -190v350h80v-350h-80z" />
    <glyph glyph-name="section" unicode="&#xa7;" 
d="M498 595l-50 -64q-71 53 -169 53q-45 0 -68.5 -16.5t-23.5 -45.5q0 -33 26 -48q26 -13 98 -33l24 -6l140 -38v-76l-220 56q-78 20 -112.5 51.5t-34.5 92.5q0 66 52 102q52 37 129 37q114 0 209 -65zM255 207l-126 35v77l206 -51q66 -17 99 -32q37 -15 53.5 -37.5
t19.5 -63.5q0 -68 -53.5 -106.5t-148.5 -38.5q-147 0 -227 75l60 62q69 -60 177 -60q49 0 77.5 15.5t28.5 42.5q0 8 -1.5 14t-5.5 11t-8 9t-13 8t-17 6.5t-22.5 7t-27 7.5t-33 8.5t-38.5 10.5z" />
    <glyph glyph-name="dieresis" unicode="&#xa8;" 
d="M442 553q-27 0 -46 19.5t-19 46.5q0 28 19 47t46 19q28 0 47 -19t19 -47q0 -27 -19 -46.5t-47 -19.5zM157 553q-27 0 -46 19.5t-19 46.5q0 28 19 47t46 19q28 0 47 -19t19 -47q0 -27 -19 -46.5t-47 -19.5z" />
    <glyph glyph-name="copyright" unicode="&#xa9;" 
d="M593 284q0 -122 -86 -208t-207 -86t-207 86q-86 88 -86 208q0 121 86 207t207 86t207 -86t86 -207zM134 117q70 -68 166 -68q97 0 165 68q69 69 69 166t-69 165q-67 69 -165 69q-97 0 -166 -69q-68 -68 -68 -165q0 -96 68 -166zM376 251l55 -26q-16 -40 -50.5 -63
t-77.5 -23q-60 0 -99 40.5t-39 103.5t39 104q41 41 99 41q48 0 84.5 -28.5t48.5 -74.5l-58 -22q-19 63 -75 63q-33 0 -53 -23t-20 -60q0 -36 19.5 -58t53.5 -22q59 0 73 48z" />
    <glyph glyph-name="ordfeminine" unicode="&#xaa;" 
d="M442 344q-56 0 -76 41q-39 -41 -99 -41q-49 0 -78.5 23t-29.5 60q0 75 108 97q38 7 95 14v28q0 53 -69 53q-65 0 -65 -40q0 -2 2 -8l-60 -10q-2 16 -2 19q0 44 37.5 69.5t93.5 25.5q55 0 90.5 -27.5t35.5 -71.5v-152q0 -23 22 -23q14 0 22.5 13.5t8.5 35.5l55 -11
q0 -43 -25 -69t-66 -26zM273 398q53 0 89 39v54q-56 -7 -96 -18q-41 -11 -41 -40q0 -16 13 -25.5t35 -9.5zM490 213h-340v57h340v-57z" />
    <glyph glyph-name="guillemotleft" unicode="&#xab;" 
d="M260 123v-105l-210 178v87l210 179v-105l-138 -117zM520 123v-105l-210 178v87l210 179v-105l-138 -117z" />
    <glyph glyph-name="logicalnot" unicode="&#xac;" 
d="M555 74h-80v210h-430v80h510v-290z" />
    <glyph glyph-name="uni00AD" unicode="&#xad;" 
d="M480 210h-360v80h360v-80z" />
    <glyph glyph-name="registered" unicode="&#xae;" 
d="M66 446q0 95 69 164q69 70 165 70t165 -69t69 -165t-69 -166q-69 -69 -165 -69t-165 69q-69 70 -69 166zM478 445q0 74 -52 126q-53 53 -126 53t-126 -53q-52 -52 -52 -126t52 -126t126 -52t126 52t52 126zM305 501h-32v-51h35q12 0 20 8t8 18q0 25 -31 25zM389 342h-51
l-32 68h-33v-68h-45v201h93q27 0 45 -18t18 -47q0 -41 -34 -59z" />
    <glyph glyph-name="overscore" unicode="&#xaf;" 
d="M490 586h-380v74h380v-74z" />
    <glyph glyph-name="degree" unicode="&#xb0;" 
d="M300 672q63 0 108 -45t45 -107q0 -63 -45 -108t-108 -45q-62 0 -108 45q-45 45 -45 108q0 62 45 107q46 45 108 45zM220 520q0 -34 23.5 -57t56.5 -23t56.5 23t23.5 57q0 32 -23.5 55.5t-56.5 23.5t-56.5 -23.5t-23.5 -55.5z" />
    <glyph glyph-name="plusminus" unicode="&#xb1;" 
d="M535 430v-80h-195v-195h-80v195h-195v80h195v195h80v-195h195zM535 -53h-470v80h470v-80z" />
    <glyph glyph-name="uni00B2" unicode="&#xb2;" 
d="M439 349h-251q0 66 43 103q34 29 80 51q32 15 46 29t14 35q0 23 -16 35.5t-41 12.5q-30 0 -47.5 -15t-17.5 -39h-59q0 46 36 80t91 34q49 0 81.5 -27.5t32.5 -71.5q0 -48 -31 -74q-26 -21 -64 -39q-62 -30 -79 -56h182v-58z" />
    <glyph glyph-name="uni00B3" unicode="&#xb3;" 
d="M249 339q-27 0 -52 6l10 58q25 -4 41 -4q116 0 116 71q0 21 -15.5 33.5t-40.5 12.5q-26 0 -43 -11l-34 35l110 76h-147v54h230v-54l-82 -57q38 0 60 -21.5t22 -61.5q0 -65 -51 -101t-124 -36z" />
    <glyph glyph-name="acute" unicode="&#xb4;" 
d="M227 553l143 143h103l-146 -143h-100z" />
    <glyph glyph-name="mu" unicode="&#xb5;" 
d="M280 -10q-66 0 -100 51v-231h-80q1 67 1 335t-1 335h80v-295q0 -59 30.5 -91t81.5 -32q53 0 91 34q39 34 39 89v295h80q-1 -48 -1 -240t1 -240h-80q0 34 2 60q-52 -70 -144 -70z" />
    <glyph glyph-name="paragraph" unicode="&#xb6;" 
d="M227 670h256v-735h-80v661h-96v-661h-80v413q-89 0 -141 44t-52 117t52 117t141 44z" />
    <glyph glyph-name="middot" unicode="&#xb7;" 
d="M361 188q-25 -25 -61 -25t-62 25q-25 26 -25 62t25 61q26 26 62 26t61 -26q26 -25 26 -61t-26 -62z" />
    <glyph glyph-name="cedilla" unicode="&#xb8;" 
d="M230 2l45 45q38 -38 38 -93q0 -47 -41 -88q-40 -40 -89 -40v66q24 0 44 19.5t20 43.5q0 30 -17 47z" />
    <glyph glyph-name="uni00B9" unicode="&#xb9;" 
d="M439 406v-57h-283v57h122v204l-70 -41l-37 39l107 62h60v-264h101z" />
    <glyph glyph-name="ordmasculine" unicode="&#xba;" 
d="M299 344q-71 0 -117 46t-46 120q0 72 46 118q47 47 117 47q71 0 118 -47t47 -118q0 -73 -47 -120q-46 -46 -118 -46zM228 436q29 -29 72 -29t70 29q28 29 28 74t-28 73q-27 29 -70 29t-72 -29q-28 -28 -28 -73t28 -74zM470 213h-340v57h340v-57z" />
    <glyph glyph-name="guillemotright" unicode="&#xbb;" 
d="M590 197l-210 -179v105l138 117l-138 117v105l210 -178v-87zM330 197l-210 -179v105l138 117l-138 117v105l210 -178v-87z" />
    <glyph glyph-name="onequarter" unicode="&#xbc;" 
d="M439 406v-57h-283v57h122v204l-70 -41l-37 39l107 62h60v-264h101zM520 233h-440v57h440v-57zM214 -17h88v120zM430 -17v-54h-68v-69h-60v69h-158v44l152 208h66v-198h68z" />
    <glyph glyph-name="onehalf" unicode="&#xbd;" 
d="M439 406v-57h-283v57h122v204l-70 -41l-37 39l107 62h60v-264h101zM520 233h-440v57h440v-57zM419 -140h-251q0 66 43 103q34 29 80 51q32 15 46 29t14 35q0 23 -16 35.5t-41 12.5q-30 0 -47.5 -15t-17.5 -39h-59q0 46 36 80t91 34q49 0 81.5 -27.5t32.5 -71.5
q0 -48 -31 -74q-26 -21 -64 -39q-62 -30 -79 -56h182v-58z" />
    <glyph glyph-name="threequarters" unicode="&#xbe;" 
d="M245 339q-27 0 -52 6l10 58q25 -4 41 -4q116 0 116 71q0 21 -15.5 33.5t-40.5 12.5q-26 0 -43 -11l-34 35l110 76h-147v54h230v-54l-82 -57q38 0 60 -21.5t22 -61.5q0 -65 -51 -101t-124 -36zM520 233h-440v57h440v-57zM214 -17h88v120zM430 -17v-54h-68v-69h-60v69h-158
v44l152 208h66v-198h68z" />
    <glyph glyph-name="questiondown" unicode="&#xbf;" 
d="M346 464q26 26 62 26t61 -26q26 -25 26 -61t-26 -62q-25 -25 -61 -25t-62 25q-25 26 -25 62t25 61zM368 245h80q0 -48 -18.5 -78.5t-59.5 -62.5q-9 -3 -24 -18l-11 -9q-6 -5 -20 -19q-25 -30 -25 -68q0 -43 28 -66t76 -23q49 0 80.5 29.5t31.5 77.5q0 14 -2 26l74 11
q3 -18 3 -36q0 -84 -55 -136q-55 -53 -144 -53q-76 0 -126 48q-49 48 -49 113q0 38 13 65q14 29 27.5 44t41.5 35l40 32q14 13 26.5 38t12.5 50z" />
    <glyph glyph-name="Agrave" unicode="&#xc0;" 
d="M151 866h103l143 -143h-100zM207 256h184l-92 305zM550 0h-81l-55 182h-230l-55 -182h-79l203 650h94z" />
    <glyph glyph-name="Aacute" unicode="&#xc1;" 
d="M227 723l143 143h103l-146 -143h-100zM207 256h184l-92 305zM550 0h-81l-55 182h-230l-55 -182h-79l203 650h94z" />
    <glyph glyph-name="Acircumflex" unicode="&#xc2;" 
d="M471 723h-92l-79 94l-79 -94h-92l129 143h84zM207 256h184l-92 305zM550 0h-81l-55 182h-230l-55 -182h-79l203 650h94z" />
    <glyph glyph-name="Atilde" unicode="&#xc3;" 
d="M138 733l-46 49q72 78 134 78q46 0 80 -21q55 -32 75 -32q34 0 77 49l50 -45q-56 -75 -130 -75q-42 0 -75 21q-49 31 -73 31q-41 0 -92 -55zM207 256h184l-92 305zM550 0h-81l-55 182h-230l-55 -182h-79l203 650h94z" />
    <glyph glyph-name="Adieresis" unicode="&#xc4;" 
d="M442 723q-27 0 -46 19.5t-19 46.5q0 28 19 47t46 19q28 0 47 -19t19 -47q0 -27 -19 -46.5t-47 -19.5zM157 723q-27 0 -46 19.5t-19 46.5q0 28 19 47t46 19q28 0 47 -19t19 -47q0 -27 -19 -46.5t-47 -19.5zM207 256h184l-92 305zM550 0h-81l-55 182h-230l-55 -182h-79
l203 650h94z" />
    <glyph glyph-name="Aring" unicode="&#xc5;" 
d="M190 789q0 43 31 74q32 32 76 32t75.5 -31t31.5 -75t-32 -76q-31 -31 -75 -31q-45 0 -76 31t-31 76zM245 789q0 -22 15 -37t37 -15t37 15t15 37q0 21 -15 36t-37 15t-37 -15t-15 -36zM207 256h184l-92 305zM550 0h-81l-55 182h-230l-55 -182h-79l203 650h94z" />
    <glyph glyph-name="AE" unicode="&#xc6;" 
d="M205 256h118v314zM598 0h-275v182h-146l-68 -182h-79l250 650h314v-74h-196v-196h124v-74h-124v-232h200v-74z" />
    <glyph glyph-name="Ccedilla" unicode="&#xc7;" 
d="M368 -46q0 -47 -41 -88q-40 -40 -89 -40v66q24 0 44 19.5t20 43.5t-10 38q-101 13 -163 105q-61 91 -61 231q0 148 71 240q72 91 190 91q95 0 162.5 -62t89.5 -169l-74 -34q-13 87 -61.5 138t-116.5 51q-82 0 -131 -70q-50 -71 -50 -185q0 -117 50 -191q50 -72 131 -72
q65 0 112.5 46t61.5 124l70 -47q-23 -83 -78.5 -135t-131.5 -62q5 -22 5 -38z" />
    <glyph glyph-name="Egrave" unicode="&#xc8;" 
d="M171 866h103l143 -143h-100zM527 0h-405v650h401v-74h-321v-197h249v-74h-249v-231h325v-74z" />
    <glyph glyph-name="Eacute" unicode="&#xc9;" 
d="M247 723l143 143h103l-146 -143h-100zM527 0h-405v650h401v-74h-321v-197h249v-74h-249v-231h325v-74z" />
    <glyph glyph-name="Ecircumflex" unicode="&#xca;" 
d="M491 723h-92l-79 94l-79 -94h-92l129 143h84zM527 0h-405v650h401v-74h-321v-197h249v-74h-249v-231h325v-74z" />
    <glyph glyph-name="Edieresis" unicode="&#xcb;" 
d="M462 723q-27 0 -46 19.5t-19 46.5q0 28 19 47t46 19q28 0 47 -19t19 -47q0 -27 -19 -46.5t-47 -19.5zM177 723q-27 0 -46 19.5t-19 46.5q0 28 19 47t46 19q28 0 47 -19t19 -47q0 -27 -19 -46.5t-47 -19.5zM527 0h-405v650h401v-74h-321v-197h249v-74h-249v-231h325v-74z
" />
    <glyph glyph-name="Igrave" unicode="&#xcc;" 
d="M151 866h103l143 -143h-100zM510 74v-74h-420v74h170v502h-170v74h420v-74h-170v-502h170z" />
    <glyph glyph-name="Iacute" unicode="&#xcd;" 
d="M227 723l143 143h103l-146 -143h-100zM510 74v-74h-420v74h170v502h-170v74h420v-74h-170v-502h170z" />
    <glyph glyph-name="Icircumflex" unicode="&#xce;" 
d="M471 723h-92l-79 94l-79 -94h-92l129 143h84zM510 74v-74h-420v74h170v502h-170v74h420v-74h-170v-502h170z" />
    <glyph glyph-name="Idieresis" unicode="&#xcf;" 
d="M442 723q-27 0 -46 19.5t-19 46.5q0 28 19 47t46 19q28 0 47 -19t19 -47q0 -27 -19 -46.5t-47 -19.5zM157 723q-27 0 -46 19.5t-19 46.5q0 28 19 47t46 19q28 0 47 -19t19 -47q0 -27 -19 -46.5t-47 -19.5zM510 74v-74h-420v74h170v502h-170v74h420v-74h-170v-502h170z
" />
    <glyph glyph-name="Eth" unicode="&#xd0;" 
d="M260 -7q-90 0 -136 7v280h-78v74h78v296q53 6 136 6q142 0 228 -83q87 -82 87 -236q0 -169 -83 -256.5t-232 -87.5zM265 67q230 0 230 266q0 109 -60 179q-59 71 -171 71q-28 0 -60 -3v-226h161v-74h-161v-210q32 -3 61 -3z" />
    <glyph glyph-name="Ntilde" unicode="&#xd1;" 
d="M138 733l-46 49q72 78 134 78q46 0 80 -21q55 -32 75 -32q34 0 77 49l50 -45q-56 -75 -130 -75q-42 0 -75 21q-49 31 -73 31q-41 0 -92 -55zM517 0h-131l-226 594v-594h-77v650h144l213 -561v561h77v-650z" />
    <glyph glyph-name="Ograve" unicode="&#xd2;" 
d="M151 866h103l143 -143h-100zM49 324q0 152 69 244t182 92t182 -93q69 -91 69 -243q0 -150 -69 -242t-182 -92t-182 92t-69 242zM300 66q74 0 121 71q46 70 46 187q0 118 -46 188q-46 72 -121 72q-76 0 -122 -72q-45 -70 -45 -188q0 -116 45 -187q47 -71 122 -71z" />
    <glyph glyph-name="Oacute" unicode="&#xd3;" 
d="M227 723l143 143h103l-146 -143h-100zM49 324q0 152 69 244t182 92t182 -93q69 -91 69 -243q0 -150 -69 -242t-182 -92t-182 92t-69 242zM300 66q74 0 121 71q46 70 46 187q0 118 -46 188q-46 72 -121 72q-76 0 -122 -72q-45 -70 -45 -188q0 -116 45 -187q47 -71 122 -71
z" />
    <glyph glyph-name="Ocircumflex" unicode="&#xd4;" 
d="M471 723h-92l-79 94l-79 -94h-92l129 143h84zM49 324q0 152 69 244t182 92t182 -93q69 -91 69 -243q0 -150 -69 -242t-182 -92t-182 92t-69 242zM300 66q74 0 121 71q46 70 46 187q0 118 -46 188q-46 72 -121 72q-76 0 -122 -72q-45 -70 -45 -188q0 -116 45 -187
q47 -71 122 -71z" />
    <glyph glyph-name="Otilde" unicode="&#xd5;" 
d="M138 733l-46 49q72 78 134 78q46 0 80 -21q55 -32 75 -32q34 0 77 49l50 -45q-56 -75 -130 -75q-42 0 -75 21q-49 31 -73 31q-41 0 -92 -55zM49 324q0 152 69 244t182 92t182 -93q69 -91 69 -243q0 -150 -69 -242t-182 -92t-182 92t-69 242zM300 66q74 0 121 71
q46 70 46 187q0 118 -46 188q-46 72 -121 72q-76 0 -122 -72q-45 -70 -45 -188q0 -116 45 -187q47 -71 122 -71z" />
    <glyph glyph-name="Odieresis" unicode="&#xd6;" 
d="M442 723q-27 0 -46 19.5t-19 46.5q0 28 19 47t46 19q28 0 47 -19t19 -47q0 -27 -19 -46.5t-47 -19.5zM157 723q-27 0 -46 19.5t-19 46.5q0 28 19 47t46 19q28 0 47 -19t19 -47q0 -27 -19 -46.5t-47 -19.5zM49 324q0 152 69 244t182 92t182 -93q69 -91 69 -243
q0 -150 -69 -242t-182 -92t-182 92t-69 242zM300 66q74 0 121 71q46 70 46 187q0 118 -46 188q-46 72 -121 72q-76 0 -122 -72q-45 -70 -45 -188q0 -116 45 -187q47 -71 122 -71z" />
    <glyph glyph-name="multiply" unicode="&#xd7;" 
d="M509 98l-57 -57l-152 152l-152 -152l-57 57l152 152l-152 152l57 57l152 -152l152 152l57 -57l-152 -152z" />
    <glyph glyph-name="Oslash" unicode="&#xd8;" 
d="M133 324q0 -84 25 -147l249 355q-43 52 -107 52q-76 0 -122 -72q-45 -70 -45 -188zM300 66q74 0 121 71q46 70 46 187q0 79 -23 142l-247 -353q42 -47 103 -47zM300 -10q-85 0 -150 56l-56 -80l-56 40l67 95q-56 89 -56 223q0 152 69 244t182 92q90 0 154 -61l53 76
l56 -40l-65 -92q53 -89 53 -219q0 -150 -69 -242t-182 -92z" />
    <glyph glyph-name="Ugrave" unicode="&#xd9;" 
d="M141 866h103l143 -143h-100zM437 195v455h80v-452q0 -94 -60 -151q-59 -57 -157 -57t-158 57q-59 57 -59 151v452h80v-455q0 -57 38 -92t99 -35t99 35t38 92z" />
    <glyph glyph-name="Uacute" unicode="&#xda;" 
d="M227 723l143 143h103l-146 -143h-100zM437 195v455h80v-452q0 -94 -60 -151q-59 -57 -157 -57t-158 57q-59 57 -59 151v452h80v-455q0 -57 38 -92t99 -35t99 35t38 92z" />
    <glyph glyph-name="Ucircumflex" unicode="&#xdb;" 
d="M471 723h-92l-79 94l-79 -94h-92l129 143h84zM437 195v455h80v-452q0 -94 -60 -151q-59 -57 -157 -57t-158 57q-59 57 -59 151v452h80v-455q0 -57 38 -92t99 -35t99 35t38 92z" />
    <glyph glyph-name="Udieresis" unicode="&#xdc;" 
d="M442 723q-27 0 -46 19.5t-19 46.5q0 28 19 47t46 19q28 0 47 -19t19 -47q0 -27 -19 -46.5t-47 -19.5zM157 723q-27 0 -46 19.5t-19 46.5q0 28 19 47t46 19q28 0 47 -19t19 -47q0 -27 -19 -46.5t-47 -19.5zM437 195v455h80v-452q0 -94 -60 -151q-59 -57 -157 -57t-158 57
q-59 57 -59 151v452h80v-455q0 -57 38 -92t99 -35t99 35t38 92z" />
    <glyph glyph-name="Yacute" unicode="&#xdd;" 
d="M227 723l143 143h103l-146 -143h-100zM570 650l-230 -365v-285h-80v285l-230 365h90l181 -292l179 292h90z" />
    <glyph glyph-name="Thorn" unicode="&#xde;" 
d="M369 440h-169v-229h168q45 0 78 34q34 34 34 83q0 50 -31 81t-80 31zM347 137h-147v-137h-80v650h80v-136h192q73 0 120 -50q48 -49 48 -131q0 -97 -62 -147q-61 -49 -151 -49z" />
    <glyph glyph-name="germandbls" unicode="&#xdf;" 
d="M570 142q0 -73 -42.5 -112.5t-119.5 -39.5q-108 0 -187 75l60 62q71 -60 137 -60q31 0 48.5 16t17.5 45q0 56 -90 78q-62 17 -98 40q-45 29 -45 97q0 59 42.5 95t109.5 36q6 20 6 39q0 42 -28 67.5t-82 25.5q-55 0 -89.5 -44.5t-35.5 -119.5q-1 -31 -1 -204
q0 -190 1 -238h-80q1 48 1 238v204q0 105 59 172q58 66 161 66q81 0 126.5 -42.5t45.5 -110.5q0 -64 -35 -123q-28 5 -42 5q-37 0 -60.5 -16.5t-23.5 -39.5q0 -22 15 -37q16 -15 31 -20q20 -7 59 -18q73 -22 106 -52.5t33 -83.5z" />
    <glyph glyph-name="agrave" unicode="&#xe0;" 
d="M127 696h103l143 -143h-100zM480 -10q-40 0 -68.5 20.5t-35.5 52.5q-63 -73 -160 -73q-69 0 -110.5 34.5t-41.5 90.5q0 57 40 95t113 53q43 10 157 22v36q0 41 -31.5 68.5t-80.5 27.5q-47 0 -77.5 -20.5t-30.5 -51.5q0 -5 2 -13l-75 -15q-4 11 -4 30q0 61 54 102
q55 41 137 41q81 0 133 -45q53 -45 53 -114v-236q0 -15 9.5 -25t24.5 -10q20 0 33 23.5t13 58.5l68 -16q0 -58 -35 -98q-35 -38 -87 -38zM225 59q93 0 149 77v88q-110 -14 -159 -27q-32 -9 -50 -29t-18 -44q0 -29 21.5 -47t56.5 -18z" />
    <glyph glyph-name="aacute" unicode="&#xe1;" 
d="M203 553l143 143h103l-146 -143h-100zM480 -10q-40 0 -68.5 20.5t-35.5 52.5q-63 -73 -160 -73q-69 0 -110.5 34.5t-41.5 90.5q0 57 40 95t113 53q43 10 157 22v36q0 41 -31.5 68.5t-80.5 27.5q-47 0 -77.5 -20.5t-30.5 -51.5q0 -5 2 -13l-75 -15q-4 11 -4 30
q0 61 54 102q55 41 137 41q81 0 133 -45q53 -45 53 -114v-236q0 -15 9.5 -25t24.5 -10q20 0 33 23.5t13 58.5l68 -16q0 -58 -35 -98q-35 -38 -87 -38zM225 59q93 0 149 77v88q-110 -14 -159 -27q-32 -9 -50 -29t-18 -44q0 -29 21.5 -47t56.5 -18z" />
    <glyph glyph-name="acircumflex" unicode="&#xe2;" 
d="M437 553h-92l-79 94l-79 -94h-92l129 143h84zM480 -10q-40 0 -68.5 20.5t-35.5 52.5q-63 -73 -160 -73q-69 0 -110.5 34.5t-41.5 90.5q0 57 40 95t113 53q43 10 157 22v36q0 41 -31.5 68.5t-80.5 27.5q-47 0 -77.5 -20.5t-30.5 -51.5q0 -5 2 -13l-75 -15q-4 11 -4 30
q0 61 54 102q55 41 137 41q81 0 133 -45q53 -45 53 -114v-236q0 -15 9.5 -25t24.5 -10q20 0 33 23.5t13 58.5l68 -16q0 -58 -35 -98q-35 -38 -87 -38zM225 59q93 0 149 77v88q-110 -14 -159 -27q-32 -9 -50 -29t-18 -44q0 -29 21.5 -47t56.5 -18z" />
    <glyph glyph-name="atilde" unicode="&#xe3;" 
d="M114 563l-46 49q70 78 134 78q46 0 80 -21q55 -32 75 -32q34 0 77 49l50 -45q-56 -75 -130 -75q-42 0 -75 21q-49 31 -73 31q-41 0 -92 -55zM480 -10q-40 0 -68.5 20.5t-35.5 52.5q-63 -73 -160 -73q-69 0 -110.5 34.5t-41.5 90.5q0 57 40 95t113 53q43 10 157 22v36
q0 41 -31.5 68.5t-80.5 27.5q-47 0 -77.5 -20.5t-30.5 -51.5q0 -5 2 -13l-75 -15q-4 11 -4 30q0 61 54 102q55 41 137 41q81 0 133 -45q53 -45 53 -114v-236q0 -15 9.5 -25t24.5 -10q20 0 33 23.5t13 58.5l68 -16q0 -58 -35 -98q-35 -38 -87 -38zM225 59q93 0 149 77v88
q-110 -14 -159 -27q-32 -9 -50 -29t-18 -44q0 -29 21.5 -47t56.5 -18z" />
    <glyph glyph-name="adieresis" unicode="&#xe4;" 
d="M410 553q-27 0 -46 19.5t-19 46.5q0 28 19 47t46 19q28 0 47 -19t19 -47q0 -27 -19 -46.5t-47 -19.5zM125 553q-27 0 -46 19.5t-19 46.5q0 28 19 47t46 19q28 0 47 -19t19 -47q0 -27 -19 -46.5t-47 -19.5zM480 -10q-40 0 -68.5 20.5t-35.5 52.5q-63 -73 -160 -73
q-69 0 -110.5 34.5t-41.5 90.5q0 57 40 95t113 53q43 10 157 22v36q0 41 -31.5 68.5t-80.5 27.5q-47 0 -77.5 -20.5t-30.5 -51.5q0 -5 2 -13l-75 -15q-4 11 -4 30q0 61 54 102q55 41 137 41q81 0 133 -45q53 -45 53 -114v-236q0 -15 9.5 -25t24.5 -10q20 0 33 23.5t13 58.5
l68 -16q0 -58 -35 -98q-35 -38 -87 -38zM225 59q93 0 149 77v88q-110 -14 -159 -27q-32 -9 -50 -29t-18 -44q0 -29 21.5 -47t56.5 -18z" />
    <glyph glyph-name="aring" unicode="&#xe5;" 
d="M154 619q0 43 31 74q32 32 76 32t75.5 -31t31.5 -75t-32 -76q-31 -31 -75 -31q-45 0 -76 31t-31 76zM209 619q0 -22 15 -37t37 -15t37 15t15 37q0 21 -15 36t-37 15t-37 -15t-15 -36zM480 -10q-40 0 -68.5 20.5t-35.5 52.5q-63 -73 -160 -73q-69 0 -110.5 34.5
t-41.5 90.5q0 57 40 95t113 53q43 10 157 22v36q0 41 -31.5 68.5t-80.5 27.5q-47 0 -77.5 -20.5t-30.5 -51.5q0 -5 2 -13l-75 -15q-4 11 -4 30q0 61 54 102q55 41 137 41q81 0 133 -45q53 -45 53 -114v-236q0 -15 9.5 -25t24.5 -10q20 0 33 23.5t13 58.5l68 -16
q0 -58 -35 -98q-35 -38 -87 -38zM225 59q93 0 149 77v88q-110 -14 -159 -27q-32 -9 -50 -29t-18 -44q0 -29 21.5 -47t56.5 -18z" />
    <glyph glyph-name="ae" unicode="&#xe6;" 
d="M412 411q-34 0 -55.5 -36.5t-25.5 -104.5h158q-5 141 -77 141zM496 140l63 -39q-12 -51 -49.5 -81t-84.5 -30q-81 0 -132 79q-22 -36 -59.5 -57.5t-81.5 -21.5q-58 0 -93.5 34.5t-35.5 90.5q0 71 61 110.5t166 43.5v56q0 92 -72 92q-68 0 -68 -72q0 -3 2 -13l-72 -15
q-4 16 -4 30q0 67 44 105t106 38q73 0 112 -63q45 63 121 63q69 0 108.5 -60.5t39.5 -175.5q0 -31 -4 -52h-231q7 -60 33 -98t61 -38q26 0 45.5 19.5t24.5 54.5zM161 59q66 0 105 72q-11 37 -14 71q-149 -8 -149 -83q0 -26 16 -43t42 -17z" />
    <glyph glyph-name="ccedilla" unicode="&#xe7;" 
d="M366 -46q0 -47 -41 -88q-40 -40 -89 -40v66q24 0 44 19.5t20 43.5q0 23 -9 36q-94 11 -152 78q-59 70 -59 171q0 108 68 179t171 71q86 0 148 -49q64 -50 83 -130l-74 -24q-13 56 -55.5 90t-100.5 34q-70 0 -116 -49q-46 -47 -46 -122q0 -74 46 -123q46 -48 116 -48
q50 0 89.5 27.5t57.5 74.5l73 -33q-22 -57 -69.5 -95.5t-110.5 -49.5q6 -18 6 -39z" />
    <glyph glyph-name="egrave" unicode="&#xe8;" 
d="M151 696h103l143 -143h-100zM142 275h316q-8 66 -49.5 104.5t-106.5 38.5t-107.5 -38.5t-52.5 -104.5zM466 140l63 -39q-31 -53 -87.5 -82t-126.5 -29q-108 0 -178 70q-71 71 -71 180t68 180q69 70 175 70q98 0 163 -65t65 -171q0 -31 -4 -52h-390q11 -65 57.5 -102.5
t115.5 -37.5q47 0 88.5 21.5t61.5 56.5z" />
    <glyph glyph-name="eacute" unicode="&#xe9;" 
d="M237 553l143 143h103l-146 -143h-100zM142 275h316q-8 66 -49.5 104.5t-106.5 38.5t-107.5 -38.5t-52.5 -104.5zM466 140l63 -39q-31 -53 -87.5 -82t-126.5 -29q-108 0 -178 70q-71 71 -71 180t68 180q69 70 175 70q98 0 163 -65t65 -171q0 -31 -4 -52h-390
q11 -65 57.5 -102.5t115.5 -37.5q47 0 88.5 21.5t61.5 56.5z" />
    <glyph glyph-name="ecircumflex" unicode="&#xea;" 
d="M478 553h-92l-79 94l-79 -94h-92l129 143h84zM142 275h316q-8 66 -49.5 104.5t-106.5 38.5t-107.5 -38.5t-52.5 -104.5zM466 140l63 -39q-31 -53 -87.5 -82t-126.5 -29q-108 0 -178 70q-71 71 -71 180t68 180q69 70 175 70q98 0 163 -65t65 -171q0 -31 -4 -52h-390
q11 -65 57.5 -102.5t115.5 -37.5q47 0 88.5 21.5t61.5 56.5z" />
    <glyph glyph-name="edieresis" unicode="&#xeb;" 
d="M451 553q-27 0 -46 19.5t-19 46.5q0 28 19 47t46 19q28 0 47 -19t19 -47q0 -27 -19 -46.5t-47 -19.5zM166 553q-27 0 -46 19.5t-19 46.5q0 28 19 47t46 19q28 0 47 -19t19 -47q0 -27 -19 -46.5t-47 -19.5zM142 275h316q-8 66 -49.5 104.5t-106.5 38.5t-107.5 -38.5
t-52.5 -104.5zM466 140l63 -39q-31 -53 -87.5 -82t-126.5 -29q-108 0 -178 70q-71 71 -71 180t68 180q69 70 175 70q98 0 163 -65t65 -171q0 -31 -4 -52h-390q11 -65 57.5 -102.5t115.5 -37.5q47 0 88.5 21.5t61.5 56.5z" />
    <glyph glyph-name="igrave" unicode="&#xec;" 
d="M121 696h103l143 -143h-100zM581 74v-74h-547v74h260v332h-224v74h304q-1 -48 -1 -240v-166h208z" />
    <glyph glyph-name="iacute" unicode="&#xed;" 
d="M197 553l143 143h103l-146 -143h-100zM581 74v-74h-547v74h260v332h-224v74h304q-1 -48 -1 -240v-166h208z" />
    <glyph glyph-name="icircumflex" unicode="&#xee;" 
d="M481 553h-92l-79 94l-79 -94h-92l129 143h84zM581 74v-74h-547v74h260v332h-224v74h304q-1 -48 -1 -240v-166h208z" />
    <glyph glyph-name="idieresis" unicode="&#xef;" 
d="M442 553q-27 0 -46 19.5t-19 46.5q0 28 19 47t46 19q28 0 47 -19t19 -47q0 -27 -19 -46.5t-47 -19.5zM157 553q-27 0 -46 19.5t-19 46.5q0 28 19 47t46 19q28 0 47 -19t19 -47q0 -27 -19 -46.5t-47 -19.5zM581 74v-74h-547v74h260v332h-224v74h304q-1 -48 -1 -240v-166
h208z" />
    <glyph glyph-name="eth" unicode="&#xf0;" 
d="M290 -10q-97 0 -157 64t-60 176q0 111 58 175q59 65 146 65q103 0 157 -70q-14 98 -80 156l-46 -46h-92l81 82q-31 15 -74 23l22 65q60 -12 103 -36l32 32h97l-72 -70q117 -100 117 -308q0 -132 -60 -220q-58 -88 -172 -88zM437 240q0 70 -41 114t-100 44t-100 -47
t-41 -121q0 -75 41 -122q40 -46 100 -46t100 49q41 50 41 129z" />
    <glyph glyph-name="ntilde" unicode="&#xf1;" 
d="M145 563l-46 49q70 78 134 78q45 0 80 -21q55 -32 75 -32q34 0 77 49l50 -45q-55 -75 -130 -75q-42 0 -75 21q-49 31 -73 31q-41 0 -92 -55zM173 290v-290h-80q1 48 1 240t-1 240h80q0 -35 -2 -63q54 73 152 73q77 0 129 -52q53 -53 53 -136v-302h-80v290q0 61 -32 94.5
t-85 33.5q-54 0 -95 -36q-40 -34 -40 -92z" />
    <glyph glyph-name="ograve" unicode="&#xf2;" 
d="M151 696h103l143 -143h-100zM299 -10q-104 0 -171 70q-68 71 -68 180q0 108 68 179t171 71t171 -71q69 -71 69 -179q0 -109 -68 -180q-67 -70 -172 -70zM187 117q45 -48 113 -48t112 48q45 49 45 123t-45 122q-43 49 -112 49q-68 0 -113 -49q-45 -48 -45 -122t45 -123z
" />
    <glyph glyph-name="oacute" unicode="&#xf3;" 
d="M227 553l143 143h103l-146 -143h-100zM299 -10q-104 0 -171 70q-68 71 -68 180q0 108 68 179t171 71t171 -71q69 -71 69 -179q0 -109 -68 -180q-67 -70 -172 -70zM187 117q45 -48 113 -48t112 48q45 49 45 123t-45 122q-43 49 -112 49q-68 0 -113 -49q-45 -48 -45 -122
t45 -123z" />
    <glyph glyph-name="ocircumflex" unicode="&#xf4;" 
d="M470 553h-92l-79 94l-79 -94h-92l129 143h84zM299 -10q-104 0 -171 70q-68 71 -68 180q0 108 68 179t171 71t171 -71q69 -71 69 -179q0 -109 -68 -180q-67 -70 -172 -70zM187 117q45 -48 113 -48t112 48q45 49 45 123t-45 122q-43 49 -112 49q-68 0 -113 -49
q-45 -48 -45 -122t45 -123z" />
    <glyph glyph-name="otilde" unicode="&#xf5;" 
d="M138 563l-46 49q72 78 134 78q46 0 80 -21q55 -32 75 -32q34 0 77 49l50 -45q-56 -75 -130 -75q-42 0 -75 21q-49 31 -73 31q-41 0 -92 -55zM299 -10q-104 0 -171 70q-68 71 -68 180q0 108 68 179t171 71t171 -71q69 -71 69 -179q0 -109 -68 -180q-67 -70 -172 -70z
M187 117q45 -48 113 -48t112 48q45 49 45 123t-45 122q-43 49 -112 49q-68 0 -113 -49q-45 -48 -45 -122t45 -123z" />
    <glyph glyph-name="odieresis" unicode="&#xf6;" 
d="M445 553q-27 0 -46 19.5t-19 46.5q0 28 19 47t46 19q28 0 47 -19t19 -47q0 -27 -19 -46.5t-47 -19.5zM160 553q-27 0 -46 19.5t-19 46.5q0 28 19 47t46 19q28 0 47 -19t19 -47q0 -27 -19 -46.5t-47 -19.5zM299 -10q-104 0 -171 70q-68 71 -68 180q0 108 68 179t171 71
t171 -71q69 -71 69 -179q0 -109 -68 -180q-67 -70 -172 -70zM187 117q45 -48 113 -48t112 48q45 49 45 123t-45 122q-43 49 -112 49q-68 0 -113 -49q-45 -48 -45 -122t45 -123z" />
    <glyph glyph-name="divide" unicode="&#xf7;" 
d="M351 375q-25 -25 -61 -25t-62 25q-25 26 -25 62t25 61q26 26 62 26t61 -26q26 -25 26 -61t-26 -62zM535 210h-470v80h470v-80zM351 5q-25 -25 -61 -25t-62 25q-25 26 -25 62t25 61q26 26 62 26t61 -26q26 -25 26 -61t-26 -62z" />
    <glyph glyph-name="oslash" unicode="&#xf8;" 
d="M299 -10q-89 0 -150 51l-45 -45l-49 49l47 47q-42 62 -42 148q0 108 68 179t171 71q89 0 150 -51l45 45l49 -49l-47 -47q43 -64 43 -148q0 -109 -68 -180q-67 -70 -172 -70zM142 240q0 -46 20 -88l229 229q-39 30 -91 30q-68 0 -113 -49q-45 -48 -45 -122zM300 69
q68 0 112 48q45 49 45 123q0 50 -21 88l-229 -229q41 -30 93 -30z" />
    <glyph glyph-name="ugrave" unicode="&#xf9;" 
d="M141 696h103l143 -143h-100zM502 0h-81q0 30 3 59q-56 -69 -147 -69q-75 0 -128 50q-51 51 -51 133v307h82v-295q0 -59 30.5 -91t81.5 -32q54 0 91 34q39 34 39 89v295h80q-1 -48 -1 -240t1 -240z" />
    <glyph glyph-name="uacute" unicode="&#xfa;" 
d="M227 553l143 143h103l-146 -143h-100zM502 0h-81q0 30 3 59q-56 -69 -147 -69q-75 0 -128 50q-51 51 -51 133v307h82v-295q0 -59 30.5 -91t81.5 -32q54 0 91 34q39 34 39 89v295h80q-1 -48 -1 -240t1 -240z" />
    <glyph glyph-name="ucircumflex" unicode="&#xfb;" 
d="M471 553h-92l-79 94l-79 -94h-92l129 143h84zM502 0h-81q0 30 3 59q-56 -69 -147 -69q-75 0 -128 50q-51 51 -51 133v307h82v-295q0 -59 30.5 -91t81.5 -32q54 0 91 34q39 34 39 89v295h80q-1 -48 -1 -240t1 -240z" />
    <glyph glyph-name="udieresis" unicode="&#xfc;" 
d="M443 553q-27 0 -46 19.5t-19 46.5q0 28 19 47t46 19q28 0 47 -19t19 -47q0 -27 -19 -46.5t-47 -19.5zM158 553q-27 0 -46 19.5t-19 46.5q0 28 19 47t46 19q28 0 47 -19t19 -47q0 -27 -19 -46.5t-47 -19.5zM502 0h-81q0 30 3 59q-56 -69 -147 -69q-75 0 -128 50
q-51 51 -51 133v307h82v-295q0 -59 30.5 -91t81.5 -32q54 0 91 34q39 34 39 89v295h80q-1 -48 -1 -240t1 -240z" />
    <glyph glyph-name="yacute" unicode="&#xfd;" 
d="M227 553l143 143h103l-146 -143h-100zM550 480l-299 -670h-86l93 201l-209 469h93l160 -370l164 370h84z" />
    <glyph glyph-name="thorn" unicode="&#xfe;" 
d="M304 62q60 0 100 49q41 50 41 129q0 78 -41 128t-100 50t-100 -50t-41 -128q0 -79 41 -129q40 -49 100 -49zM173 0v-190h-80q3 186 3 428q0 248 -3 432h80v-190q0 -40 -2 -64q59 74 152 74q86 0 145 -68t59 -182t-59 -182t-145 -68q-93 0 -152 74q2 -26 2 -64z" />
    <glyph glyph-name="ydieresis" unicode="&#xff;" 
d="M443 553q-27 0 -46 19.5t-19 46.5q0 28 19 47t46 19q28 0 47 -19t19 -47q0 -27 -19 -46.5t-47 -19.5zM158 553q-27 0 -46 19.5t-19 46.5q0 28 19 47t46 19q28 0 47 -19t19 -47q0 -27 -19 -46.5t-47 -19.5zM550 480l-299 -670h-86l93 201l-209 469h93l160 -370l164 370h84
z" />
    <glyph glyph-name="Amacron" unicode="&#x100;" 
d="M490 756h-380v74h380v-74zM207 256h184l-92 305zM550 0h-81l-55 182h-230l-55 -182h-79l203 650h94z" />
    <glyph glyph-name="amacron" unicode="&#x101;" 
d="M466 586h-380v74h380v-74zM480 -10q-40 0 -68.5 20.5t-35.5 52.5q-63 -73 -160 -73q-69 0 -110.5 34.5t-41.5 90.5q0 57 40 95t113 53q43 10 157 22v36q0 41 -31.5 68.5t-80.5 27.5q-47 0 -77.5 -20.5t-30.5 -51.5q0 -5 2 -13l-75 -15q-4 11 -4 30q0 61 54 102
q55 41 137 41q81 0 133 -45q53 -45 53 -114v-236q0 -15 9.5 -25t24.5 -10q20 0 33 23.5t13 58.5l68 -16q0 -58 -35 -98q-35 -38 -87 -38zM225 59q93 0 149 77v88q-110 -14 -159 -27q-32 -9 -50 -29t-18 -44q0 -29 21.5 -47t56.5 -18z" />
    <glyph glyph-name="Abreve" unicode="&#x102;" 
d="M370 850h67q0 -54 -38 -92q-37 -37 -92 -37q-54 0 -92 37q-38 38 -38 92h67q0 -27 18.5 -45t44.5 -18t44.5 18t18.5 45zM207 256h184l-92 305zM550 0h-81l-55 182h-230l-55 -182h-79l203 650h94z" />
    <glyph glyph-name="abreve" unicode="&#x103;" 
d="M346 680h67q0 -54 -38 -92q-37 -37 -92 -37q-54 0 -92 37q-38 38 -38 92h67q0 -27 18.5 -45t44.5 -18t44.5 18t18.5 45zM480 -10q-40 0 -68.5 20.5t-35.5 52.5q-63 -73 -160 -73q-69 0 -110.5 34.5t-41.5 90.5q0 57 40 95t113 53q43 10 157 22v36q0 41 -31.5 68.5
t-80.5 27.5q-47 0 -77.5 -20.5t-30.5 -51.5q0 -5 2 -13l-75 -15q-4 11 -4 30q0 61 54 102q55 41 137 41q81 0 133 -45q53 -45 53 -114v-236q0 -15 9.5 -25t24.5 -10q20 0 33 23.5t13 58.5l68 -16q0 -58 -35 -98q-35 -38 -87 -38zM225 59q93 0 149 77v88q-110 -14 -159 -27
q-32 -9 -50 -29t-18 -44q0 -29 21.5 -47t56.5 -18z" />
    <glyph glyph-name="Aogonek" unicode="&#x104;" 
d="M207 256h184l-92 305zM587 -108l20 -68q-4 -1 -15 -1q-67 0 -104 34q-38 33 -38 78t18 68l-54 179h-230l-55 -182h-79l203 650h94l203 -650q-36 -14 -36 -52q0 -24 20.5 -40t52.5 -16z" />
    <glyph glyph-name="aogonek" unicode="&#x105;" 
d="M573 -177q-64 0 -103 32.5t-39 79.5q0 40 13 60q-26 8 -44.5 26.5t-23.5 41.5q-63 -73 -160 -73q-69 0 -110.5 34.5t-41.5 90.5q0 57 40 95t113 53q43 10 157 22v40q0 46 -30.5 69t-81.5 23q-49 0 -78.5 -18t-29.5 -54q0 -3 2 -13l-75 -15q-4 16 -4 30q0 67 57 105
q58 38 137 38q77 0 130 -42q53 -41 53 -107v-246q0 -15 9.5 -25t24.5 -10q22 0 34 22t12 60l68 -16q0 -46 -19 -80t-52 -46q-36 -14 -36 -52q0 -24 20.5 -40t52.5 -16l20 -68q-4 -1 -15 -1zM225 59q93 0 149 77v88q-110 -14 -159 -27q-32 -9 -50 -29t-18 -44q0 -29 21.5 -47
t56.5 -18z" />
    <glyph glyph-name="Cacute" unicode="&#x106;" 
d="M256 723l143 143h103l-146 -143h-100zM581 429l-74 -34q-13 87 -61.5 138t-116.5 51q-82 0 -131 -70q-50 -71 -50 -185q0 -117 50 -191q50 -72 131 -72q65 0 112.5 46t61.5 124l70 -47q-26 -92 -91 -145.5t-153 -53.5q-118 0 -190 93q-71 95 -71 246q0 148 71 240
q72 91 190 91q95 0 162.5 -62t89.5 -169z" />
    <glyph glyph-name="cacute" unicode="&#x107;" 
d="M246 553l143 143h103l-146 -143h-100zM467 171l73 -33q-26 -68 -85.5 -108t-135.5 -40q-104 0 -171 70q-68 71 -68 180q0 108 68 179t171 71q86 0 148 -49q64 -50 83 -130l-74 -24q-13 56 -55.5 90t-100.5 34q-70 0 -116 -49q-46 -47 -46 -122q0 -74 46 -123
q46 -48 116 -48q50 0 89.5 27.5t57.5 74.5z" />
    <glyph glyph-name="Ccircumflex" unicode="&#x108;" 
d="M500 723h-92l-79 94l-79 -94h-92l129 143h84zM581 429l-74 -34q-13 87 -61.5 138t-116.5 51q-82 0 -131 -70q-50 -71 -50 -185q0 -117 50 -191q50 -72 131 -72q65 0 112.5 46t61.5 124l70 -47q-26 -92 -91 -145.5t-153 -53.5q-118 0 -190 93q-71 95 -71 246q0 148 71 240
q72 91 190 91q95 0 162.5 -62t89.5 -169z" />
    <glyph glyph-name="ccircumflex" unicode="&#x109;" 
d="M492 553h-92l-79 94l-79 -94h-92l129 143h84zM467 171l73 -33q-26 -68 -85.5 -108t-135.5 -40q-104 0 -171 70q-68 71 -68 180q0 108 68 179t171 71q86 0 148 -49q64 -50 83 -130l-74 -24q-13 56 -55.5 90t-100.5 34q-70 0 -116 -49q-46 -47 -46 -122q0 -74 46 -123
q46 -48 116 -48q50 0 89.5 27.5t57.5 74.5z" />
    <glyph glyph-name="Cdotaccent" unicode="&#x10a;" 
d="M390 747q-25 -25 -61 -25t-62 25q-25 26 -25 62t25 61q26 26 62 26t61 -26q26 -25 26 -61t-26 -62zM581 429l-74 -34q-13 87 -61.5 138t-116.5 51q-82 0 -131 -70q-50 -71 -50 -185q0 -117 50 -191q50 -72 131 -72q65 0 112.5 46t61.5 124l70 -47q-26 -92 -91 -145.5
t-153 -53.5q-118 0 -190 93q-71 95 -71 246q0 148 71 240q72 91 190 91q95 0 162.5 -62t89.5 -169z" />
    <glyph glyph-name="cdotaccent" unicode="&#x10b;" 
d="M380 577q-25 -25 -61 -25t-62 25q-25 26 -25 62t25 61q26 26 62 26t61 -26q26 -25 26 -61t-26 -62zM467 171l73 -33q-26 -68 -85.5 -108t-135.5 -40q-104 0 -171 70q-68 71 -68 180q0 108 68 179t171 71q86 0 148 -49q64 -50 83 -130l-74 -24q-13 56 -55.5 90t-100.5 34
q-70 0 -116 -49q-46 -47 -46 -122q0 -74 46 -123q46 -48 116 -48q50 0 89.5 27.5t57.5 74.5z" />
    <glyph glyph-name="Ccaron" unicode="&#x10c;" 
d="M497 875l-129 -143h-84l-129 143h92l79 -94l79 94h92zM581 429l-74 -34q-13 87 -61.5 138t-116.5 51q-82 0 -131 -70q-50 -71 -50 -185q0 -117 50 -191q50 -72 131 -72q65 0 112.5 46t61.5 124l70 -47q-26 -92 -91 -145.5t-153 -53.5q-118 0 -190 93q-71 95 -71 246
q0 148 71 240q72 91 190 91q95 0 162.5 -62t89.5 -169z" />
    <glyph glyph-name="ccaron" unicode="&#x10d;" 
d="M480 705l-129 -143h-84l-129 143h92l79 -94l79 94h92zM467 171l73 -33q-26 -68 -85.5 -108t-135.5 -40q-104 0 -171 70q-68 71 -68 180q0 108 68 179t171 71q86 0 148 -49q64 -50 83 -130l-74 -24q-13 56 -55.5 90t-100.5 34q-70 0 -116 -49q-46 -47 -46 -122
q0 -74 46 -123q46 -48 116 -48q50 0 89.5 27.5t57.5 74.5z" />
    <glyph glyph-name="Dcaron" unicode="&#x10e;" 
d="M461 875l-129 -143h-84l-129 143h92l79 -94l79 94h92zM251 -7q-90 0 -136 7v650q52 6 136 6q142 0 228 -83q87 -82 87 -236q0 -169 -83 -256.5t-232 -87.5zM256 67q230 0 230 266q0 109 -60 179q-59 71 -171 71q-29 0 -60 -3v-510q31 -3 61 -3z" />
    <glyph glyph-name="dcaron" unicode="&#x10f;" 
d="M381 368q-41 50 -100 50t-100 -50t-41 -128q0 -79 41 -129q40 -49 100 -49t100 49q41 50 41 129q0 78 -41 128zM492 0h-80q0 36 2 64q-59 -74 -152 -74q-88 0 -146 67t-58 183q0 115 58 182q59 68 146 68q94 0 152 -75q-2 42 -2 65v190h80q-1 -67 -1 -335t1 -335z
M229 -289l-14 45q63 16 73 61q-61 9 -61 62q0 25 17 42.5t40 17.5q29 0 47 -23.5t18 -62.5q0 -51 -31.5 -88.5t-88.5 -53.5z" />
    <glyph glyph-name="Dcroat" unicode="&#x110;" 
d="M260 -7q-90 0 -136 7v280h-78v74h78v296q53 6 136 6q142 0 228 -83q87 -82 87 -236q0 -169 -83 -256.5t-232 -87.5zM265 67q230 0 230 266q0 109 -60 179q-59 71 -171 71q-28 0 -60 -3v-226h161v-74h-161v-210q32 -3 61 -3z" />
    <glyph glyph-name="dslash" unicode="&#x111;" 
d="M401 368q-41 50 -100 50t-100 -50t-41 -128q0 -79 41 -129q40 -49 100 -49t100 49q41 50 41 129q0 78 -41 128zM512 0h-80q0 36 2 64q-59 -74 -152 -74q-88 0 -146 67t-58 183q0 115 58 182q59 68 146 68q94 0 152 -75q-2 42 -2 65v60h-165v74h165v56h79v-56h72v-74h-72
v-205q0 -268 1 -335z" />
    <glyph glyph-name="Emacron" unicode="&#x112;" 
d="M510 756h-380v74h380v-74zM527 0h-405v650h401v-74h-321v-197h249v-74h-249v-231h325v-74z" />
    <glyph glyph-name="emacron" unicode="&#x113;" 
d="M490 586h-380v74h380v-74zM142 275h316q-8 66 -49.5 104.5t-106.5 38.5t-107.5 -38.5t-52.5 -104.5zM466 140l63 -39q-31 -53 -87.5 -82t-126.5 -29q-108 0 -178 70q-71 71 -71 180t68 180q69 70 175 70q98 0 163 -65t65 -171q0 -31 -4 -52h-390q11 -65 57.5 -102.5
t115.5 -37.5q47 0 88.5 21.5t61.5 56.5z" />
    <glyph glyph-name="Ebreve" unicode="&#x114;" 
d="M390 850h67q0 -54 -38 -92q-37 -37 -92 -37q-54 0 -92 37q-38 38 -38 92h67q0 -27 18.5 -45t44.5 -18t44.5 18t18.5 45zM527 0h-405v650h401v-74h-321v-197h249v-74h-249v-231h325v-74z" />
    <glyph glyph-name="ebreve" unicode="&#x115;" 
d="M370 680h67q0 -54 -38 -92q-37 -37 -92 -37q-54 0 -92 37q-38 38 -38 92h67q0 -27 18.5 -45t44.5 -18t44.5 18t18.5 45zM142 275h316q-8 66 -49.5 104.5t-106.5 38.5t-107.5 -38.5t-52.5 -104.5zM466 140l63 -39q-31 -53 -87.5 -82t-126.5 -29q-108 0 -178 70
q-71 71 -71 180t68 180q69 70 175 70q98 0 163 -65t65 -171q0 -31 -4 -52h-390q11 -65 57.5 -102.5t115.5 -37.5q47 0 88.5 21.5t61.5 56.5z" />
    <glyph glyph-name="Edotaccent" unicode="&#x116;" 
d="M381 747q-25 -25 -61 -25t-62 25q-25 26 -25 62t25 61q26 26 62 26t61 -26q26 -25 26 -61t-26 -62zM527 0h-405v650h401v-74h-321v-197h249v-74h-249v-231h325v-74z" />
    <glyph glyph-name="edotaccent" unicode="&#x117;" 
d="M370 577q-25 -25 -61 -25t-62 25q-25 26 -25 62t25 61q26 26 62 26t61 -26q26 -25 26 -61t-26 -62zM142 275h316q-8 66 -49.5 104.5t-106.5 38.5t-107.5 -38.5t-52.5 -104.5zM466 140l63 -39q-31 -53 -87.5 -82t-126.5 -29q-108 0 -178 70q-71 71 -71 180t68 180
q69 70 175 70q98 0 163 -65t65 -171q0 -31 -4 -52h-390q11 -65 57.5 -102.5t115.5 -37.5q47 0 88.5 21.5t61.5 56.5z" />
    <glyph glyph-name="Eogonek" unicode="&#x118;" 
d="M564 -108l20 -68q-4 -1 -15 -1q-64 0 -103 32.5t-39 79.5q0 43 16 65h-321v650h401v-74h-321v-197h249v-74h-249v-231h325v-74q-36 -14 -36 -52q0 -24 20.5 -40t52.5 -16z" />
    <glyph glyph-name="eogonek" unicode="&#x119;" 
d="M142 275h316q-8 66 -49.5 104.5t-106.5 38.5t-107.5 -38.5t-52.5 -104.5zM567 -7l20 -68q-5 -1 -15 -1q-51 0 -84.5 29.5t-39.5 68.5q-59 -32 -133 -32q-108 0 -178 70q-71 71 -71 180t68 180q69 70 175 70q98 0 163 -65t65 -171q0 -31 -4 -52h-390q11 -65 57.5 -102.5
t115.5 -37.5q47 0 88.5 21.5t61.5 56.5l63 -39l-3 -4q-18 -31 -18 -51q0 -22 16.5 -37.5t42.5 -15.5z" />
    <glyph glyph-name="Ecaron" unicode="&#x11a;" 
d="M501 875l-129 -143h-84l-129 143h92l79 -94l79 94h92zM527 0h-405v650h401v-74h-321v-197h249v-74h-249v-231h325v-74z" />
    <glyph glyph-name="ecaron" unicode="&#x11b;" 
d="M479 705l-129 -143h-84l-129 143h92l79 -94l79 94h92zM142 275h316q-8 66 -49.5 104.5t-106.5 38.5t-107.5 -38.5t-52.5 -104.5zM466 140l63 -39q-31 -53 -87.5 -82t-126.5 -29q-108 0 -178 70q-71 71 -71 180t68 180q69 70 175 70q98 0 163 -65t65 -171q0 -31 -4 -52
h-390q11 -65 57.5 -102.5t115.5 -37.5q47 0 88.5 21.5t61.5 56.5z" />
    <glyph glyph-name="Gcircumflex" unicode="&#x11c;" 
d="M501 723h-92l-79 94l-79 -94h-92l129 143h84zM552 315v-272q-92 -53 -219 -53q-134 0 -209 92q-75 91 -75 247q0 150 74 241q75 90 207 90q136 0 219 -93l-51 -55q-29 32 -73.5 52t-88.5 20q-97 0 -150.5 -68.5t-53.5 -186.5q0 -124 61 -193.5t172 -69.5q68 0 107 17v158
h-129v74h209z" />
    <glyph glyph-name="gcircumflex" unicode="&#x11d;" 
d="M471 553h-92l-79 94l-79 -94h-92l129 143h84zM384 372q-37 46 -93 46q-55 0 -93 -45q-38 -46 -38 -118t38 -118q38 -45 93 -45t93 45q38 47 38 118t-38 117zM263 -200q-115 0 -178 72l48 59q51 -59 139 -59q142 0 142 214q-56 -66 -142 -66q-84 0 -139 63q-55 64 -55 172
q0 109 55 171q55 64 139 64q87 0 141 -66q-1 13 -1 56h80q-1 -43 -1 -190v-202q0 -288 -228 -288z" />
    <glyph glyph-name="Gbreve" unicode="&#x11e;" 
d="M400 850h67q0 -54 -38 -92q-37 -37 -92 -37q-54 0 -92 37q-38 38 -38 92h67q0 -27 18.5 -45t44.5 -18t44.5 18t18.5 45zM552 315v-272q-92 -53 -219 -53q-134 0 -209 92q-75 91 -75 247q0 150 74 241q75 90 207 90q136 0 219 -93l-51 -55q-29 32 -73.5 52t-88.5 20
q-97 0 -150.5 -68.5t-53.5 -186.5q0 -124 61 -193.5t172 -69.5q68 0 107 17v158h-129v74h209z" />
    <glyph glyph-name="gbreve" unicode="&#x11f;" 
d="M370 680h67q0 -54 -38 -92q-37 -37 -92 -37q-54 0 -92 37q-38 38 -38 92h67q0 -27 18.5 -45t44.5 -18t44.5 18t18.5 45zM384 372q-37 46 -93 46q-55 0 -93 -45q-38 -46 -38 -118t38 -118q38 -45 93 -45t93 45q38 47 38 118t-38 117zM263 -200q-115 0 -178 72l48 59
q51 -59 139 -59q142 0 142 214q-56 -66 -142 -66q-84 0 -139 63q-55 64 -55 172q0 109 55 171q55 64 139 64q87 0 141 -66q-1 13 -1 56h80q-1 -43 -1 -190v-202q0 -288 -228 -288z" />
    <glyph glyph-name="Gdotaccent" unicode="&#x120;" 
d="M391 747q-25 -25 -61 -25t-62 25q-25 26 -25 62t25 61q26 26 62 26t61 -26q26 -25 26 -61t-26 -62zM552 315v-272q-92 -53 -219 -53q-134 0 -209 92q-75 91 -75 247q0 150 74 241q75 90 207 90q136 0 219 -93l-51 -55q-29 32 -73.5 52t-88.5 20q-97 0 -150.5 -68.5
t-53.5 -186.5q0 -124 61 -193.5t172 -69.5q68 0 107 17v158h-129v74h209z" />
    <glyph glyph-name="gdotaccent" unicode="&#x121;" 
d="M361 577q-25 -25 -61 -25t-62 25q-25 26 -25 62t25 61q26 26 62 26t61 -26q26 -25 26 -61t-26 -62zM384 372q-37 46 -93 46q-55 0 -93 -45q-38 -46 -38 -118t38 -118q38 -45 93 -45t93 45q38 47 38 118t-38 117zM263 -200q-115 0 -178 72l48 59q51 -59 139 -59
q142 0 142 214q-56 -66 -142 -66q-84 0 -139 63q-55 64 -55 172q0 109 55 171q55 64 139 64q87 0 141 -66q-1 13 -1 56h80q-1 -43 -1 -190v-202q0 -288 -228 -288z" />
    <glyph glyph-name="uni0122" unicode="&#x122;" 
d="M552 315v-272q-92 -53 -219 -53q-134 0 -209 92q-75 91 -75 247q0 150 74 241q75 90 207 90q136 0 219 -93l-51 -55q-29 32 -73.5 52t-88.5 20q-97 0 -150.5 -68.5t-53.5 -186.5q0 -124 61 -193.5t172 -69.5q68 0 107 17v158h-129v74h209zM278 -289l-14 45q63 16 73 61
q-61 9 -61 62q0 25 17 42.5t40 17.5q29 0 47 -23.5t18 -62.5q0 -51 -31.5 -88.5t-88.5 -53.5z" />
    <glyph glyph-name="uni0123" unicode="&#x123;" 
d="M290 551q-29 0 -47 23.5t-18 62.5q0 51 31.5 88.5t88.5 53.5l14 -45q-63 -16 -73 -61q61 -9 61 -62q0 -25 -17 -42.5t-40 -17.5zM384 372q-37 46 -93 46q-55 0 -93 -45q-38 -46 -38 -118t38 -118q38 -45 93 -45t93 45q38 47 38 118t-38 117zM263 -200q-115 0 -178 72
l48 59q51 -59 139 -59q142 0 142 214q-56 -66 -142 -66q-84 0 -139 63q-55 64 -55 172q0 109 55 171q55 64 139 64q87 0 141 -66q-1 13 -1 56h80q-1 -43 -1 -190v-202q0 -288 -228 -288z" />
    <glyph glyph-name="Hcircumflex" unicode="&#x124;" 
d="M471 723h-92l-79 94l-79 -94h-92l129 143h84zM517 0h-80v300h-274v-300h-80v650h80v-276h274v276h80v-650z" />
    <glyph glyph-name="hcircumflex" unicode="&#x125;" 
d="M295 743h-92l-79 94l-79 -94h-92l129 143h84zM173 290v-290h-80q1 48 1 335t-1 335h80v-190q0 -33 -2 -63q54 73 152 73q79 0 131 -52q53 -53 53 -136v-302h-82v290q0 61 -32 94.5t-85 33.5q-54 0 -95 -36q-40 -34 -40 -92z" />
    <glyph glyph-name="Hbar" unicode="&#x126;" 
d="M163 374h274v106h-274v-106zM517 0h-80v300h-274v-300h-80v480h-66v70h66v100h80v-100h274v100h80v-100h66v-70h-66v-480z" />
    <glyph glyph-name="hbar" unicode="&#x127;" 
d="M183 290v-290h-80q1 48 1 540h-87v74h87v56h79v-56h150v-74h-150v-60q0 -33 -2 -63q54 73 152 73q79 0 131 -52q53 -53 53 -136v-302h-82v290q0 61 -32 94.5t-85 33.5q-54 0 -95 -36q-40 -34 -40 -92z" />
    <glyph glyph-name="Itilde" unicode="&#x128;" 
d="M138 733l-46 49q72 78 134 78q46 0 80 -21q55 -32 75 -32q34 0 77 49l50 -45q-56 -75 -130 -75q-42 0 -75 21q-49 31 -73 31q-41 0 -92 -55zM510 74v-74h-420v74h170v502h-170v74h420v-74h-170v-502h170z" />
    <glyph glyph-name="itilde" unicode="&#x129;" 
d="M143 563l-46 49q71 78 134 78q45 0 80 -21q55 -32 75 -32q34 0 77 49l50 -45q-55 -75 -130 -75q-42 0 -75 21q-49 31 -73 31q-41 0 -92 -55zM581 74v-74h-547v74h260v332h-224v74h304q-1 -48 -1 -240v-166h208z" />
    <glyph glyph-name="Imacron" unicode="&#x12a;" 
d="M490 756h-380v74h380v-74zM510 74v-74h-420v74h170v502h-170v74h420v-74h-170v-502h170z" />
    <glyph glyph-name="imacron" unicode="&#x12b;" 
d="M450 586h-380v74h380v-74zM581 74v-74h-547v74h260v332h-224v74h304q-1 -48 -1 -240v-166h208z" />
    <glyph glyph-name="Ibreve" unicode="&#x12c;" 
d="M370 850h67q0 -54 -38 -92q-37 -37 -92 -37q-54 0 -92 37q-38 38 -38 92h67q0 -27 18.5 -45t44.5 -18t44.5 18t18.5 45zM510 74v-74h-420v74h170v502h-170v74h420v-74h-170v-502h170z" />
    <glyph glyph-name="ibreve" unicode="&#x12d;" 
d="M370 680h67q0 -54 -38 -92q-37 -37 -92 -37q-54 0 -92 37q-38 38 -38 92h67q0 -27 18.5 -45t44.5 -18t44.5 18t18.5 45zM581 74v-74h-547v74h260v332h-224v74h304q-1 -48 -1 -240v-166h208z" />
    <glyph glyph-name="Iogonek" unicode="&#x12e;" 
d="M547 -108l20 -68q-4 -1 -15 -1q-64 0 -103 32.5t-39 79.5q0 43 16 65h-336v74h170v502h-170v74h420v-74h-170v-502h170v-74q-36 -14 -36 -52q0 -24 20.5 -40t52.5 -16z" />
    <glyph glyph-name="iogonek" unicode="&#x12f;" 
d="M355 577q-25 -25 -61 -25t-62 25q-25 26 -25 62t25 61q26 26 62 26t61 -26q26 -25 26 -61t-26 -62zM598 -108l20 -68q-4 -1 -15 -1q-64 0 -103 32.5t-39 79.5q0 43 16 65h-423v74h240v332h-204v74h284q-1 -48 -1 -240v-166h188v-74q-36 -14 -36 -52q0 -24 20.5 -40
t52.5 -16z" />
    <glyph glyph-name="Idot" unicode="&#x130;" 
d="M361 747q-25 -25 -61 -25t-62 25q-25 26 -25 62t25 61q26 26 62 26t61 -26q26 -25 26 -61t-26 -62zM510 74v-74h-420v74h170v502h-170v74h420v-74h-170v-502h170z" />
    <glyph glyph-name="dotlessi" unicode="&#x131;" 
d="M581 74v-74h-547v74h260v332h-224v74h304q-1 -48 -1 -240v-166h208z" />
    <glyph glyph-name="IJ" unicode="&#x132;" 
d="M163 300h-80v350h80v-350zM437 206v444h80v-424q0 -114 -60.5 -175t-163.5 -61q-94 0 -152 50q-57 51 -57 126h77q0 -42 39.5 -70.5t100.5 -28.5q57 0 96 41q40 40 40 98z" />
    <glyph glyph-name="ij" unicode="&#x133;" 
d="M210 557q-25 -25 -61 -25t-62 25q-25 26 -25 62t25 61q26 26 62 26t61 -26q26 -25 26 -61t-26 -62zM510 557q-25 -25 -61 -25t-62 25q-25 26 -25 62t25 61q26 26 62 26t61 -26q26 -25 26 -61t-26 -62zM190 0h-80q1 48 1 240t-1 240h80q-1 -48 -1 -240q0 -216 1 -240z
M409 480h80v-492q0 -92 -55 -147q-56 -56 -146 -56q-56 0 -101.5 21.5t-64.5 57.5l72 41q28 -44 103 -44q50 0 81 32.5t31 84.5v502z" />
    <glyph glyph-name="Jcircumflex" unicode="&#x134;" 
d="M551 723h-92l-79 94l-79 -94h-92l129 143h84zM287 -10q-90 0 -146 50q-55 51 -55 126q0 74 56 125l54 -50q-33 -36 -33 -75q0 -43 37 -71t95 -28q63 0 96.5 35.5t33.5 103.5v370h-309v74h389v-424q0 -116 -57 -176t-161 -60z" />
    <glyph glyph-name="jcircumflex" unicode="&#x135;" 
d="M541 553h-92l-79 94l-79 -94h-92l129 143h84zM264 -215q-79 0 -134 43q-55 42 -55 120q0 62 34 102l58 -34q-20 -28 -20 -60q0 -44 34 -69.5t89 -25.5q57 0 88.5 31.5t31.5 85.5v428h-264v74h344v-492q0 -93 -55.5 -148t-150.5 -55z" />
    <glyph glyph-name="uni0136" unicode="&#x136;" 
d="M587 0h-105l-219 306l-90 -99v-207h-80v650h80v-335l299 335h109l-264 -286zM248 -289l-14 45q63 16 73 61q-61 9 -61 62q0 25 17 42.5t40 17.5q29 0 47 -23.5t18 -62.5q0 -51 -31.5 -88.5t-88.5 -53.5z" />
    <glyph glyph-name="uni0137" unicode="&#x137;" 
d="M565 0h-104l-174 241l-100 -87q0 -117 1 -154h-80q1 48 1 335t-1 335h80q-1 -48 -1 -415l261 225h113l-213 -186zM256 -289l-14 45q63 16 73 61q-61 9 -61 62q0 25 17 42.5t40 17.5q29 0 47 -23.5t18 -62.5q0 -51 -31.5 -88.5t-88.5 -53.5z" />
    <glyph glyph-name="kgreenlandic" unicode="&#x138;" 
d="M554 0h-104l-174 241l-100 -87q0 -137 1 -154h-80q1 48 1 240t-1 240h80q-1 -45 -1 -225l261 225h113l-213 -186z" />
    <glyph glyph-name="Lacute" unicode="&#x139;" 
d="M125 723l143 143h103l-146 -143h-100zM542 0h-401v650h80v-576h321v-74z" />
    <glyph glyph-name="lacute" unicode="&#x13a;" 
d="M247 743l143 143h103l-146 -143h-100zM551 74v-74h-487v74h224v522h-184v74h264q-1 -48 -1 -596h184z" />
    <glyph glyph-name="uni013B" unicode="&#x13b;" 
d="M542 0h-401v650h80v-576h321v-74zM284 -289l-14 45q63 16 73 61q-61 9 -61 62q0 25 17 42.5t40 17.5q29 0 47 -23.5t18 -62.5q0 -51 -31.5 -88.5t-88.5 -53.5z" />
    <glyph glyph-name="uni013C" unicode="&#x13c;" 
d="M551 74v-74h-487v74h224v522h-184v74h264q-1 -48 -1 -596h184zM271 -289l-14 45q63 16 73 61q-61 9 -61 62q0 25 17 42.5t40 17.5q29 0 47 -23.5t18 -62.5q0 -51 -31.5 -88.5t-88.5 -53.5z" />
    <glyph glyph-name="Lcaron" unicode="&#x13d;" 
d="M283 540l64 186h83l-69 -186h-78zM542 0h-401v650h80v-576h321v-74z" />
    <glyph glyph-name="lcaron" unicode="&#x13e;" 
d="M451 540l64 186h83l-69 -186h-78zM531 74v-74h-487v74h224v522h-184v74h264q-1 -48 -1 -596h184z" />
    <glyph glyph-name="Ldot" unicode="&#x13f;" 
d="M451 327q-25 -25 -61 -25t-62 25q-25 26 -25 62t25 61q26 26 62 26t61 -26q26 -25 26 -61t-26 -62zM542 0h-401v650h80v-576h321v-74z" />
    <glyph glyph-name="ldot" unicode="&#x140;" 
d="M538 347q-25 -25 -61 -25t-62 25q-25 26 -25 62t25 61q26 26 62 26t61 -26q26 -25 26 -61t-26 -62zM421 74v-74h-367v74h152v522h-114v74h194q-1 -48 -1 -596h136z" />
    <glyph glyph-name="Lslash" unicode="&#x141;" 
d="M562 0h-401v285l-108 -45l-28 68l136 56v286h80v-252l179 74l28 -68l-207 -86v-244h321v-74z" />
    <glyph glyph-name="lslash" unicode="&#x142;" 
d="M551 74v-74h-487v74h224v246l-140 -58l-28 68l168 70v196h-184v74h264q-1 -35 -1 -237l148 61l28 -68l-176 -73v-279h184z" />
    <glyph glyph-name="Nacute" unicode="&#x143;" 
d="M227 723l143 143h103l-146 -143h-100zM517 0h-131l-226 594v-594h-77v650h144l213 -561v561h77v-650z" />
    <glyph glyph-name="nacute" unicode="&#x144;" 
d="M234 553l143 143h103l-146 -143h-100zM173 290v-290h-80q1 48 1 240t-1 240h80q0 -35 -2 -63q54 73 152 73q77 0 129 -52q53 -53 53 -136v-302h-80v290q0 61 -32 94.5t-85 33.5q-54 0 -95 -36q-40 -34 -40 -92z" />
    <glyph glyph-name="uni0145" unicode="&#x145;" 
d="M517 0h-131l-226 594v-594h-77v650h144l213 -561v561h77v-650zM235 -289l-14 45q63 16 73 61q-61 9 -61 62q0 25 17 42.5t40 17.5q29 0 47 -23.5t18 -62.5q0 -51 -31.5 -88.5t-88.5 -53.5z" />
    <glyph glyph-name="uni0146" unicode="&#x146;" 
d="M173 290v-290h-80q1 48 1 240t-1 240h80q0 -35 -2 -63q54 73 152 73q77 0 129 -52q53 -53 53 -136v-302h-80v290q0 61 -32 94.5t-85 33.5q-54 0 -95 -36q-40 -34 -40 -92zM245 -289l-14 45q63 16 73 61q-61 9 -61 62q0 25 17 42.5t40 17.5q29 0 47 -23.5t18 -62.5
q0 -51 -31.5 -88.5t-88.5 -53.5z" />
    <glyph glyph-name="Ncaron" unicode="&#x147;" 
d="M481 875l-129 -143h-84l-129 143h92l79 -94l79 94h92zM517 0h-131l-226 594v-594h-77v650h144l213 -561v561h77v-650z" />
    <glyph glyph-name="ncaron" unicode="&#x148;" 
d="M497 705l-129 -143h-84l-129 143h92l79 -94l79 94h92zM173 290v-290h-80q1 48 1 240t-1 240h80q0 -35 -2 -63q54 73 152 73q77 0 129 -52q53 -53 53 -136v-302h-80v290q0 61 -32 94.5t-85 33.5q-54 0 -95 -36q-40 -34 -40 -92z" />
    <glyph glyph-name="napostrophe" unicode="&#x149;" 
d="M34 354l-20 64q53 16 77.5 35t31.5 53q-45 1 -69 25t-24 61q0 38 24.5 62.5t62.5 24.5q42 0 66 -31t24 -82q0 -78 -46 -134t-127 -78zM334 290v-290h-75q1 48 1 240t-1 240h75q0 -30 -1 -39q37 49 90 49q48 0 79 -38t31 -100v-352h-77v346q0 35 -14 53.5t-38 18.5
q-32 0 -51 -34.5t-19 -93.5z" />
    <glyph glyph-name="Eng" unicode="&#x14a;" 
d="M314 -200q-78 0 -140 45l32 72q55 -41 115 -41q51 0 85 34t34 83v9l-280 596v-598h-77v650h144l213 -466v466h77v-647q0 -92 -55 -147.5t-148 -55.5z" />
    <glyph glyph-name="eng" unicode="&#x14b;" 
d="M311 -200q-87 0 -149 45l32 72q49 -41 112 -41q51 0 85 34t34 83v297q0 61 -32 94.5t-85 33.5q-54 0 -95 -36q-40 -34 -40 -92v-290h-80q1 48 1 240t-1 240h80q0 -35 -2 -63q54 73 152 73q77 0 129 -52q53 -53 53 -136v-299q0 -92 -55 -147q-54 -56 -139 -56z" />
    <glyph glyph-name="Omacron" unicode="&#x14c;" 
d="M490 756h-380v74h380v-74zM49 324q0 152 69 244t182 92t182 -93q69 -91 69 -243q0 -150 -69 -242t-182 -92t-182 92t-69 242zM300 66q74 0 121 71q46 70 46 187q0 118 -46 188q-46 72 -121 72q-76 0 -122 -72q-45 -70 -45 -188q0 -116 45 -187q47 -71 122 -71z" />
    <glyph glyph-name="omacron" unicode="&#x14d;" 
d="M490 586h-380v74h380v-74zM299 -10q-104 0 -171 70q-68 71 -68 180q0 108 68 179t171 71t171 -71q69 -71 69 -179q0 -109 -68 -180q-67 -70 -172 -70zM187 117q45 -48 113 -48t112 48q45 49 45 123t-45 122q-43 49 -112 49q-68 0 -113 -49q-45 -48 -45 -122t45 -123z" />
    <glyph glyph-name="Obreve" unicode="&#x14e;" 
d="M370 850h67q0 -54 -38 -92q-37 -37 -92 -37q-54 0 -92 37q-38 38 -38 92h67q0 -27 18.5 -45t44.5 -18t44.5 18t18.5 45zM49 324q0 152 69 244t182 92t182 -93q69 -91 69 -243q0 -150 -69 -242t-182 -92t-182 92t-69 242zM300 66q74 0 121 71q46 70 46 187q0 118 -46 188
q-46 72 -121 72q-76 0 -122 -72q-45 -70 -45 -188q0 -116 45 -187q47 -71 122 -71z" />
    <glyph glyph-name="obreve" unicode="&#x14f;" 
d="M370 680h67q0 -54 -38 -92q-37 -37 -92 -37q-54 0 -92 37q-38 38 -38 92h67q0 -27 18.5 -45t44.5 -18t44.5 18t18.5 45zM299 -10q-104 0 -171 70q-68 71 -68 180q0 108 68 179t171 71t171 -71q69 -71 69 -179q0 -109 -68 -180q-67 -70 -172 -70zM187 117q45 -48 113 -48
t112 48q45 49 45 123t-45 122q-43 49 -112 49q-68 0 -113 -49q-45 -48 -45 -122t45 -123z" />
    <glyph glyph-name="Ohungarumlaut" unicode="&#x150;" 
d="M350 723l121 143h99l-126 -143h-94zM136 723l125 143h99l-130 -143h-94zM49 324q0 152 69 244t182 92t182 -93q69 -91 69 -243q0 -150 -69 -242t-182 -92t-182 92t-69 242zM300 66q74 0 121 71q46 70 46 187q0 118 -46 188q-46 72 -121 72q-76 0 -122 -72
q-45 -70 -45 -188q0 -116 45 -187q47 -71 122 -71z" />
    <glyph glyph-name="ohungarumlaut" unicode="&#x151;" 
d="M359 553l121 143h99l-126 -143h-94zM145 553l125 143h99l-130 -143h-94zM299 -10q-104 0 -171 70q-68 71 -68 180q0 108 68 179t171 71t171 -71q69 -71 69 -179q0 -109 -68 -180q-67 -70 -172 -70zM187 117q45 -48 113 -48t112 48q45 49 45 123t-45 122q-43 49 -112 49
q-68 0 -113 -49q-45 -48 -45 -122t45 -123z" />
    <glyph glyph-name="OE" unicode="&#x152;" 
d="M243 65q46 0 72 65t26 194q0 261 -98 261t-98 -261q0 -259 98 -259zM598 0h-255v41q-37 -51 -102 -51q-179 0 -179 334q0 165 47 250.5t132 85.5q60 0 102 -60v50h251v-74h-176v-197h104v-74h-104v-231h180v-74z" />
    <glyph glyph-name="oe" unicode="&#x153;" 
d="M339 270h159q0 141 -75 141q-77 0 -84 -141zM195 74q70 0 70 166q0 167 -70 167q-72 0 -72 -167q0 -166 72 -166zM505 140l63 -39q-32 -111 -139 -111q-85 0 -126 84q-35 -84 -109 -84q-70 0 -107 64t-37 186t37 186t107 64q74 0 109 -83q38 83 124 83q142 0 142 -206
q0 -48 -7 -82h-223q10 -136 91 -136q58 0 75 74z" />
    <glyph glyph-name="Racute" unicode="&#x154;" 
d="M239 723l143 143h103l-146 -143h-100zM340 576h-146v-206h176q42 0 71.5 31.5t29.5 78.5q0 44 -35.5 70t-95.5 26zM576 0h-93l-142 296h-147v-296h-80v650h260q79 0 129 -46q51 -46 51 -120q0 -70 -35.5 -119t-91.5 -64z" />
    <glyph glyph-name="racute" unicode="&#x155;" 
d="M237 553l143 143h103l-146 -143h-100zM483 74v-74h-420v74h146v332h-123v74h202q0 -34 -2 -60q52 70 144 70q44 0 82.5 -17t60.5 -44l-59 -50q-30 39 -98 39q-58 0 -93 -34.5t-35 -93.5v-216h195z" />
    <glyph glyph-name="uni0156" unicode="&#x156;" 
d="M340 576h-146v-206h176q42 0 71.5 31.5t29.5 78.5q0 44 -35.5 70t-95.5 26zM576 0h-93l-142 296h-147v-296h-80v650h260q79 0 129 -46q51 -46 51 -120q0 -70 -35.5 -119t-91.5 -64zM269 -289l-14 45q63 16 73 61q-61 9 -61 62q0 25 17 42.5t40 17.5q29 0 47 -23.5
t18 -62.5q0 -51 -31.5 -88.5t-88.5 -53.5z" />
    <glyph glyph-name="uni0157" unicode="&#x157;" 
d="M483 74v-74h-420v74h146v332h-123v74h202q0 -34 -2 -60q52 70 144 70q44 0 82.5 -17t60.5 -44l-59 -50q-30 39 -98 39q-58 0 -93 -34.5t-35 -93.5v-216h195zM192 -289l-14 45q63 16 73 61q-61 9 -61 62q0 25 17 42.5t40 17.5q29 0 47 -23.5t18 -62.5q0 -51 -31.5 -88.5
t-88.5 -53.5z" />
    <glyph glyph-name="Rcaron" unicode="&#x158;" 
d="M483 875l-129 -143h-84l-129 143h92l79 -94l79 94h92zM340 576h-146v-206h176q42 0 71.5 31.5t29.5 78.5q0 44 -35.5 70t-95.5 26zM576 0h-93l-142 296h-147v-296h-80v650h260q79 0 129 -46q51 -46 51 -120q0 -70 -35.5 -119t-91.5 -64z" />
    <glyph glyph-name="rcaron" unicode="&#x159;" 
d="M488 705l-129 -143h-84l-129 143h92l79 -94l79 94h92zM483 74v-74h-420v74h146v332h-123v74h202q0 -34 -2 -60q52 70 144 70q44 0 82.5 -17t60.5 -44l-59 -50q-30 39 -98 39q-58 0 -93 -34.5t-35 -93.5v-216h195z" />
    <glyph glyph-name="Sacute" unicode="&#x15a;" 
d="M237 723l143 143h103l-146 -143h-100zM52 61l56 68q71 -62 204 -62q70 0 111.5 29t41.5 79q0 47 -39 70q-38 23 -147 54q-105 30 -151 69t-46 113q0 87 66 133q68 47 168 47q123 0 212 -68l-49 -61q-73 58 -173 58q-68 0 -106.5 -26.5t-38.5 -76.5q0 -49 34 -71
q33 -21 119 -46l67 -20q21 -6 62 -25q38 -17 56 -34q50 -43 50 -106q0 -100 -71 -148q-71 -47 -179 -47q-161 0 -247 71z" />
    <glyph glyph-name="sacute" unicode="&#x15b;" 
d="M244 553l143 143h103l-146 -143h-100zM506 426l-48 -62q-70 54 -171 54q-45 0 -68.5 -17t-23.5 -48t27 -45q25 -12 106 -29q3 -1 8 -1.5t7 -1.5q87 -19 129.5 -50.5t42.5 -90.5q0 -68 -53.5 -106.5t-148.5 -38.5q-148 0 -227 75l60 59q74 -62 177 -62q49 0 77.5 17
t28.5 46q0 31 -24 43q-26 13 -106 32l-36 9q-77 19 -112 51t-35 92q0 66 52 102t129 36q115 0 209 -64z" />
    <glyph glyph-name="Scircumflex" unicode="&#x15c;" 
d="M486 723h-92l-79 94l-79 -94h-92l129 143h84zM52 61l56 68q71 -62 204 -62q70 0 111.5 29t41.5 79q0 47 -39 70q-38 23 -147 54q-105 30 -151 69t-46 113q0 87 66 133q68 47 168 47q123 0 212 -68l-49 -61q-73 58 -173 58q-68 0 -106.5 -26.5t-38.5 -76.5q0 -49 34 -71
q33 -21 119 -46l67 -20q21 -6 62 -25q38 -17 56 -34q50 -43 50 -106q0 -100 -71 -148q-71 -47 -179 -47q-161 0 -247 71z" />
    <glyph glyph-name="scircumflex" unicode="&#x15d;" 
d="M488 553h-92l-79 94l-79 -94h-92l129 143h84zM506 426l-48 -62q-70 54 -171 54q-45 0 -68.5 -17t-23.5 -48t27 -45q25 -12 106 -29q3 -1 8 -1.5t7 -1.5q87 -19 129.5 -50.5t42.5 -90.5q0 -68 -53.5 -106.5t-148.5 -38.5q-148 0 -227 75l60 59q74 -62 177 -62
q49 0 77.5 17t28.5 46q0 31 -24 43q-26 13 -106 32l-36 9q-77 19 -112 51t-35 92q0 66 52 102t129 36q115 0 209 -64z" />
    <glyph glyph-name="Scedilla" unicode="&#x15e;" 
d="M231 -174v66q24 0 44 19.5t20 43.5q0 19 -8 35q-157 5 -235 71l56 68q71 -62 204 -62q70 0 111.5 29t41.5 79q0 47 -39 70q-38 23 -147 54q-105 30 -151 69t-46 113q0 87 66 133q68 47 168 47q123 0 212 -68l-49 -61q-73 58 -173 58q-68 0 -106.5 -26.5t-38.5 -76.5
q0 -49 34 -71q33 -21 119 -46l67 -20q21 -6 62 -25q38 -17 56 -34q50 -43 50 -106q0 -84 -52 -132t-142 -60q6 -18 6 -39q0 -47 -41 -88q-40 -40 -89 -40z" />
    <glyph glyph-name="scedilla" unicode="&#x15f;" 
d="M230 -174v66q24 0 44 19.5t20 43.5q0 23 -9 36q-128 8 -199 74l60 59q74 -62 177 -62q49 0 77.5 17t28.5 46q0 31 -24 43q-26 13 -106 32l-36 9q-77 19 -112 51t-35 92q0 66 52 102t129 36q115 0 209 -64l-48 -62q-70 54 -171 54q-45 0 -68.5 -17t-23.5 -48t27 -45
q25 -12 106 -29q3 -1 8 -1.5t7 -1.5q87 -19 129.5 -50.5t42.5 -90.5q0 -60 -42 -97.5t-118 -45.5q5 -22 5 -38q0 -47 -41 -88q-40 -40 -89 -40z" />
    <glyph glyph-name="Scaron" unicode="&#x160;" 
d="M491 875l-129 -143h-84l-129 143h92l79 -94l79 94h92zM52 61l56 68q71 -62 204 -62q70 0 111.5 29t41.5 79q0 47 -39 70q-38 23 -147 54q-105 30 -151 69t-46 113q0 87 66 133q68 47 168 47q123 0 212 -68l-49 -61q-73 58 -173 58q-68 0 -106.5 -26.5t-38.5 -76.5
q0 -49 34 -71q33 -21 119 -46l67 -20q21 -6 62 -25q38 -17 56 -34q50 -43 50 -106q0 -100 -71 -148q-71 -47 -179 -47q-161 0 -247 71z" />
    <glyph glyph-name="scaron" unicode="&#x161;" 
d="M491 705l-129 -143h-84l-129 143h92l79 -94l79 94h92zM506 426l-48 -62q-70 54 -171 54q-45 0 -68.5 -17t-23.5 -48t27 -45q25 -12 106 -29q3 -1 8 -1.5t7 -1.5q87 -19 129.5 -50.5t42.5 -90.5q0 -68 -53.5 -106.5t-148.5 -38.5q-148 0 -227 75l60 59q74 -62 177 -62
q49 0 77.5 17t28.5 46q0 31 -24 43q-26 13 -106 32l-36 9q-77 19 -112 51t-35 92q0 66 52 102t129 36q115 0 209 -64z" />
    <glyph glyph-name="uni0162" unicode="&#x162;" 
d="M555 650v-74h-215v-576h-80v576h-215v74h510zM245 -289l-14 45q63 16 73 61q-61 9 -61 62q0 25 17 42.5t40 17.5q29 0 47 -23.5t18 -62.5q0 -51 -31.5 -88.5t-88.5 -53.5z" />
    <glyph glyph-name="uni0163" unicode="&#x163;" 
d="M511 162q0 -77 -49.5 -124.5t-130.5 -47.5q-86 0 -133.5 48t-47.5 132v236h-103v74h103v140l80 11v-151h285v-74h-285v-218q0 -56 27 -87.5t73 -31.5t73.5 25t27.5 70q0 49 -18 91l74 20q24 -53 24 -113zM278 -289l-14 45q63 16 73 61q-61 9 -61 62q0 25 17 42.5t40 17.5
q29 0 47 -23.5t18 -62.5q0 -51 -31.5 -88.5t-88.5 -53.5z" />
    <glyph glyph-name="Tcaron" unicode="&#x164;" 
d="M471 875l-129 -143h-84l-129 143h92l79 -94l79 94h92zM555 650v-74h-215v-576h-80v576h-215v74h510z" />
    <glyph glyph-name="tcaron" unicode="&#x165;" 
d="M294 540l64 186h83l-69 -186h-78zM511 162q0 -77 -49.5 -124.5t-130.5 -47.5q-86 0 -133.5 48t-47.5 132v236h-103v74h103v140l80 11v-151h285v-74h-285v-218q0 -56 27 -87.5t73 -31.5t73.5 25t27.5 70q0 49 -18 91l74 20q24 -53 24 -113z" />
    <glyph glyph-name="Tbar" unicode="&#x166;" 
d="M513 354v-74h-173v-280h-80v280h-173v74h173v222h-215v74h510v-74h-215v-222h173z" />
    <glyph glyph-name="tbar" unicode="&#x167;" 
d="M427 135l77 -27q-16 -55 -61.5 -86.5t-111.5 -31.5q-86 0 -133.5 48t-47.5 132v65h-103v74h103v97h-103v74h103v120l80 11v-131h285v-74h-285v-97h285v-74h-285v-47q0 -56 27 -87.5t73 -31.5q83 0 97 66z" />
    <glyph glyph-name="Utilde" unicode="&#x168;" 
d="M138 733l-46 49q72 78 134 78q46 0 80 -21q55 -32 75 -32q34 0 77 49l50 -45q-56 -75 -130 -75q-42 0 -75 21q-49 31 -73 31q-41 0 -92 -55zM437 195v455h80v-452q0 -94 -60 -151q-59 -57 -157 -57t-158 57q-59 57 -59 151v452h80v-455q0 -57 38 -92t99 -35t99 35t38 92z
" />
    <glyph glyph-name="utilde" unicode="&#x169;" 
d="M138 563l-46 49q72 78 134 78q46 0 80 -21q55 -32 75 -32q34 0 77 49l50 -45q-56 -75 -130 -75q-42 0 -75 21q-49 31 -73 31q-41 0 -92 -55zM502 0h-81q0 30 3 59q-56 -69 -147 -69q-75 0 -128 50q-51 51 -51 133v307h82v-295q0 -59 30.5 -91t81.5 -32q54 0 91 34
q39 34 39 89v295h80q-1 -48 -1 -240t1 -240z" />
    <glyph glyph-name="Umacron" unicode="&#x16a;" 
d="M490 756h-380v74h380v-74zM437 195v455h80v-452q0 -94 -60 -151q-59 -57 -157 -57t-158 57q-59 57 -59 151v452h80v-455q0 -57 38 -92t99 -35t99 35t38 92z" />
    <glyph glyph-name="umacron" unicode="&#x16b;" 
d="M490 586h-380v74h380v-74zM502 0h-81q0 30 3 59q-56 -69 -147 -69q-75 0 -128 50q-51 51 -51 133v307h82v-295q0 -59 30.5 -91t81.5 -32q54 0 91 34q39 34 39 89v295h80q-1 -48 -1 -240t1 -240z" />
    <glyph glyph-name="Ubreve" unicode="&#x16c;" 
d="M370 850h67q0 -54 -38 -92q-37 -37 -92 -37q-54 0 -92 37q-38 38 -38 92h67q0 -27 18.5 -45t44.5 -18t44.5 18t18.5 45zM437 195v455h80v-452q0 -94 -60 -151q-59 -57 -157 -57t-158 57q-59 57 -59 151v452h80v-455q0 -57 38 -92t99 -35t99 35t38 92z" />
    <glyph glyph-name="ubreve" unicode="&#x16d;" 
d="M370 680h67q0 -54 -38 -92q-37 -37 -92 -37q-54 0 -92 37q-38 38 -38 92h67q0 -27 18.5 -45t44.5 -18t44.5 18t18.5 45zM502 0h-81q0 30 3 59q-56 -69 -147 -69q-75 0 -128 50q-51 51 -51 133v307h82v-295q0 -59 30.5 -91t81.5 -32q54 0 91 34q39 34 39 89v295h80
q-1 -48 -1 -240t1 -240z" />
    <glyph glyph-name="Uring" unicode="&#x16e;" 
d="M200 789q0 43 31 74q32 32 76 32t75.5 -31t31.5 -75t-32 -76q-31 -31 -75 -31q-45 0 -76 31t-31 76zM255 789q0 -22 15 -37t37 -15t37 15t15 37q0 21 -15 36t-37 15t-37 -15t-15 -36zM437 195v455h80v-452q0 -94 -60 -151q-59 -57 -157 -57t-158 57q-59 57 -59 151v452
h80v-455q0 -57 38 -92t99 -35t99 35t38 92z" />
    <glyph glyph-name="uring" unicode="&#x16f;" 
d="M200 619q0 43 31 74q32 32 76 32t75.5 -31t31.5 -75t-32 -76q-31 -31 -75 -31q-45 0 -76 31t-31 76zM255 619q0 -22 15 -37t37 -15t37 15t15 37q0 21 -15 36t-37 15t-37 -15t-15 -36zM502 0h-81q0 30 3 59q-56 -69 -147 -69q-75 0 -128 50q-51 51 -51 133v307h82v-295
q0 -59 30.5 -91t81.5 -32q54 0 91 34q39 34 39 89v295h80q-1 -48 -1 -240t1 -240z" />
    <glyph glyph-name="Uhungarumlaut" unicode="&#x170;" 
d="M350 723l121 143h99l-126 -143h-94zM136 723l125 143h99l-130 -143h-94zM437 195v455h80v-452q0 -94 -60 -151q-59 -57 -157 -57t-158 57q-59 57 -59 151v452h80v-455q0 -57 38 -92t99 -35t99 35t38 92z" />
    <glyph glyph-name="uhungarumlaut" unicode="&#x171;" 
d="M350 553l121 143h99l-126 -143h-94zM136 553l125 143h99l-130 -143h-94zM502 0h-81q0 30 3 59q-56 -69 -147 -69q-75 0 -128 50q-51 51 -51 133v307h82v-295q0 -59 30.5 -91t81.5 -32q54 0 91 34q39 34 39 89v295h80q-1 -48 -1 -240t1 -240z" />
    <glyph glyph-name="Uogonek" unicode="&#x172;" 
d="M415 -177q-64 0 -103 32.5t-39 79.5q0 35 11 55q-91 5 -146 61.5t-55 146.5v452h80v-455q0 -57 38 -92t99 -35t99 35t38 92v455h80v-452q0 -75 -39 -127.5t-107 -71.5q-34 -13 -34 -51q0 -24 20.5 -40t52.5 -16l20 -68q-4 -1 -15 -1z" />
    <glyph glyph-name="uogonek" unicode="&#x173;" 
d="M539 -108l20 -68q-4 -1 -15 -1q-67 0 -104 34q-38 33 -38 78q0 46 19 69q0 28 3 55q-56 -69 -147 -69q-75 0 -128 50q-51 51 -51 133v307h82v-295q0 -59 30.5 -91t81.5 -32q54 0 91 34q39 34 39 89v295h80q-1 -48 -1 -240t1 -240q-36 -14 -36 -52q0 -24 20.5 -40
t52.5 -16z" />
    <glyph glyph-name="Wcircumflex" unicode="&#x174;" 
d="M471 723h-92l-79 94l-79 -94h-92l129 143h84zM489 0h-128l-62 350l-62 -350h-128l-71 650h75l63 -599l67 354h114l69 -354l63 599h73z" />
    <glyph glyph-name="wcircumflex" unicode="&#x175;" 
d="M471 553h-92l-79 94l-79 -94h-92l129 143h84zM461 0h-98l-62 272l-73 -272h-98l-88 480h74l66 -401l72 261h100l58 -249l73 389h73z" />
    <glyph glyph-name="Ycircumflex" unicode="&#x176;" 
d="M471 723h-92l-79 94l-79 -94h-92l129 143h84zM570 650l-230 -365v-285h-80v285l-230 365h90l181 -292l179 292h90z" />
    <glyph glyph-name="ycircumflex" unicode="&#x177;" 
d="M479 553h-92l-79 94l-79 -94h-92l129 143h84zM550 480l-299 -670h-86l93 201l-209 469h93l160 -370l164 370h84z" />
    <glyph glyph-name="Ydieresis" unicode="&#x178;" 
d="M442 723q-27 0 -46 19.5t-19 46.5q0 28 19 47t46 19q28 0 47 -19t19 -47q0 -27 -19 -46.5t-47 -19.5zM157 723q-27 0 -46 19.5t-19 46.5q0 28 19 47t46 19q28 0 47 -19t19 -47q0 -27 -19 -46.5t-47 -19.5zM570 650l-230 -365v-285h-80v285l-230 365h90l181 -292l179 292
h90z" />
    <glyph glyph-name="Zacute" unicode="&#x179;" 
d="M227 723l143 143h103l-146 -143h-100zM61 0v74l379 502h-349v74h442v-74l-377 -502h383v-74h-478z" />
    <glyph glyph-name="zacute" unicode="&#x17a;" 
d="M247 553l143 143h103l-146 -143h-100zM524 0h-449v76l329 328h-299v76h409v-76l-329 -328h339v-76z" />
    <glyph glyph-name="Zdotaccent" unicode="&#x17b;" 
d="M371 747q-25 -25 -61 -25t-62 25q-25 26 -25 62t25 61q26 26 62 26t61 -26q26 -25 26 -61t-26 -62zM61 0v74l379 502h-349v74h442v-74l-377 -502h383v-74h-478z" />
    <glyph glyph-name="zdotaccent" unicode="&#x17c;" 
d="M371 577q-25 -25 -61 -25t-62 25q-25 26 -25 62t25 61q26 26 62 26t61 -26q26 -25 26 -61t-26 -62zM524 0h-449v76l329 328h-299v76h409v-76l-329 -328h339v-76z" />
    <glyph glyph-name="Zcaron" unicode="&#x17d;" 
d="M501 875l-129 -143h-84l-129 143h92l79 -94l79 94h92zM61 0v74l379 502h-349v74h442v-74l-377 -502h383v-74h-478z" />
    <glyph glyph-name="zcaron" unicode="&#x17e;" 
d="M494 705l-129 -143h-84l-129 143h92l79 -94l79 94h92zM524 0h-449v76l329 328h-299v76h409v-76l-329 -328h339v-76z" />
    <glyph glyph-name="longs" unicode="&#x17f;" 
d="M525 74v-74h-446v74h179v332h-148v74h148q2 92 50.5 146t128.5 54q57 0 90.5 -31.5t33.5 -78.5q0 -28 -10 -51l-76 26q5 10 5 21q0 18 -13.5 29t-36.5 11q-41 0 -66.5 -33t-25.5 -92v-407h187z" />
    <glyph glyph-name="uni0218" unicode="&#x218;" 
d="M52 61l56 68q71 -62 204 -62q70 0 111.5 29t41.5 79q0 47 -39 70q-38 23 -147 54q-105 30 -151 69t-46 113q0 87 66 133q68 47 168 47q123 0 212 -68l-49 -61q-73 58 -173 58q-68 0 -106.5 -26.5t-38.5 -76.5q0 -49 34 -71q33 -21 119 -46l67 -20q21 -6 62 -25
q38 -17 56 -34q50 -43 50 -106q0 -100 -71 -148q-71 -47 -179 -47q-161 0 -247 71zM249 -289l-14 45q63 16 73 61q-61 9 -61 62q0 25 17 42.5t40 17.5q29 0 47 -23.5t18 -62.5q0 -51 -31.5 -88.5t-88.5 -53.5z" />
    <glyph glyph-name="uni0219" unicode="&#x219;" 
d="M506 426l-48 -62q-70 54 -171 54q-45 0 -68.5 -17t-23.5 -48t27 -45q25 -12 106 -29q3 -1 8 -1.5t7 -1.5q87 -19 129.5 -50.5t42.5 -90.5q0 -68 -53.5 -106.5t-148.5 -38.5q-148 0 -227 75l60 59q74 -62 177 -62q49 0 77.5 17t28.5 46q0 31 -24 43q-26 13 -106 32l-36 9
q-77 19 -112 51t-35 92q0 66 52 102t129 36q115 0 209 -64zM258 -289l-14 45q63 16 73 61q-61 9 -61 62q0 25 17 42.5t40 17.5q29 0 47 -23.5t18 -62.5q0 -51 -31.5 -88.5t-88.5 -53.5z" />
    <glyph glyph-name="uni021A" unicode="&#x21a;" 
d="M555 650v-74h-215v-576h-80v576h-215v74h510zM245 -289l-14 45q63 16 73 61q-61 9 -61 62q0 25 17 42.5t40 17.5q29 0 47 -23.5t18 -62.5q0 -51 -31.5 -88.5t-88.5 -53.5z" />
    <glyph glyph-name="uni021B" unicode="&#x21b;" 
d="M511 162q0 -77 -49.5 -124.5t-130.5 -47.5q-86 0 -133.5 48t-47.5 132v236h-103v74h103v140l80 11v-151h285v-74h-285v-218q0 -56 27 -87.5t73 -31.5t73.5 25t27.5 70q0 49 -18 91l74 20q24 -53 24 -113zM278 -289l-14 45q63 16 73 61q-61 9 -61 62q0 25 17 42.5t40 17.5
q29 0 47 -23.5t18 -62.5q0 -51 -31.5 -88.5t-88.5 -53.5z" />
    <glyph glyph-name="circumflex" unicode="&#x2c6;" 
d="M471 553h-92l-79 94l-79 -94h-92l129 143h84z" />
    <glyph glyph-name="ring" unicode="&#x2da;" 
d="M200 619q0 43 31 74q32 32 76 32t75.5 -31t31.5 -75t-32 -76q-31 -31 -75 -31q-45 0 -76 31t-31 76zM255 619q0 -22 15 -37t37 -15t37 15t15 37q0 21 -15 36t-37 15t-37 -15t-15 -36z" />
    <glyph glyph-name="tilde" unicode="&#x2dc;" 
d="M138 563l-46 49q72 78 134 78q46 0 80 -21q55 -32 75 -32q34 0 77 49l50 -45q-56 -75 -130 -75q-42 0 -75 21q-49 31 -73 31q-41 0 -92 -55z" />
    <glyph glyph-name="Alphatonos" unicode="&#x386;" 
d="M52 464l64 186h83l-69 -186h-78zM227 256h184l-92 305zM570 0h-81l-55 182h-230l-55 -182h-79l203 650h94z" />
    <glyph glyph-name="Epsilontonos" unicode="&#x388;" 
d="M-30 464l64 186h83l-69 -186h-78zM560 0h-375v650h371v-74h-291v-197h219v-74h-219v-231h295v-74z" />
    <glyph glyph-name="Etatonos" unicode="&#x389;" 
d="M-30 464l64 186h83l-69 -186h-78zM570 0h-80v300h-244v-300h-80v650h80v-276h244v276h80v-650z" />
    <glyph glyph-name="Iotatonos" unicode="&#x38a;" 
d="M-30 464l64 186h83l-69 -186h-78zM520 74v-74h-360v74h140v502h-140v74h360v-74h-140v-502h140z" />
    <glyph glyph-name="Omicrontonos" unicode="&#x38c;" 
d="M98 324q0 152 65 244t171 92t171 -93q65 -92 65 -243q0 -150 -65 -242t-171 -92t-171 92t-65 242zM-30 464l64 186h83l-69 -186h-78zM334 66q68 0 110 71q42 70 42 187q0 118 -42 188q-42 72 -110 72q-69 0 -111 -72q-41 -71 -41 -188q0 -116 41 -187q42 -71 111 -71z
" />
    <glyph glyph-name="Upsilontonos" unicode="&#x38e;" 
d="M-30 464l64 186h83l-69 -186h-78zM570 650l-170 -365v-285h-80v285l-170 365h86l125 -280l123 280h86z" />
    <glyph glyph-name="Omegatonos" unicode="&#x38f;" 
d="M-30 464l64 186h83l-69 -186h-78zM286 74l-20 -74h-168v74h107q-49 48 -78 124t-29 157q0 134 62 220q63 85 164 85q102 0 163 -85q63 -85 63 -220q0 -81 -29 -157t-78 -124h107v-74h-168l-20 74q50 43 77.5 117t27.5 164q0 101 -40 165q-41 65 -103 65q-63 0 -104 -65
q-39 -64 -39 -165q0 -199 105 -281z" />
    <glyph glyph-name="iotadieresistonos" unicode="&#x390;" 
d="M232 540l64 186h83l-69 -186h-78zM462 553q-27 0 -46 19.5t-19 46.5q0 28 19 47t46 19q28 0 47 -19t19 -47q0 -27 -19 -46.5t-47 -19.5zM137 553q-27 0 -46 19.5t-19 46.5q0 28 19 47t46 19q28 0 47 -19t19 -47q0 -27 -19 -46.5t-47 -19.5zM530 97l58 -57
q-48 -50 -133 -50q-86 0 -133.5 48t-47.5 132v236h-204v74h284v-292q0 -56 27 -87.5t73 -31.5q51 0 76 28z" />
    <glyph glyph-name="Alpha" unicode="&#x391;" 
d="M207 256h184l-92 305zM550 0h-81l-55 182h-230l-55 -182h-79l203 650h94z" />
    <glyph glyph-name="Beta" unicode="&#x392;" 
d="M351 581h-151v-215h143q41 0 71 34q31 34 31 84q0 43 -26.5 70t-67.5 27zM343 298h-143v-229h152q55 0 88 27.5t33 83.5t-36 87t-94 31zM370 0h-250v650h247q67 0 114 -45t47 -116q0 -104 -89 -154q54 -21 85.5 -61t31.5 -95q0 -83 -51 -131t-135 -48z" />
    <glyph glyph-name="Gamma" unicode="&#x393;" 
d="M565 650v-74h-321v-576h-80v650h401z" />
    <glyph glyph-name="uni0394" unicode="&#x394;" 
d="M151 74h296l-148 487zM550 0h-500l203 650h94z" />
    <glyph glyph-name="Epsilon" unicode="&#x395;" 
d="M527 0h-405v650h401v-74h-321v-197h249v-74h-249v-231h325v-74z" />
    <glyph glyph-name="Zeta" unicode="&#x396;" 
d="M61 0v74l379 502h-349v74h442v-74l-377 -502h383v-74h-478z" />
    <glyph glyph-name="Eta" unicode="&#x397;" 
d="M517 0h-80v300h-274v-300h-80v650h80v-276h274v276h80v-650z" />
    <glyph glyph-name="Theta" unicode="&#x398;" 
d="M49 324q0 152 69 244t182 92t182 -93q69 -91 69 -243q0 -150 -69 -242t-182 -92t-182 92t-69 242zM300 66q74 0 121 71q46 70 46 187q0 118 -46 188q-46 72 -121 72q-76 0 -122 -72q-45 -70 -45 -188q0 -116 45 -187q47 -71 122 -71zM410 300h-220v74h220v-74z" />
    <glyph glyph-name="Iota" unicode="&#x399;" 
d="M510 74v-74h-420v74h170v502h-170v74h420v-74h-170v-502h170z" />
    <glyph glyph-name="Kappa" unicode="&#x39a;" 
d="M587 0h-105l-219 306l-90 -99v-207h-80v650h80v-335l299 335h109l-264 -286z" />
    <glyph glyph-name="Lambda" unicode="&#x39b;" 
d="M550 0h-81l-170 561l-170 -561h-79l203 650h94z" />
    <glyph glyph-name="Mu" unicode="&#x39c;" 
d="M361 245h-125l-99 353v-598h-77v650h141l100 -350l99 350h140v-650h-77v594z" />
    <glyph glyph-name="Nu" unicode="&#x39d;" 
d="M517 0h-131l-226 594v-594h-77v650h144l213 -561v561h77v-650z" />
    <glyph glyph-name="Xi" unicode="&#x39e;" 
d="M96 650h408v-80h-408v80zM134 382h330v-80h-330v80zM96 80h408v-80h-408v80z" />
    <glyph glyph-name="Omicron" unicode="&#x39f;" 
d="M49 324q0 152 69 244t182 92t182 -93q69 -91 69 -243q0 -150 -69 -242t-182 -92t-182 92t-69 242zM300 66q74 0 121 71q46 70 46 187q0 118 -46 188q-46 72 -121 72q-76 0 -122 -72q-45 -70 -45 -188q0 -116 45 -187q47 -71 122 -71z" />
    <glyph glyph-name="Pi" unicode="&#x3a0;" 
d="M517 0h-80v576h-274v-576h-80v650h434v-650z" />
    <glyph glyph-name="Rho" unicode="&#x3a1;" 
d="M366 576h-166v-229h165q45 0 78 34q34 34 34 83q0 50 -31 81t-80 31zM381 273h-181v-273h-80v650h264q76 0 126 -51q50 -52 50 -130q0 -90 -53 -143t-126 -53z" />
    <glyph glyph-name="Sigma" unicode="&#x3a3;" 
d="M527 74v-74h-405v74l197 268l-197 234v74h401v-74h-301l193 -224l-205 -278h317z" />
    <glyph glyph-name="Tau" unicode="&#x3a4;" 
d="M555 650v-74h-215v-576h-80v576h-215v74h510z" />
    <glyph glyph-name="Upsilon" unicode="&#x3a5;" 
d="M570 650l-230 -365v-285h-80v285l-230 365h90l181 -292l179 292h90z" />
    <glyph glyph-name="Phi" unicode="&#x3a6;" 
d="M340 87v-87h-80v87q-101 12 -161 77q-60 66 -60 165q0 97 60 160t161 74v87h80v-87q101 -11 161 -75q60 -63 60 -159q0 -99 -60 -165q-60 -65 -161 -77zM122 329q0 -66 37.5 -110.5t100.5 -55.5v324q-64 -11 -101 -53.5t-37 -104.5zM478 329q0 62 -37 104.5t-101 53.5
v-324q63 11 100.5 55.5t37.5 110.5z" />
    <glyph glyph-name="Chi" unicode="&#x3a7;" 
d="M572 0h-92l-186 278l-175 -278h-90l219 347l-203 303h89l169 -251l157 251h87l-199 -317z" />
    <glyph glyph-name="Psi" unicode="&#x3a8;" 
d="M340 88v-88h-80v88q-86 11 -136.5 69t-50.5 146v347h80v-350q0 -51 29 -86.5t78 -46.5v483h80v-483q49 11 78 46.5t29 86.5v350h80v-347q0 -88 -50.5 -146t-136.5 -69z" />
    <glyph glyph-name="uni03A9" unicode="&#x3a9;" 
d="M247 74l-20 -74h-168v74h107q-49 48 -78 124t-29 157q0 135 66 220q67 85 175 85t174 -85q67 -85 67 -220q0 -81 -29 -157t-78 -124h107v-74h-168l-20 74q50 43 77.5 117t27.5 164q0 100 -44 165t-114 65q-71 0 -115 -65q-43 -64 -43 -165q0 -199 105 -281z" />
    <glyph glyph-name="Iotadieresis" unicode="&#x3aa;" 
d="M442 723q-27 0 -46 19.5t-19 46.5q0 28 19 47t46 19q28 0 47 -19t19 -47q0 -27 -19 -46.5t-47 -19.5zM157 723q-27 0 -46 19.5t-19 46.5q0 28 19 47t46 19q28 0 47 -19t19 -47q0 -27 -19 -46.5t-47 -19.5zM510 74v-74h-420v74h170v502h-170v74h420v-74h-170v-502h170z
" />
    <glyph glyph-name="Upsilondieresis" unicode="&#x3ab;" 
d="M442 723q-27 0 -46 19.5t-19 46.5q0 28 19 47t46 19q28 0 47 -19t19 -47q0 -27 -19 -46.5t-47 -19.5zM157 723q-27 0 -46 19.5t-19 46.5q0 28 19 47t46 19q28 0 47 -19t19 -47q0 -27 -19 -46.5t-47 -19.5zM570 650l-230 -365v-285h-80v285l-230 365h90l181 -292l179 292
h90z" />
    <glyph glyph-name="alphatonos" unicode="&#x3ac;" 
d="M216 540l64 186h83l-69 -186h-78zM485 -10q-38 0 -66 20t-37 51q-56 -71 -142 -71q-84 0 -139 67t-55 183q0 115 55 182q56 68 139 68q86 0 142 -71q-2 40 -2 61h80q-1 -52 -1 -240v-145q0 -15 9.5 -25t24.5 -10q19 0 32 22t14 60l68 -16q0 -58 -35 -98q-35 -38 -87 -38z
M352 368q-38 50 -93 50t-93 -50t-38 -128q0 -79 38 -129q37 -49 93 -49t93 49q38 50 38 129q0 78 -38 128z" />
    <glyph glyph-name="epsilontonos" unicode="&#x3ad;" 
d="M290 540l64 186h83l-69 -186h-78zM464 132l59 -56q-30 -36 -94 -62q-63 -24 -130 -24q-90 0 -150 39q-60 41 -60 97q0 41 27 72.5t79 42.5q-43 14 -64.5 43t-21.5 64q0 60 54 101q55 41 139 41q139 0 209 -73l-53 -60q-49 55 -169 55q-48 0 -75 -18t-27 -48q0 -33 43 -52
t108 -19v-73q-76 0 -123.5 -17.5t-47.5 -50.5q0 -28 36.5 -46.5t96.5 -18.5q49 0 96 18t68 45z" />
    <glyph glyph-name="etatonos" unicode="&#x3ae;" 
d="M280 540l64 186h83l-69 -186h-78zM505 302v-492h-80v480q0 61 -32 94.5t-85 33.5q-54 0 -95 -36q-40 -34 -40 -92v-290h-80q1 48 1 240t-1 240h80q0 -35 -2 -63q54 73 152 73q77 0 129 -52q53 -53 53 -136z" />
    <glyph glyph-name="iotatonos" unicode="&#x3af;" 
d="M280 540l64 186h83l-69 -186h-78zM530 97l58 -57q-48 -50 -133 -50q-86 0 -133.5 48t-47.5 132v236h-204v74h284v-292q0 -56 27 -87.5t73 -31.5q51 0 76 28z" />
    <glyph glyph-name="upsilondieresistonos" unicode="&#x3b0;" 
d="M232 540l64 186h83l-69 -186h-78zM462 553q-27 0 -46 19.5t-19 46.5q0 28 19 47t46 19q28 0 47 -19t19 -47q0 -27 -19 -46.5t-47 -19.5zM137 553q-27 0 -46 19.5t-19 46.5q0 28 19 47t46 19q28 0 47 -19t19 -47q0 -27 -19 -46.5t-47 -19.5zM98 173v307h82v-295
q0 -60 32 -91.5t90 -31.5q53 0 87 28t34 83v307h79v-295q0 -91 -58 -143t-147 -52q-90 0 -144.5 49.5t-54.5 133.5z" />
    <glyph glyph-name="alpha" unicode="&#x3b1;" 
d="M485 -10q-38 0 -66 20t-37 51q-56 -71 -142 -71q-84 0 -139 67t-55 183q0 115 55 182q56 68 139 68q86 0 142 -71q-2 40 -2 61h80q-1 -52 -1 -240v-145q0 -15 9.5 -25t24.5 -10q19 0 32 22t14 60l68 -16q0 -58 -35 -98q-35 -38 -87 -38zM352 368q-38 50 -93 50t-93 -50
t-38 -128q0 -79 38 -129q37 -49 93 -49t93 49q38 50 38 129q0 78 -38 128z" />
    <glyph glyph-name="beta" unicode="&#x3b2;" 
d="M123 -190v668q0 88 59 145t148 57t148 -53t59 -132q0 -44 -21 -84t-61 -60q48 -21 75 -65.5t27 -97.5q0 -91 -59 -145q-59 -53 -145 -53q-99 0 -153 65q3 -45 3 -64v-181h-80zM203 478v-292q0 -56 36.5 -90t94.5 -34q60 0 100 36q41 36 41 93q0 52 -40 84.5t-101 32.5
h-32v74h22q56 0 93.5 31.5t37.5 81.5q0 49 -35 81t-89 32q-55 0 -92 -37q-36 -37 -36 -93z" />
    <glyph glyph-name="gamma" unicode="&#x3b3;" 
d="M341 36v-226h-80v224l-211 446h91l163 -351l165 351h82z" />
    <glyph glyph-name="delta" unicode="&#x3b4;" 
d="M301 -10q-104 0 -166 64.5t-62 175.5t58 175q59 65 148 65q37 0 64 -10q-59 55 -200 134v76h353v-76h-229q107 -63 180 -161q73 -97 73 -198q0 -113 -63 -179t-156 -66zM300 62q60 0 98.5 47t38.5 131q0 79 -44 118q-43 40 -97 40q-59 0 -100 -47t-41 -121q0 -75 41 -122
q42 -46 104 -46z" />
    <glyph glyph-name="epsilon" unicode="&#x3b5;" 
d="M464 132l59 -56q-30 -36 -94 -62q-63 -24 -130 -24q-90 0 -150 39q-60 41 -60 97q0 41 27 72.5t79 42.5q-43 14 -64.5 43t-21.5 64q0 60 54 101q55 41 139 41q139 0 209 -73l-53 -60q-49 55 -169 55q-48 0 -75 -18t-27 -48q0 -33 43 -52t108 -19v-73q-76 0 -123.5 -17.5
t-47.5 -50.5q0 -28 36.5 -46.5t96.5 -18.5q49 0 96 18t68 45z" />
    <glyph glyph-name="zeta" unicode="&#x3b6;" 
d="M535 -120h-84q0 42 -40 69t-133 49q-85 22 -135 57q-63 45 -63 144q0 94 75 190q32 41 76 82q73 67 161 123h-287v76h409v-76q-351 -220 -351 -388q0 -65 46 -95q45 -29 141 -52q185 -41 185 -179z" />
    <glyph glyph-name="eta" unicode="&#x3b7;" 
d="M505 302v-492h-80v480q0 61 -32 94.5t-85 33.5q-54 0 -95 -36q-40 -34 -40 -92v-290h-80q1 48 1 240t-1 240h80q0 -35 -2 -63q54 73 152 73q77 0 129 -52q53 -53 53 -136z" />
    <glyph glyph-name="theta" unicode="&#x3b8;" 
d="M60 325q0 167 66 256t173 89t173 -89q67 -88 67 -256q0 -159 -67 -247t-173 -88t-173 88q-66 88 -66 247zM300 591q-66 0 -107.5 -56.5t-49.5 -164.5h313q-8 108 -49.5 164.5t-106.5 56.5zM300 69q67 0 109.5 61t46.5 170h-313q4 -109 46.5 -170t110.5 -61z" />
    <glyph glyph-name="iota" unicode="&#x3b9;" 
d="M530 97l58 -57q-48 -50 -133 -50q-86 0 -133.5 48t-47.5 132v236h-204v74h284v-292q0 -56 27 -87.5t73 -31.5q51 0 76 28z" />
    <glyph glyph-name="kappa" unicode="&#x3ba;" 
d="M574 0h-113q-102 98 -205 223l-80 -69q0 -137 1 -154h-80q1 48 1 240t-1 240h80q-1 -45 -1 -225l261 225h113l-234 -204q104 -122 258 -276z" />
    <glyph glyph-name="lambda" unicode="&#x3bb;" 
d="M591 65l13 -75q-78 0 -122 45q-43 46 -91 154l-85 189l-165 -378h-80l207 465l-7 15q-30 67 -56.5 96.5t-60.5 29.5q-33 0 -48 -18l-53 50q31 42 96 42q81 0 128 -62q25 -32 42 -63q17 -30 42 -84l128 -281q31 -68 55 -96.5t57 -28.5z" />
    <glyph glyph-name="uni03BC" unicode="&#x3bc;" 
d="M280 -10q-66 0 -100 51v-231h-80q1 67 1 335t-1 335h80v-295q0 -59 30.5 -91t81.5 -32q53 0 91 34q39 34 39 89v295h80q-1 -48 -1 -240t1 -240h-80q0 34 2 60q-52 -70 -144 -70z" />
    <glyph glyph-name="nu" unicode="&#x3bd;" 
d="M342 0h-75l-213 480h91l168 -388q147 228 147 388h85q0 -105 -68 -250q-68 -144 -135 -230z" />
    <glyph glyph-name="xi" unicode="&#x3be;" 
d="M380 61q185 -41 185 -181h-84q0 46 -38.5 70.5t-134.5 47.5q-89 23 -136 60q-62 48 -62 145q0 57 27.5 101.5t81.5 60.5q-54 14 -81.5 50.5t-27.5 85.5q0 77 63 128t167 51q90 0 155 -48.5t85 -130.5l-74 -24q-13 58 -60 91.5t-119 33.5q-67 0 -103 -28t-36 -75
q0 -50 49.5 -74.5t131.5 -24.5v-73q-78 0 -127.5 -30t-49.5 -86q0 -61 44 -95t144 -55z" />
    <glyph glyph-name="omicron" unicode="&#x3bf;" 
d="M539 231q0 -105 -69 -173q-68 -68 -171 -68t-171 68q-68 70 -68 177q0 106 68 176q68 69 171 69h260v-74h-119q46 -27 72.5 -73t26.5 -102zM300 69q67 0 112 46q45 47 45 118q0 73 -45 120q-44 48 -112 48t-113 -47q-45 -46 -45 -119t45 -119q45 -47 113 -47z" />
    <glyph glyph-name="pi" unicode="&#x3c0;" 
d="M505 0h-80v406h-251v-406h-80v480h411v-480z" />
    <glyph glyph-name="rho" unicode="&#x3c1;" 
d="M334 62q60 0 100 49q41 50 41 129q0 78 -42 124q-41 48 -102 48q-53 0 -94 -48q-39 -48 -39 -124q0 -80 40 -129t96 -49zM203 0v-190h-80q1 67 1 430q0 120 59 185q60 65 155 65q100 0 159.5 -67t59.5 -183t-58 -183t-146 -67q-93 0 -152 75q2 -42 2 -65z" />
    <glyph glyph-name="sigma1" unicode="&#x3c2;" 
d="M80 255q0 103 68 169t171 66q86 0 148 -49q64 -50 83 -130l-74 -24q-13 56 -55.5 90.5t-100.5 34.5q-68 0 -113 -45q-44 -44 -44 -112q0 -101 58 -143q52 -36 129 -54q80 -20 127 -55q58 -42 58 -123h-84q0 43 -39.5 68.5t-133.5 49.5q-198 51 -198 257z" />
    <glyph glyph-name="sigma" unicode="&#x3c3;" 
d="M299 -10q-104 0 -171 70q-68 71 -68 180q0 108 68 179t171 71t171 -71q69 -71 69 -179q0 -109 -68 -180q-67 -70 -172 -70zM187 117q45 -48 113 -48t112 48q45 49 45 123t-45 122q-43 49 -112 49q-68 0 -113 -49q-45 -48 -45 -122t45 -123z" />
    <glyph glyph-name="tau" unicode="&#x3c4;" 
d="M521 162q0 -77 -49.5 -124.5t-130.5 -47.5q-86 0 -133.5 48t-47.5 132v236h-113v74h468v-74h-275v-218q0 -56 27 -87.5t73 -31.5t73.5 25t27.5 70q0 49 -18 91l74 20q24 -53 24 -113z" />
    <glyph glyph-name="upsilon" unicode="&#x3c5;" 
d="M98 173v307h82v-295q0 -60 32 -91.5t90 -31.5q53 0 87 28t34 83v307h79v-295q0 -91 -58 -143t-147 -52q-90 0 -144.5 49.5t-54.5 133.5z" />
    <glyph glyph-name="phi" unicode="&#x3c6;" 
d="M338 -7v-183h-77v182q-95 14 -154 80q-60 68 -60 168t60 167q61 68 154 80v151h77v-151q93 -12 154 -80q60 -67 60 -167t-60 -167q-61 -68 -154 -80zM338 417v-354q59 13 95.5 61.5t36.5 115.5t-36.5 115.5t-95.5 61.5zM261 63v354q-60 -14 -96 -62.5t-36 -114.5
t36 -114.5t96 -62.5z" />
    <glyph glyph-name="chi" unicode="&#x3c7;" 
d="M556 -190h-97l-168 283l-158 -283h-92l207 356l-187 314h92l154 -255l139 255h93l-190 -326z" />
    <glyph glyph-name="psi" unicode="&#x3c8;" 
d="M338 -7v-183h-77v182q-90 9 -143 63t-53 138v287h74v-275q0 -122 122 -140v573h77v-573q56 9 89 41t33 87v287h77v-275q0 -89 -56 -145q-57 -57 -143 -67z" />
    <glyph glyph-name="omega" unicode="&#x3c9;" 
d="M400 -10q-72 0 -101 90q-29 -90 -100 -90q-143 0 -143 244q0 110 39 246h77q-37 -121 -37 -246q0 -88 13.5 -130t47.5 -42q31 0 48 34t17 94v150h77v-150q0 -60 17 -94t48 -34q34 0 47.5 42t13.5 130q0 120 -37 246h77q39 -142 39 -246q0 -244 -143 -244z" />
    <glyph glyph-name="iotadieresis" unicode="&#x3ca;" 
d="M442 553q-27 0 -46 19.5t-19 46.5q0 28 19 47t46 19q28 0 47 -19t19 -47q0 -27 -19 -46.5t-47 -19.5zM157 553q-27 0 -46 19.5t-19 46.5q0 28 19 47t46 19q28 0 47 -19t19 -47q0 -27 -19 -46.5t-47 -19.5zM530 97l58 -57q-48 -50 -133 -50q-86 0 -133.5 48t-47.5 132v236
h-204v74h284v-292q0 -56 27 -87.5t73 -31.5q51 0 76 28z" />
    <glyph glyph-name="upsilondieresis" unicode="&#x3cb;" 
d="M442 553q-27 0 -46 19.5t-19 46.5q0 28 19 47t46 19q28 0 47 -19t19 -47q0 -27 -19 -46.5t-47 -19.5zM157 553q-27 0 -46 19.5t-19 46.5q0 28 19 47t46 19q28 0 47 -19t19 -47q0 -27 -19 -46.5t-47 -19.5zM98 173v307h82v-295q0 -60 32 -91.5t90 -31.5q53 0 87 28t34 83
v307h79v-295q0 -91 -58 -143t-147 -52q-90 0 -144.5 49.5t-54.5 133.5z" />
    <glyph glyph-name="omicrontonos" unicode="&#x3cc;" 
d="M270 540l64 186h83l-69 -186h-78zM539 231q0 -105 -69 -173q-68 -68 -171 -68t-171 68q-68 70 -68 177q0 106 68 176q68 69 171 69h260v-74h-119q46 -27 72.5 -73t26.5 -102zM300 69q67 0 112 46q45 47 45 118q0 73 -45 120q-44 48 -112 48t-113 -47q-45 -46 -45 -119
t45 -119q45 -47 113 -47z" />
    <glyph glyph-name="upsilontonos" unicode="&#x3cd;" 
d="M261 540l64 186h83l-69 -186h-78zM98 173v307h82v-295q0 -60 32 -91.5t90 -31.5q53 0 87 28t34 83v307h79v-295q0 -91 -58 -143t-147 -52q-90 0 -144.5 49.5t-54.5 133.5z" />
    <glyph glyph-name="omegatonos" unicode="&#x3ce;" 
d="M260 540l64 186h83l-69 -186h-78zM400 -10q-72 0 -101 90q-29 -90 -100 -90q-143 0 -143 244q0 110 39 246h77q-37 -121 -37 -246q0 -88 13.5 -130t47.5 -42q31 0 48 34t17 94v150h77v-150q0 -60 17 -94t48 -34q34 0 47.5 42t13.5 130q0 120 -37 246h77q39 -142 39 -246
q0 -244 -143 -244z" />
    <glyph glyph-name="theta1" unicode="&#x3d1;" 
d="M275 359h119q-9 232 -152 232q-54 0 -88 -30.5t-34 -88.5q0 -113 155 -113zM257 -10q-73 0 -127.5 52.5t-77.5 148.5l75 41q13 -78 47.5 -120.5t83.5 -42.5q57 0 93 56.5t43 159.5h-125q-116 0 -173.5 48.5t-57.5 133.5q0 90 55 146q56 57 151 57q105 0 165.5 -79.5
t66.5 -231.5h94l-1 -74h-93q-8 -140 -69 -218q-60 -77 -150 -77z" />
    <glyph glyph-name="uni0401" unicode="&#x401;" 
d="M462 723q-27 0 -46 19.5t-19 46.5q0 28 19 47t46 19q28 0 47 -19t19 -47q0 -27 -19 -46.5t-47 -19.5zM177 723q-27 0 -46 19.5t-19 46.5q0 28 19 47t46 19q28 0 47 -19t19 -47q0 -27 -19 -46.5t-47 -19.5zM527 0h-405v650h401v-74h-321v-197h249v-74h-249v-231h325v-74z
" />
    <glyph glyph-name="uni0402" unicode="&#x402;" 
d="M555 225q0 -53 -18 -101q-19 -51 -67 -88.5t-114 -45.5v80q60 14 89.5 54.5t29.5 93.5q0 65 -34.5 102.5t-92.5 37.5t-102 -36q-43 -34 -43 -92v-230h-80q1 48 1 576h-125v74h330v-74h-126v-159q0 -33 -2 -63q57 76 157 76q86 0 141 -58q56 -58 56 -147z" />
    <glyph glyph-name="uni0403" unicode="&#x403;" 
d="M297 723l143 143h103l-146 -143h-100zM555 650v-74h-301v-576h-80v650h381z" />
    <glyph glyph-name="uni0404" unicode="&#x404;" 
d="M493 238l70 -47q-26 -92 -91 -145.5t-153 -53.5q-118 0 -190 93q-71 95 -71 246q0 148 71 240q72 91 190 91q95 0 162.5 -62t89.5 -169l-74 -34q-13 87 -61.5 138t-116.5 51q-75 0 -124 -61t-56 -161h291v-74h-290q8 -100 57 -162q49 -60 122 -60q65 0 112.5 46t61.5 124
z" />
    <glyph glyph-name="uni0405" unicode="&#x405;" 
d="M52 61l56 68q71 -62 204 -62q70 0 111.5 29t41.5 79q0 47 -39 70q-38 23 -147 54q-105 30 -151 69t-46 113q0 87 66 133q68 47 168 47q123 0 212 -68l-49 -61q-73 58 -173 58q-68 0 -106.5 -26.5t-38.5 -76.5q0 -49 34 -71q33 -21 119 -46l67 -20q21 -6 62 -25
q38 -17 56 -34q50 -43 50 -106q0 -100 -71 -148q-71 -47 -179 -47q-161 0 -247 71z" />
    <glyph glyph-name="uni0406" unicode="&#x406;" 
d="M510 74v-74h-420v74h170v502h-170v74h420v-74h-170v-502h170z" />
    <glyph glyph-name="uni0407" unicode="&#x407;" 
d="M442 723q-27 0 -46 19.5t-19 46.5q0 28 19 47t46 19q28 0 47 -19t19 -47q0 -27 -19 -46.5t-47 -19.5zM157 723q-27 0 -46 19.5t-19 46.5q0 28 19 47t46 19q28 0 47 -19t19 -47q0 -27 -19 -46.5t-47 -19.5zM510 74v-74h-420v74h170v502h-170v74h420v-74h-170v-502h170z
" />
    <glyph glyph-name="uni0408" unicode="&#x408;" 
d="M287 -10q-90 0 -146 50q-55 51 -55 126q0 74 56 125l54 -50q-33 -36 -33 -75q0 -43 37 -71t95 -28q63 0 96.5 35.5t33.5 103.5v370h-309v74h389v-424q0 -116 -57 -176t-161 -60z" />
    <glyph glyph-name="uni0409" unicode="&#x409;" 
d="M401 0h-86v576h-101q-2 -108 -5 -155q-3 -71 -13 -143q-11 -82 -26 -130q-34 -120 -108 -155l-32 77q73 38 91 224q10 93 12 167q3 73 3 189h259v-276h25q72 0 125 -48t53 -132q0 -89 -53.5 -141.5t-143.5 -52.5zM410 305h-15v-236h5q50 0 82.5 32t32.5 88q0 50 -30 83
t-75 33z" />
    <glyph glyph-name="uni040A" unicode="&#x40a;" 
d="M390 305h-15v-236h5q50 0 82.5 32t32.5 88q0 50 -30 83t-75 33zM381 0h-86v300h-133v-300h-80v650h80v-276h133v276h80v-276h25q72 0 125 -48t53 -132q0 -89 -53.5 -141.5t-143.5 -52.5z" />
    <glyph glyph-name="uni040B" unicode="&#x40b;" 
d="M193 230v-230h-80q1 48 1 596h-125v74h330v-74h-126v-177q0 -33 -2 -63q56 74 152 74q79 0 131 -52q53 -53 53 -136v-242h-82v230q0 61 -32 94.5t-85 33.5q-54 0 -95 -36q-40 -34 -40 -92z" />
    <glyph glyph-name="uni040C" unicode="&#x40c;" 
d="M247 723l143 143h103l-146 -143h-100zM586 0h-104l-218 305h-91v-305h-80v650h80v-271h93l206 271h98l-232 -303z" />
    <glyph glyph-name="uni040E" unicode="&#x40e;" 
d="M368 850h67q0 -54 -38 -92q-37 -37 -92 -37q-54 0 -92 37q-38 38 -38 92h67q0 -27 18.5 -45t44.5 -18t44.5 18t18.5 45zM192 -10q-66 0 -100 36l37 60q24 -26 65 -26q30 0 48.5 19t39.5 68l-216 503h87l170 -404l166 404h84l-214 -512q-33 -80 -69 -114q-34 -32 -98 -34z
" />
    <glyph glyph-name="uni040F" unicode="&#x40f;" 
d="M508 650v-650h-178v-120h-77v120h-179v650h80v-576h274v576h80z" />
    <glyph glyph-name="uni0410" unicode="&#x410;" 
d="M207 256h184l-92 305zM550 0h-81l-55 182h-230l-55 -182h-79l203 650h94z" />
    <glyph glyph-name="uni0411" unicode="&#x411;" 
d="M324 305h-128v-236h142q58 0 94.5 30t36.5 90q0 58 -39 87t-106 29zM356 0h-240v650h391v-74h-311v-202h141q90 0 152 -44q63 -44 63 -136t-53.5 -143t-142.5 -51z" />
    <glyph glyph-name="uni0412" unicode="&#x412;" 
d="M351 581h-151v-215h143q41 0 71 34q31 34 31 84q0 43 -26.5 70t-67.5 27zM343 298h-143v-229h152q55 0 88 27.5t33 83.5t-36 87t-94 31zM370 0h-250v650h247q67 0 114 -45t47 -116q0 -104 -89 -154q54 -21 85.5 -61t31.5 -95q0 -83 -51 -131t-135 -48z" />
    <glyph glyph-name="uni0413" unicode="&#x413;" 
d="M555 650v-74h-301v-576h-80v650h381z" />
    <glyph glyph-name="uni0414" unicode="&#x414;" 
d="M159 74h252v502h-184q-1 -238 -15 -346q-14 -109 -53 -156zM491 650v-576h77v-194h-77v120h-373v-120h-77v194q26 11 43 24q34 25 48 105q5 27 10 103q4 65 4 141q1 46 1 203h344z" />
    <glyph glyph-name="uni0415" unicode="&#x415;" 
d="M527 0h-405v650h401v-74h-321v-197h249v-74h-249v-231h325v-74z" />
    <glyph glyph-name="uni0416" unicode="&#x416;" 
d="M336 0h-72v305h-29l-134 -305h-80l158 348l-140 302h78l118 -271h29v271h72v-271h29l118 271h78l-140 -302l158 -348h-80l-134 305h-29v-305z" />
    <glyph glyph-name="uni0417" unicode="&#x417;" 
d="M275 -10q-73 0 -139 32q-65 32 -98 84l69 50q24 -40 73 -64.5t105 -24.5q65 0 105 32.5t40 85.5q0 51 -42 82t-111 31h-88v68h85q58 0 93 30t35 79t-35 79t-93 30q-43 0 -82.5 -20t-60.5 -52l-52 54q28 43 83 68.5t117 25.5q93 0 149.5 -47.5t56.5 -125.5
q0 -107 -89 -152q55 -19 86 -59.5t31 -94.5q0 -87 -66 -139q-64 -52 -172 -52z" />
    <glyph glyph-name="uni0418" unicode="&#x418;" 
d="M517 0h-77v595l-234 -595h-123v650h77v-562l221 562h136v-650z" />
    <glyph glyph-name="uni0419" unicode="&#x419;" 
d="M368 850h67q0 -54 -38 -92q-37 -37 -92 -37q-54 0 -92 37q-38 38 -38 92h67q0 -27 18.5 -45t44.5 -18t44.5 18t18.5 45zM517 0h-77v595l-234 -595h-123v650h77v-562l221 562h136v-650z" />
    <glyph glyph-name="uni041A" unicode="&#x41a;" 
d="M586 0h-104l-218 305h-91v-305h-80v650h80v-271h93l206 271h98l-232 -303z" />
    <glyph glyph-name="uni041B" unicode="&#x41b;" 
d="M528 0h-80v576h-204q0 -153 -4 -229q-3 -77 -11 -155q-7 -67 -26 -106q-35 -70 -111 -101l-34 77q74 33 90 127q16 92 16 461h364v-650z" />
    <glyph glyph-name="uni041C" unicode="&#x41c;" 
d="M361 245h-125l-99 353v-598h-77v650h141l100 -350l99 350h140v-650h-77v594z" />
    <glyph glyph-name="uni041D" unicode="&#x41d;" 
d="M517 0h-80v300h-274v-300h-80v650h80v-276h274v276h80v-650z" />
    <glyph glyph-name="uni041E" unicode="&#x41e;" 
d="M49 324q0 152 69 244t182 92t182 -93q69 -91 69 -243q0 -150 -69 -242t-182 -92t-182 92t-69 242zM300 66q74 0 121 71q46 70 46 187q0 118 -46 188q-46 72 -121 72q-76 0 -122 -72q-45 -70 -45 -188q0 -116 45 -187q47 -71 122 -71z" />
    <glyph glyph-name="uni041F" unicode="&#x41f;" 
d="M517 0h-80v576h-274v-576h-80v650h434v-650z" />
    <glyph glyph-name="uni0420" unicode="&#x420;" 
d="M366 576h-166v-229h165q45 0 78 34q34 34 34 83q0 50 -31 81t-80 31zM381 273h-181v-273h-80v650h264q76 0 126 -51q50 -52 50 -130q0 -90 -53 -143t-126 -53z" />
    <glyph glyph-name="uni0421" unicode="&#x421;" 
d="M581 429l-74 -34q-13 87 -61.5 138t-116.5 51q-82 0 -131 -70q-50 -71 -50 -185q0 -117 50 -191q50 -72 131 -72q65 0 112.5 46t61.5 124l70 -47q-26 -92 -91 -145.5t-153 -53.5q-118 0 -190 93q-71 95 -71 246q0 148 71 240q72 91 190 91q95 0 162.5 -62t89.5 -169z" />
    <glyph glyph-name="uni0422" unicode="&#x422;" 
d="M555 650v-74h-215v-576h-80v576h-215v74h510z" />
    <glyph glyph-name="uni0423" unicode="&#x423;" 
d="M192 -10q-66 0 -100 36l37 60q24 -26 65 -26q30 0 48.5 19t39.5 68l-216 503h87l170 -404l166 404h84l-214 -512q-33 -80 -69 -114q-34 -32 -98 -34z" />
    <glyph glyph-name="uni0424" unicode="&#x424;" 
d="M340 87v-87h-80v87q-101 12 -161 77q-60 66 -60 165q0 97 60 160t161 74v87h80v-87q101 -11 161 -75q60 -63 60 -159q0 -99 -60 -165q-60 -65 -161 -77zM115 329q0 -69 39.5 -115.5t105.5 -57.5v338q-67 -11 -106 -55.5t-39 -109.5zM485 329q0 65 -39 109.5t-106 55.5
v-338q67 12 106 58.5t39 114.5z" />
    <glyph glyph-name="uni0425" unicode="&#x425;" 
d="M572 0h-92l-186 278l-175 -278h-90l219 347l-203 303h89l169 -251l157 251h87l-199 -317z" />
    <glyph glyph-name="uni0426" unicode="&#x426;" 
d="M508 650v-576h77v-194h-77v120h-434v650h80v-576h274v576h80z" />
    <glyph glyph-name="uni0427" unicode="&#x427;" 
d="M506 650v-650h-80v300q-66 -26 -142 -26q-94 0 -156 44t-62 138v194h83v-189q0 -112 147 -112q81 0 130 25v276h80z" />
    <glyph glyph-name="uni0428" unicode="&#x428;" 
d="M540 0h-480v650h77v-576h124v576h77v-576h125v576h77v-650z" />
    <glyph glyph-name="uni0429" unicode="&#x429;" 
d="M530 650v-576h77v-194h-77v120h-480v650h77v-576h124v576h77v-576h125v576h77z" />
    <glyph glyph-name="uni042A" unicode="&#x42a;" 
d="M352 305h-128v-236h142q58 0 94.5 30t36.5 90q0 58 -39 87t-106 29zM384 0h-240v576h-175v74h255v-276h141q90 0 152 -44q63 -44 63 -136t-53.5 -143t-142.5 -51z" />
    <glyph glyph-name="uni042B" unicode="&#x42b;" 
d="M540 0h-80v650h80v-650zM158 305h-18v-236h32q58 0 94.5 30t36.5 90q0 58 -39 87t-106 29zM190 0h-130v650h80v-276h31q90 0 152 -44q63 -44 63 -136t-53.5 -143t-142.5 -51z" />
    <glyph glyph-name="uni042C" unicode="&#x42c;" 
d="M324 305h-128v-236h142q58 0 94.5 30t36.5 90q0 58 -39 87t-106 29zM356 0h-240v650h80v-276h141q90 0 152 -44q63 -44 63 -136t-53.5 -143t-142.5 -51z" />
    <glyph glyph-name="uni042D" unicode="&#x42d;" 
d="M361 -9q-95 0 -162.5 62t-89.5 169l74 34q13 -87 61.5 -138t116.5 -51q75 0 123 60q50 61 57 162h-291v74h290q-8 101 -57 161q-49 61 -122 61q-65 0 -112.5 -46t-61.5 -124l-70 47q26 92 91 145.5t153 53.5q119 0 189 -94q72 -93 72 -245q0 -148 -72 -240
q-70 -91 -189 -91z" />
    <glyph glyph-name="uni042E" unicode="&#x42e;" 
d="M385 -10q-80 0 -123.5 79t-47.5 231h-74v-300h-80v650h80v-276h75q14 286 170 286q83 0 127 -86t44 -250q0 -163 -44 -248.5t-127 -85.5zM473 324q0 259 -88 259t-88 -259q0 -257 88 -257t88 257z" />
    <glyph glyph-name="uni042F" unicode="&#x42f;" 
d="M356 347h128v236h-142q-58 0 -94.5 -30t-36.5 -90q0 -58 39 -87t106 -29zM484 278h-141q-21 0 -26 1l-146 -277h-85l159 291q-117 41 -117 165q0 92 53.5 143t142.5 51h240v-650h-80v276z" />
    <glyph glyph-name="uni0430" unicode="&#x430;" 
d="M480 -10q-40 0 -68.5 20.5t-35.5 52.5q-63 -73 -160 -73q-69 0 -110.5 34.5t-41.5 90.5q0 57 40 95t113 53q43 10 157 22v36q0 41 -31.5 68.5t-80.5 27.5q-47 0 -77.5 -20.5t-30.5 -51.5q0 -5 2 -13l-75 -15q-4 11 -4 30q0 61 54 102q55 41 137 41q81 0 133 -45
q53 -45 53 -114v-236q0 -15 9.5 -25t24.5 -10q20 0 33 23.5t13 58.5l68 -16q0 -58 -35 -98q-35 -38 -87 -38zM225 59q93 0 149 77v88q-110 -14 -159 -27q-32 -9 -50 -29t-18 -44q0 -29 21.5 -47t56.5 -18z" />
    <glyph glyph-name="uni0431" unicode="&#x431;" 
d="M306 -10q-102 0 -157.5 68.5t-55.5 206.5q0 158 33 239q33 82 93 117q50 29 132 29q77 0 130 30v-78q-55 -28 -130 -28q-70 0 -99 -20q-62 -40 -75 -150q58 76 149 76q86 0 145 -66q59 -67 59 -179q0 -113 -62 -180q-62 -65 -162 -65zM167 239q0 -79 39 -128t103 -49
q59 0 99 48q40 47 40 125q0 76 -41 125q-41 48 -100 48t-100 -47q-40 -46 -40 -122z" />
    <glyph glyph-name="uni0432" unicode="&#x432;" 
d="M370 411h-187v-131h186q30 0 48 18.5t18 48.5t-17.5 47t-47.5 17zM382 212h-199v-143h188q41 0 66.5 18.5t25.5 53.5q0 33 -21 52t-60 19zM389 0h-286v480h283q57 0 94.5 -33.5t37.5 -87.5q0 -77 -69 -110q97 -19 97 -109q0 -66 -43 -103t-114 -37z" />
    <glyph glyph-name="uni0433" unicode="&#x433;" 
d="M545 480v-74h-281v-406h-80v480h361z" />
    <glyph glyph-name="uni0434" unicode="&#x434;" 
d="M162 69h242v342h-165q-2 -154 -18 -227q-17 -76 -59 -115zM480 480v-411h77v-169h-77v100h-341v-100h-77v169q48 26 72 78q13 27 17 74q5 50 6 104q2 74 2 155h321z" />
    <glyph glyph-name="uni0435" unicode="&#x435;" 
d="M142 275h316q-8 66 -49.5 104.5t-106.5 38.5t-107.5 -38.5t-52.5 -104.5zM466 140l63 -39q-31 -53 -87.5 -82t-126.5 -29q-108 0 -178 70q-71 71 -71 180t68 180q69 70 175 70q98 0 163 -65t65 -171q0 -31 -4 -52h-390q11 -65 57.5 -102.5t115.5 -37.5q47 0 88.5 21.5
t61.5 56.5z" />
    <glyph glyph-name="uni0436" unicode="&#x436;" 
d="M338 0h-76q1 41 1 204h-34l-120 -204h-87l146 239l-143 241h87l116 -202h35q0 161 -1 202h76q-1 -41 -1 -202h35l119 202h87l-146 -239l143 -241h-87l-117 204h-34q0 -183 1 -204z" />
    <glyph glyph-name="uni0437" unicode="&#x437;" 
d="M314 -10q-161 0 -232 116l64 48q50 -87 168 -87q61 0 96.5 19t35.5 55q0 32 -28 51.5t-73 19.5h-112v68h107q34 0 56 18t22 47q0 30 -31.5 49.5t-82.5 19.5q-84 0 -129 -72l-52 54q67 94 192 94q84 0 135 -37t51 -99q0 -28 -18.5 -57t-47.5 -44q43 -14 68.5 -44t25.5 -69
q0 -70 -59 -110t-156 -40z" />
    <glyph glyph-name="uni0438" unicode="&#x438;" 
d="M503 0h-76v440l-208 -440h-122v480h76v-407l195 407h135v-480z" />
    <glyph glyph-name="uni0439" unicode="&#x439;" 
d="M357 680h67q0 -54 -38 -92q-37 -37 -92 -37q-54 0 -92 37q-38 38 -38 92h67q0 -27 18.5 -45t44.5 -18t44.5 18t18.5 45zM503 0h-76v440l-208 -440h-122v480h76v-407l195 407h135v-480z" />
    <glyph glyph-name="uni043A" unicode="&#x43a;" 
d="M572 0h-112l-187 204h-87q0 -183 1 -204h-80q1 48 1 240t-1 240h80q-1 -41 -1 -202h89l181 202h100l-209 -233z" />
    <glyph glyph-name="uni043B" unicode="&#x43b;" 
d="M508 0h-80v406h-184q-2 -118 -6 -186q-5 -69 -19 -116q-15 -50 -39 -74q-22 -24 -66 -45l-34 77q4 3 15.5 11t14.5 10.5t11 9.5t11 12.5t7.5 15t7.5 21.5l9 48q3 17 5 72q2 66 2 93q1 29 1 125h344v-480z" />
    <glyph glyph-name="uni043C" unicode="&#x43c;" 
d="M361 145h-124l-100 296v-441h-72v480h142l96 -289l93 289h141v-480h-72v440z" />
    <glyph glyph-name="uni043D" unicode="&#x43d;" 
d="M505 0h-80v208h-252v-208h-80v480h80v-198h252v198h80v-480z" />
    <glyph glyph-name="uni043E" unicode="&#x43e;" 
d="M299 -10q-104 0 -171 70q-68 71 -68 180q0 108 68 179t171 71t171 -71q69 -71 69 -179q0 -109 -68 -180q-67 -70 -172 -70zM187 117q45 -48 113 -48t112 48q45 49 45 123t-45 122q-43 49 -112 49q-68 0 -113 -49q-45 -48 -45 -122t45 -123z" />
    <glyph glyph-name="uni043F" unicode="&#x43f;" 
d="M495 0h-80v406h-231v-406h-80v480h391v-480z" />
    <glyph glyph-name="uni0440" unicode="&#x440;" 
d="M219 111q40 -49 100 -49t100 49q41 50 41 129q0 78 -41 128t-100 50t-100 -50t-41 -128q0 -79 41 -129zM188 0v-190h-80q1 67 1 335t-1 335h80q0 -34 -2 -64q59 74 152 74q87 0 146 -68q58 -67 58 -182q0 -116 -58 -183t-146 -67q-94 0 -152 75q2 -42 2 -65z" />
    <glyph glyph-name="uni0441" unicode="&#x441;" 
d="M467 171l73 -33q-26 -68 -85.5 -108t-135.5 -40q-104 0 -171 70q-68 71 -68 180q0 108 68 179t171 71q86 0 148 -49q64 -50 83 -130l-74 -24q-13 56 -55.5 90t-100.5 34q-70 0 -116 -49q-46 -47 -46 -122q0 -74 46 -123q46 -48 116 -48q50 0 89.5 27.5t57.5 74.5z" />
    <glyph glyph-name="uni0442" unicode="&#x442;" 
d="M561 480v-74h-221v-406h-80v406h-221v74h522z" />
    <glyph glyph-name="uni0443" unicode="&#x443;" 
d="M550 480l-299 -670h-86l93 201l-209 469h93l160 -370l164 370h84z" />
    <glyph glyph-name="uni0444" unicode="&#x444;" 
d="M339 -8v-182h-80v182q-104 11 -161.5 77t-57.5 171q0 104 57.5 170.5t161.5 77.5v182h80v-182q104 -11 162 -77.5t58 -170.5q0 -105 -58 -171t-162 -77zM487 240q0 74 -38 121t-110 57v-356q71 10 109.5 57.5t38.5 120.5zM259 62v356q-72 -11 -109.5 -58t-37.5 -120
t37.5 -120t109.5 -58z" />
    <glyph glyph-name="uni0445" unicode="&#x445;" 
d="M563 0h-111l-158 195l-158 -195h-103l210 259l-179 221h107l136 -167l136 167h102l-187 -229z" />
    <glyph glyph-name="uni0446" unicode="&#x446;" 
d="M484 480v-406h77v-174h-77v100h-381v480h80v-406h221v406h80z" />
    <glyph glyph-name="uni0447" unicode="&#x447;" 
d="M477 480v-480h-80v191q-53 -17 -113 -17q-91 0 -152 44q-60 44 -60 138v124h83v-119q0 -112 141 -112q59 0 101 15v216h80z" />
    <glyph glyph-name="uni0448" unicode="&#x448;" 
d="M537 0h-472v480h74v-406h125v406h74v-406h125v406h74v-480z" />
    <glyph glyph-name="uni0449" unicode="&#x449;" 
d="M528 480v-406h77v-174h-77v100h-472v480h74v-406h125v406h74v-406h125v406h74z" />
    <glyph glyph-name="uni044A" unicode="&#x44a;" 
d="M395 222h-163v-153h152q41 0 66.5 19.5t25.5 57.5q0 37 -22 56.5t-59 19.5zM402 0h-250v406h-130v74h210v-189h174q60 0 106 -36q47 -36 47 -110q0 -68 -43 -106.5t-114 -38.5z" />
    <glyph glyph-name="uni044B" unicode="&#x44b;" 
d="M521 0h-80q1 48 1 240t-1 240h80q-1 -48 -1 -240q0 -216 1 -240zM194 252h-39v-193h18q46 0 74 24t28 73q0 47 -22 71.5t-59 24.5zM201 0h-124v480h78v-169h50q60 0 106 -39q47 -38 47 -117q0 -72 -43 -113.5t-114 -41.5z" />
    <glyph glyph-name="uni044C" unicode="&#x44c;" 
d="M367 222h-163v-153h152q41 0 66.5 19.5t25.5 57.5q0 37 -22 56.5t-59 19.5zM374 0h-250v480h80v-189h174q60 0 106 -36q47 -36 47 -110q0 -68 -43 -106.5t-114 -38.5z" />
    <glyph glyph-name="uni044D" unicode="&#x44d;" 
d="M351 -10q-86 0 -148 49q-64 50 -83 130l74 24q13 -56 55.5 -90t100.5 -34q61 0 104.5 37.5t54.5 98.5h-214v73h213q-11 60 -54.5 96.5t-103.5 36.5q-50 0 -89.5 -27.5t-57.5 -74.5l-73 33q26 68 85.5 108t135.5 40q104 0 171 -70q68 -71 68 -180t-68 -180
q-67 -70 -171 -70z" />
    <glyph glyph-name="uni044E" unicode="&#x44e;" 
d="M384 -10q-65 0 -106.5 58t-46.5 165h-92v-213h-74v480h74v-193h93q8 97 49 150t103 53q70 0 112.5 -65.5t42.5 -184.5t-42.5 -184.5t-112.5 -65.5zM385 69q33 0 52.5 44t19.5 127t-19.5 127t-52.5 44q-34 0 -53.5 -44t-19.5 -127t19.5 -127t53.5 -44z" />
    <glyph glyph-name="uni044F" unicode="&#x44f;" 
d="M303 259h163v153h-152q-41 0 -66.5 -19.5t-25.5 -57.5q0 -37 22 -56.5t59 -19.5zM546 1h-80v189h-157l-120 -190h-94l134 201q-90 36 -90 135q0 68 43 106.5t114 38.5h250v-480z" />
    <glyph glyph-name="uni0451" unicode="&#x451;" 
d="M451 553q-27 0 -46 19.5t-19 46.5q0 28 19 47t46 19q28 0 47 -19t19 -47q0 -27 -19 -46.5t-47 -19.5zM166 553q-27 0 -46 19.5t-19 46.5q0 28 19 47t46 19q28 0 47 -19t19 -47q0 -27 -19 -46.5t-47 -19.5zM142 275h316q-8 66 -49.5 104.5t-106.5 38.5t-107.5 -38.5
t-52.5 -104.5zM466 140l63 -39q-31 -53 -87.5 -82t-126.5 -29q-108 0 -178 70q-71 71 -71 180t68 180q69 70 175 70q98 0 163 -65t65 -171q0 -31 -4 -52h-390q11 -65 57.5 -102.5t115.5 -37.5q47 0 88.5 21.5t61.5 56.5z" />
    <glyph glyph-name="uni0452" unicode="&#x452;" 
d="M525 172q0 -52 -11 -101t-34.5 -95t-65.5 -76.5t-98 -37.5v80q69 17 99 81.5t30 146.5q0 86 -32.5 137t-89.5 51q-51 0 -91 -36q-39 -34 -39 -92v-230h-80q1 48 1 506h-125v74h125v90h79v-90h126v-74h-126v-87q0 -34 -2 -62q54 73 147 73q85 0 136 -72q51 -70 51 -186z
" />
    <glyph glyph-name="uni0453" unicode="&#x453;" 
d="M287 553l143 143h103l-146 -143h-100zM545 480v-74h-281v-406h-80v480h361z" />
    <glyph glyph-name="uni0454" unicode="&#x454;" 
d="M467 171l73 -33q-26 -68 -85.5 -108t-135.5 -40q-104 0 -171 70q-68 71 -68 180q0 108 68 179t171 71q86 0 148 -49q64 -50 83 -130l-74 -24q-13 56 -55.5 90t-100.5 34q-61 0 -104.5 -37.5t-54.5 -98.5h214v-73h-213q11 -60 54.5 -96.5t103.5 -36.5q50 0 89.5 27.5
t57.5 74.5z" />
    <glyph glyph-name="uni0455" unicode="&#x455;" 
d="M506 426l-48 -62q-70 54 -171 54q-45 0 -68.5 -17t-23.5 -48t27 -45q25 -12 106 -29q3 -1 8 -1.5t7 -1.5q87 -19 129.5 -50.5t42.5 -90.5q0 -68 -53.5 -106.5t-148.5 -38.5q-148 0 -227 75l60 59q74 -62 177 -62q49 0 77.5 17t28.5 46q0 31 -24 43q-26 13 -106 32l-36 9
q-77 19 -112 51t-35 92q0 66 52 102t129 36q115 0 209 -64z" />
    <glyph glyph-name="uni0456" unicode="&#x456;" 
d="M355 577q-25 -25 -61 -25t-62 25q-25 26 -25 62t25 61q26 26 62 26t61 -26q26 -25 26 -61t-26 -62zM561 74v-74h-507v74h240v332h-204v74h284q-1 -48 -1 -240v-166h188z" />
    <glyph glyph-name="uni0457" unicode="&#x457;" 
d="M442 553q-27 0 -46 19.5t-19 46.5q0 28 19 47t46 19q28 0 47 -19t19 -47q0 -27 -19 -46.5t-47 -19.5zM157 553q-27 0 -46 19.5t-19 46.5q0 28 19 47t46 19q28 0 47 -19t19 -47q0 -27 -19 -46.5t-47 -19.5zM581 74v-74h-547v74h260v332h-224v74h304q-1 -48 -1 -240v-166
h208z" />
    <glyph glyph-name="uni0458" unicode="&#x458;" 
d="M447 577q-25 -25 -61 -25t-62 25q-25 26 -25 62t25 61q26 26 62 26t61 -26q26 -25 26 -61t-26 -62zM260 -200q-79 0 -134 43q-55 42 -55 120q0 62 34 102l58 -34q-20 -28 -20 -60q0 -44 34 -69.5t89 -25.5q57 0 88.5 31.5t31.5 85.5v413h-264v74h344v-477
q0 -93 -55.5 -148t-150.5 -55z" />
    <glyph glyph-name="uni0459" unicode="&#x459;" 
d="M444 0h-136v406h-124q-2 -118 -6 -186q-5 -69 -19 -116q-15 -50 -39 -74q-22 -24 -66 -45l-34 77q4 3 15.5 11t14.5 10.5t11 9.5t11 12.5t7.5 15t7.5 21.5l9 48q3 17 5 72q2 66 2 93q1 29 1 125h284v-189h60q60 0 106 -36q47 -36 47 -110q0 -68 -43 -106.5t-114 -38.5z
M437 222h-49v-153h38q41 0 66.5 19.5t25.5 57.5q0 37 -22 56.5t-59 19.5z" />
    <glyph glyph-name="uni045A" unicode="&#x45a;" 
d="M429 222h-49v-153h38q41 0 66.5 19.5t25.5 57.5q0 37 -22 56.5t-59 19.5zM436 0h-136v217h-147v-217h-78v480h78v-189h147v189h80v-189h60q60 0 106 -36q47 -36 47 -110q0 -68 -43 -106.5t-114 -38.5z" />
    <glyph glyph-name="uni045B" unicode="&#x45b;" 
d="M199 230v-230h-80q1 48 1 506h-125v74h125v90h79v-90h126v-74h-126v-87q0 -33 -2 -63q56 74 152 74q79 0 131 -52q53 -53 53 -136v-242h-82v230q0 61 -32 94.5t-85 33.5q-54 0 -95 -36q-40 -34 -40 -92z" />
    <glyph glyph-name="uni045C" unicode="&#x45c;" 
d="M227 553l143 143h103l-146 -143h-100zM572 0h-112l-187 204h-87q0 -183 1 -204h-80q1 48 1 240t-1 240h80q-1 -41 -1 -202h89l181 202h100l-209 -233z" />
    <glyph glyph-name="uni045E" unicode="&#x45e;" 
d="M381 680h67q0 -54 -38 -92q-37 -37 -92 -37q-54 0 -92 37q-38 38 -38 92h67q0 -27 18.5 -45t44.5 -18t44.5 18t18.5 45zM550 480l-299 -670h-86l93 201l-209 469h93l160 -370l164 370h84z" />
    <glyph glyph-name="uni045F" unicode="&#x45f;" 
d="M502 480v-480h-164v-100h-77v100h-163v480h81v-406h242v406h81z" />
    <glyph glyph-name="uni0462" unicode="&#x462;" 
d="M324 305h-128v-236h142q58 0 94.5 30t36.5 90q0 58 -39 87t-106 29zM356 0h-240v476h-99v74h99v100h80v-100h183v-74h-183v-102h141q90 0 152 -44q63 -44 63 -136t-53.5 -143t-142.5 -51z" />
    <glyph glyph-name="uni0463" unicode="&#x463;" 
d="M367 222h-163v-153h152q41 0 66.5 19.5t25.5 57.5q0 37 -22 56.5t-59 19.5zM374 0h-250v351h-77v69h77v60h80v-60h161v-69h-161v-60h174q60 0 106 -36q47 -36 47 -110q0 -68 -43 -106.5t-114 -38.5z" />
    <glyph glyph-name="uni0472" unicode="&#x472;" 
d="M49 324q0 152 69 244t182 92t182 -93q69 -91 69 -243q0 -150 -69 -242t-182 -92t-182 92t-69 242zM300 584q-67 0 -111 -56.5t-54 -153.5h330q-10 96 -54.5 153t-110.5 57zM300 66q71 0 116 64q46 65 50 170h-332q5 -107 50 -170.5t116 -63.5z" />
    <glyph glyph-name="uni0473" unicode="&#x473;" 
d="M299 -10q-104 0 -171 70q-68 71 -68 180q0 108 68 179t171 71t171 -71q69 -71 69 -179q0 -109 -68 -180q-67 -70 -172 -70zM300 411q-59 0 -101 -36t-53 -96h307q-11 59 -53 95.5t-100 36.5zM300 69q59 0 101.5 38t52.5 99h-309q10 -61 52.5 -99t102.5 -38z" />
    <glyph glyph-name="uni0474" unicode="&#x474;" 
d="M355 0h-133l-186 650h87l168 -588l124 429q49 169 190 169l-5 -83q-80 0 -116 -125z" />
    <glyph glyph-name="uni0475" unicode="&#x475;" 
d="M493 338l-155 -338h-75l-213 480h91l164 -378l107 238q35 79 74.5 114.5t100.5 35.5l-5 -79q-58 0 -89 -73z" />
    <glyph glyph-name="uni0490" unicode="&#x490;" 
d="M561 770v-194h-301v-576h-80v650h304v120h77z" />
    <glyph glyph-name="uni0491" unicode="&#x491;" 
d="M545 600v-194h-281v-406h-80v480h284v120h77z" />
    <glyph glyph-name="uni04D9" unicode="&#x4d9;" 
d="M291 -9q-99 0 -164 65q-64 64 -64 171q0 31 4 52h390q-11 65 -57.5 102.5t-115.5 37.5q-47 0 -88.5 -21.5t-61.5 -56.5l-63 39q31 53 87.5 82t126.5 29q108 0 178 -70q71 -71 71 -180t-69 -180q-67 -70 -174 -70zM458 206h-316q8 -66 49.5 -104.5t106.5 -38.5t107.5 38.5
t52.5 104.5z" />
    <glyph glyph-name="uni1E9E" unicode="&#x1e9e;" 
d="M343 -10q-72 0 -113 22l23 73q35 -20 84 -20q55 0 88.5 36t33.5 94q0 54 -47.5 87t-126.5 33v59l122 202h-119q-67 0 -97 -32.5t-30 -101.5v-204q0 -209 1 -238h-80q1 29 1 238v204q0 98 55 153t157 55h195v-74l-121 -199q79 -11 125.5 -59.5t46.5 -122.5q0 -93 -55 -149
q-54 -56 -143 -56z" />
    <glyph glyph-name="uni2000" unicode="&#x2000;" horiz-adv-x="448" 
 />
    <glyph glyph-name="uni2001" unicode="&#x2001;" horiz-adv-x="896" 
 />
    <glyph glyph-name="uni2002" unicode="&#x2002;" horiz-adv-x="448" 
 />
    <glyph glyph-name="uni2003" unicode="&#x2003;" horiz-adv-x="896" 
 />
    <glyph glyph-name="uni2004" unicode="&#x2004;" horiz-adv-x="298" 
 />
    <glyph glyph-name="uni2005" unicode="&#x2005;" horiz-adv-x="224" 
 />
    <glyph glyph-name="uni2006" unicode="&#x2006;" horiz-adv-x="149" 
 />
    <glyph glyph-name="uni2007" unicode="&#x2007;" horiz-adv-x="149" 
 />
    <glyph glyph-name="uni2008" unicode="&#x2008;" horiz-adv-x="112" 
 />
    <glyph glyph-name="uni2009" unicode="&#x2009;" horiz-adv-x="179" 
 />
    <glyph glyph-name="uni200A" unicode="&#x200a;" horiz-adv-x="49" 
 />
    <glyph glyph-name="uni2010" unicode="&#x2010;" 
d="M480 210h-360v80h360v-80z" />
    <glyph glyph-name="uni2011" unicode="&#x2011;" 
d="M480 210h-360v80h360v-80z" />
    <glyph glyph-name="figuredash" unicode="&#x2012;" 
d="M480 210h-360v80h360v-80z" />
    <glyph glyph-name="endash" unicode="&#x2013;" 
d="M535 210h-470v80h470v-80z" />
    <glyph glyph-name="emdash" unicode="&#x2014;" 
d="M610 210h-620v80h620v-80z" />
    <glyph glyph-name="quoteleft" unicode="&#x2018;" 
d="M316 356q-42 0 -66 31t-24 82q0 78 46 134t127 78l20 -64q-53 -16 -77.5 -35t-31.5 -53q45 -1 69 -25t24 -61q0 -38 -24.5 -62.5t-62.5 -24.5z" />
    <glyph glyph-name="quoteright" unicode="&#x2019;" 
d="M206 354l-20 64q53 16 77.5 35t31.5 53q-45 1 -69 25t-24 61q0 38 24.5 62.5t62.5 24.5q42 0 66 -31t24 -82q0 -78 -46 -134t-127 -78z" />
    <glyph glyph-name="quotesinglbase" unicode="&#x201a;" 
d="M206 -162l-20 64q53 16 77.5 35t31.5 53q-45 1 -69 25t-24 61q0 38 24.5 62.5t62.5 24.5q42 0 66 -31t24 -82q0 -78 -46 -134t-127 -78z" />
    <glyph glyph-name="quotedblleft" unicode="&#x201c;" 
d="M198 356q-42 0 -66 31t-24 82q0 78 46 134t127 78l20 -64q-53 -16 -77.5 -35t-31.5 -53q45 -1 69 -25t24 -61q0 -38 -24.5 -62.5t-62.5 -24.5zM468 356q-42 0 -66 31t-24 82q0 78 46 134t127 78l20 -64q-53 -16 -77.5 -35t-31.5 -53q45 -1 69 -25t24 -61
q0 -38 -24.5 -62.5t-62.5 -24.5z" />
    <glyph glyph-name="quotedblright" unicode="&#x201d;" 
d="M89 354l-20 64q53 16 77.5 35t31.5 53q-45 1 -69 25t-24 61q0 38 24.5 62.5t62.5 24.5q42 0 66 -31t24 -82q0 -78 -46 -134t-127 -78zM359 354l-20 64q53 16 77.5 35t31.5 53q-45 1 -69 25t-24 61q0 38 24.5 62.5t62.5 24.5q42 0 66 -31t24 -82q0 -78 -46 -134t-127 -78z
" />
    <glyph glyph-name="quotedblbase" unicode="&#x201e;" 
d="M89 -162l-20 64q53 16 77.5 35t31.5 53q-45 1 -69 25t-24 61q0 38 24.5 62.5t62.5 24.5q42 0 66 -31t24 -82q0 -78 -46 -134t-127 -78zM359 -162l-20 64q53 16 77.5 35t31.5 53q-45 1 -69 25t-24 61q0 38 24.5 62.5t62.5 24.5q42 0 66 -31t24 -82q0 -78 -46 -134
t-127 -78z" />
    <glyph glyph-name="dagger" unicode="&#x2020;" 
d="M480 480v-80h-140v-590h-80v590h-140v80h140v270h80v-270h140z" />
    <glyph glyph-name="daggerdbl" unicode="&#x2021;" 
d="M480 160v-80h-140v-270h-80v270h-140v80h140v240h-140v80h140v270h80v-270h140v-80h-140v-240h140z" />
    <glyph glyph-name="bullet" unicode="&#x2022;" 
d="M382 158q-38 -38 -92 -38t-92 38t-38 92t38 92q38 39 92 39t92 -39q39 -37 39 -92q0 -54 -39 -92z" />
    <glyph glyph-name="uni202F" unicode="&#x202f;" horiz-adv-x="179" 
 />
    <glyph glyph-name="perthousand" unicode="&#x2030;" 
d="M431 528l-365 -408l-42 43l320 358l-108 -30q-4 -65 -30.5 -100.5t-72.5 -35.5q-49 0 -76 40.5t-27 112.5q0 71 27 111.5t76 40.5q40 0 65.5 -27t33.5 -77l167 26zM99 508q0 -86 34 -86t34 86q0 85 -34 85t-34 -85zM468 20q-51 0 -77 56q-25 -55 -78 -55q-47 0 -74 40.5
t-27 111.5q0 72 27 112.5t74 40.5q52 0 78 -56q25 55 77 55q48 0 75 -40.5t27 -111.5q0 -72 -27 -112.5t-75 -40.5zM359 173q0 86 -39 86t-39 -86q0 -85 39 -85t39 85zM423 173q0 -86 39 -86t39 86q0 85 -39 85t-39 -85z" />
    <glyph glyph-name="minute" unicode="&#x2032;" 
d="M202 531l122 294l74 -30l-122 -294z" />
    <glyph glyph-name="second" unicode="&#x2033;" 
d="M102 531l122 294l74 -30l-122 -294zM302 531l122 294l74 -30l-122 -294z" />
    <glyph glyph-name="uni2034" unicode="&#x2034;" 
d="M402 531l122 294l74 -30l-122 -294zM2 531l122 294l74 -30l-122 -294zM202 531l122 294l74 -30l-122 -294z" />
    <glyph glyph-name="guilsinglleft" unicode="&#x2039;" 
d="M390 123v-105l-210 178v87l210 179v-105l-138 -117z" />
    <glyph glyph-name="guilsinglright" unicode="&#x203a;" 
d="M460 197l-210 -179v105l138 117l-138 117v105l210 -178v-87z" />
    <glyph glyph-name="uni203D" unicode="&#x203d;" 
d="M337 235h-74v255h74v-126l10 9q8 8 17 15q22 21 31 32q23 31 23 70q0 43 -29.5 66t-81.5 23q-46 0 -75.5 -24t-29.5 -65h-75q0 75 53 122.5t139 47.5q79 0 130 -48q52 -48 52 -113q0 -35 -14 -66q-12 -28 -25.5 -43t-42.5 -35q-49 -37 -63 -57q-19 -28 -19 -63zM361 15
q-25 -25 -61 -25t-62 25q-25 26 -25 62t25 61q26 26 62 26t61 -26q26 -25 26 -61t-26 -62z" />
    <glyph glyph-name="uni203E" unicode="&#x203e;" 
d="M535 590h-470v80h470v-80z" />
    <glyph glyph-name="fraction" unicode="&#x2044;" 
d="M508 580l-348 -578l-68 41l348 578z" />
    <glyph glyph-name="uni205F" unicode="&#x205f;" horiz-adv-x="224" 
 />
    <glyph glyph-name="franc" unicode="&#x20a3;" 
d="M453 264v-74h-199v-190h-80v190h-129v74h129v88h-129v74h129v224h401v-74h-321v-150h199v-74h-199v-88h199z" />
    <glyph glyph-name="dong" unicode="&#x20ab;" 
d="M401 368q-41 50 -100 50t-100 -50t-41 -128q0 -79 41 -129q40 -49 100 -49t100 49q41 50 41 129q0 78 -41 128zM512 0h-80q0 36 2 64q-59 -74 -152 -74q-88 0 -146 67t-58 183q0 115 58 182q59 68 146 68q94 0 152 -75q-2 42 -2 65v60h-165v74h165v56h79v-56h72v-74h-72
v-205q0 -268 1 -335zM485 -150h-380v80h380v-80z" />
    <glyph glyph-name="Euro" unicode="&#x20ac;" 
d="M503 238l73 -49q-26 -94 -85 -146.5t-139 -52.5q-84 0 -145 58.5t-84 161.5h-95v74h85q-2 40 -2 45q0 7 2 47h-85v74h96q24 99 84 154.5t144 55.5q87 0 148.5 -61.5t83.5 -169.5l-78 -35q-13 88 -54 139.5t-100 51.5q-50 0 -87 -35.5t-55 -99.5h188v-74h-202
q-4 -48 0 -92h202v-74h-190q18 -69 55.5 -107t88.5 -38q56 0 96 46t55 127z" />
    <glyph glyph-name="uni20B9" unicode="&#x20b9;" 
d="M223 296h-20l167 -296h-94l-163 296v74h98q68 0 89 66h-187v74h188q-10 31 -38 48.5t-68 17.5h-82v74h385v-74h-146q23 -25 34 -66h112v-74h-113q-12 -63 -58 -101.5t-104 -38.5z" />
    <glyph glyph-name="uni20BA" unicode="&#x20ba;" 
d="M343 0h-170v248l-108 -45l-28 68l136 56v78l-108 -45l-28 68l136 56v166h80v-132l179 74l28 -68l-207 -86v-77l179 74l28 -68l-207 -86v-207h89q46 0 73.5 25t27.5 70q0 49 -18 91l74 20q24 -52 24 -113q0 -77 -49 -122t-131 -45z" />
    <glyph glyph-name="uni20BD" unicode="&#x20bd;" 
d="M366 576h-166v-229h165q45 0 78 34q34 34 34 83q0 50 -31 81t-80 31zM362 182v-74h-162v-108h-80v108h-95v74h95v91h-95v74h95v303h264q76 0 126 -51q50 -52 50 -130q0 -90 -53 -143t-126 -53h-181v-91h162z" />
    <glyph glyph-name="trademark" unicode="&#x2122;" 
d="M260 524q0 -31 -21 -48.5t-59 -17.5q-36 0 -58 19t-22 50v79h-32v44h32v47l49 5v-52h104v-44h-104v-67q0 -14 9 -23t23 -9q30 0 30 23q0 8 -5 20l43 19q11 -20 11 -45zM347 583v-122h-50v189h50v-13q14 17 39 17q28 0 40 -26q14 26 45 26q19 0 32.5 -15t13.5 -39v-139
h-51v127q0 19 -15 19q-19 0 -19 -24v-122h-51v127q0 19 -16 19q-18 0 -18 -24z" />
    <glyph glyph-name="uni25FC" unicode="&#x25fc;" horiz-adv-x="480" 
d="M0 0v480h480v-480h-480z" />
    <glyph glyph-name="uniF6C5" unicode="&#xf6c5;" 
d="M301 -10q-104 0 -166 61.5t-62 168.5q0 98 58 153q59 57 148 57q88 0 142 -58q-38 74 -151 105q-68 19 -97.5 42t-29.5 64q0 28 15.5 48.5t42 30.5t53.5 14t57 4q94 0 189 -50l-33 -68q-25 15 -79 29t-98 14q-57 0 -57 -28q0 -17 13.5 -24.5t63.5 -23.5q97 -29 150 -87
q60 -65 60 -194q0 -124 -63 -191q-61 -67 -156 -67zM155 220q0 -70 41 -114t104 -44q60 0 98.5 44.5t38.5 123.5q0 64 -44 96t-97 32q-59 0 -100 -38t-41 -100z" />
    <glyph glyph-name="uniFB01" unicode="&#xfb01;" 
d="M426 0v406h-234v-406h-80v406h-109v74h109q2 95 53 147.5t145 52.5q59 0 102.5 -28t57.5 -77l-70 -29q-13 60 -102 60q-106 0 -106 -125v-1h314v-480h-80z" />
    <glyph glyph-name="uniFB02" unicode="&#xfb02;" 
d="M326 443v-74h-134v-369h-80v369h-109v74h109v28q0 96 57 152.5t156 56.5q52 0 102 -22t79 -59v-599h-80v567q-33 39 -113 39q-55 0 -88 -32.5t-33 -92.5v-38h134z" />
    <glyph glyph-name="igrave.case" 
d="M510 74v-74h-420v74h170v502h-170v74h420v-74h-170v-502h170z" />
    <glyph glyph-name="kgreenlandic.case" 
d="M587 0h-105l-219 306l-90 -99v-207h-80v650h80v-335l299 335h109l-264 -286z" />
    <glyph glyph-name="Iacute_J.locl" 
d="M412 723l143 143h103l-146 -143h-100zM71 723l143 143h103l-146 -143h-100zM163 300h-80v350h80v-350zM437 206v444h80v-424q0 -114 -60.5 -175t-163.5 -61q-94 0 -152 50q-57 51 -57 126h77q0 -42 39.5 -70.5t100.5 -28.5q57 0 96 41q40 40 40 98z" />
    <glyph glyph-name="M.ss03" 
d="M354 0h-114l-103 589v-589h-77v650h143l98 -583l97 583h142v-650h-77v586z" />
    <glyph glyph-name="W.ss03" 
d="M489 0h-128l-60 576l-63 -576h-128l-72 650h75l63 -589l65 589h119l67 -589l62 589h73z" />
    <glyph glyph-name="Wcircumflex.ss03" 
d="M471 723h-92l-79 94l-79 -94h-92l129 143h84zM489 0h-128l-60 576l-63 -576h-128l-72 650h75l63 -589l65 589h119l67 -589l62 589h73z" />
    <glyph glyph-name="glyph539" 
d="M355 577q-25 -25 -61 -25t-62 25q-25 26 -25 62t25 61q26 26 62 26t61 -26q26 -25 26 -61t-26 -62zM561 74v-74h-507v74h240v332h-204v74h284q-1 -48 -1 -240v-166h188z" />
    <glyph glyph-name="a.ss01" 
d="M396 368q-41 50 -100 50t-100 -50t-41 -128q0 -79 41 -129q40 -49 100 -49t100 49q41 50 41 129q0 78 -41 128zM429 62l1 3q-58 -75 -153 -75q-88 0 -146 67t-58 183q0 115 58 182q59 68 146 68q93 0 152 -75v2q-2 40 -2 63h80q-1 -52 -1 -240q0 -196 1 -240h-81
q0 29 3 62z" />
    <glyph glyph-name="agrave.ss01" 
d="M137 696h103l143 -143h-100zM396 368q-41 50 -100 50t-100 -50t-41 -128q0 -79 41 -129q40 -49 100 -49t100 49q41 50 41 129q0 78 -41 128zM429 62l1 3q-58 -75 -153 -75q-88 0 -146 67t-58 183q0 115 58 182q59 68 146 68q93 0 152 -75v2q-2 40 -2 63h80
q-1 -52 -1 -240q0 -196 1 -240h-81q0 29 3 62z" />
    <glyph glyph-name="aacute.ss01" 
d="M203 553l143 143h103l-146 -143h-100zM396 368q-41 50 -100 50t-100 -50t-41 -128q0 -79 41 -129q40 -49 100 -49t100 49q41 50 41 129q0 78 -41 128zM429 62l1 3q-58 -75 -153 -75q-88 0 -146 67t-58 183q0 115 58 182q59 68 146 68q93 0 152 -75v2q-2 40 -2 63h80
q-1 -52 -1 -240q0 -196 1 -240h-81q0 29 3 62z" />
    <glyph glyph-name="acircumflex.ss01" 
d="M466 553h-92l-79 94l-79 -94h-92l129 143h84zM396 368q-41 50 -100 50t-100 -50t-41 -128q0 -79 41 -129q40 -49 100 -49t100 49q41 50 41 129q0 78 -41 128zM429 62l1 3q-58 -75 -153 -75q-88 0 -146 67t-58 183q0 115 58 182q59 68 146 68q93 0 152 -75v2q-2 40 -2 63
h80q-1 -52 -1 -240q0 -196 1 -240h-81q0 29 3 62z" />
    <glyph glyph-name="atilde.ss01" 
d="M134 563l-46 49q72 78 134 78q46 0 80 -21q55 -32 75 -32q34 0 77 49l50 -45q-56 -75 -130 -75q-42 0 -75 21q-49 31 -73 31q-41 0 -92 -55zM396 368q-41 50 -100 50t-100 -50t-41 -128q0 -79 41 -129q40 -49 100 -49t100 49q41 50 41 129q0 78 -41 128zM429 62l1 3
q-58 -75 -153 -75q-88 0 -146 67t-58 183q0 115 58 182q59 68 146 68q93 0 152 -75v2q-2 40 -2 63h80q-1 -52 -1 -240q0 -196 1 -240h-81q0 29 3 62z" />
    <glyph glyph-name="adieresis.ss01" 
d="M438 553q-27 0 -46 19.5t-19 46.5q0 28 19 47t46 19q28 0 47 -19t19 -47q0 -27 -19 -46.5t-47 -19.5zM153 553q-27 0 -46 19.5t-19 46.5q0 28 19 47t46 19q28 0 47 -19t19 -47q0 -27 -19 -46.5t-47 -19.5zM396 368q-41 50 -100 50t-100 -50t-41 -128q0 -79 41 -129
q40 -49 100 -49t100 49q41 50 41 129q0 78 -41 128zM429 62l1 3q-58 -75 -153 -75q-88 0 -146 67t-58 183q0 115 58 182q59 68 146 68q93 0 152 -75v2q-2 40 -2 63h80q-1 -52 -1 -240q0 -196 1 -240h-81q0 29 3 62z" />
    <glyph glyph-name="aring.ss01" 
d="M183 619q0 43 31 74q32 32 76 32t75.5 -31t31.5 -75t-32 -76q-31 -31 -75 -31q-45 0 -76 31t-31 76zM238 619q0 -22 15 -37t37 -15t37 15t15 37q0 21 -15 36t-37 15t-37 -15t-15 -36zM396 368q-41 50 -100 50t-100 -50t-41 -128q0 -79 41 -129q40 -49 100 -49t100 49
q41 50 41 129q0 78 -41 128zM429 62l1 3q-58 -75 -153 -75q-88 0 -146 67t-58 183q0 115 58 182q59 68 146 68q93 0 152 -75v2q-2 40 -2 63h80q-1 -52 -1 -240q0 -196 1 -240h-81q0 29 3 62z" />
    <glyph glyph-name="amacron.ss01" 
d="M507 586h-380v74h380v-74zM396 368q-41 50 -100 50t-100 -50t-41 -128q0 -79 41 -129q40 -49 100 -49t100 49q41 50 41 129q0 78 -41 128zM429 62l1 3q-58 -75 -153 -75q-88 0 -146 67t-58 183q0 115 58 182q59 68 146 68q93 0 152 -75v2q-2 40 -2 63h80q-1 -52 -1 -240
q0 -196 1 -240h-81q0 29 3 62z" />
    <glyph glyph-name="abreve.ss01" 
d="M345 680h67q0 -54 -38 -92q-37 -37 -92 -37q-54 0 -92 37q-38 38 -38 92h67q0 -27 18.5 -45t44.5 -18t44.5 18t18.5 45zM396 368q-41 50 -100 50t-100 -50t-41 -128q0 -79 41 -129q40 -49 100 -49t100 49q41 50 41 129q0 78 -41 128zM429 62l1 3q-58 -75 -153 -75
q-88 0 -146 67t-58 183q0 115 58 182q59 68 146 68q93 0 152 -75v2q-2 40 -2 63h80q-1 -52 -1 -240q0 -196 1 -240h-81q0 29 3 62z" />
    <glyph glyph-name="aogonek.ss01" 
d="M396 368q-41 50 -100 50t-100 -50t-41 -128q0 -79 41 -129q40 -49 100 -49t100 49q41 50 41 129q0 78 -41 128zM544 -108l20 -68q-4 -1 -15 -1q-67 0 -104 34q-38 33 -38 78q0 46 19 69q0 26 3 58l1 3q-58 -75 -153 -75q-88 0 -146 67t-58 183q0 115 58 182q59 68 146 68
q93 0 152 -75v2q-2 40 -2 63h80q-1 -52 -1 -240q0 -196 1 -240q-36 -14 -36 -52q0 -24 20.5 -40t52.5 -16z" />
    <glyph glyph-name="g.ss02" 
d="M231 270q25 -23 64 -23t64 23q25 22 25 61q0 38 -25 60q-25 23 -64 23t-64 -23q-23 -23 -23 -60q0 -38 23 -61zM559 -26q0 -86 -61 -128q-26 -19 -65 -29q-59 -17 -148 -17q-236 0 -236 141q0 62 61 108q-41 30 -41 81q0 68 84 108q-27 40 -27 93q0 71 46.5 115t122.5 44
q77 0 125 -45q40 45 88 45q54 0 85 -34l-41 -51q-20 16 -45 16q-23 0 -51 -34q9 -25 9 -56q0 -72 -46.5 -116t-123.5 -44q-53 0 -96 24q-46 -19 -46 -50q0 -37 47 -37h203q73 0 114.5 -35.5t41.5 -98.5zM301 -122q77 0 120 13q54 17 54 70q-1 69 -85 69h-215
q-45 -37 -46 -80q0 -45 37 -58q39 -14 135 -14z" />
    <glyph glyph-name="gcircumflex.ss02" 
d="M472 553h-92l-79 94l-79 -94h-92l129 143h84zM231 270q25 -23 64 -23t64 23q25 22 25 61q0 38 -25 60q-25 23 -64 23t-64 -23q-23 -23 -23 -60q0 -38 23 -61zM559 -26q0 -86 -61 -128q-26 -19 -65 -29q-59 -17 -148 -17q-236 0 -236 141q0 62 61 108q-41 30 -41 81
q0 68 84 108q-27 40 -27 93q0 71 46.5 115t122.5 44q77 0 125 -45q40 45 88 45q54 0 85 -34l-41 -51q-20 16 -45 16q-23 0 -51 -34q9 -25 9 -56q0 -72 -46.5 -116t-123.5 -44q-53 0 -96 24q-46 -19 -46 -50q0 -37 47 -37h203q73 0 114.5 -35.5t41.5 -98.5zM301 -122
q77 0 120 13q54 17 54 70q-1 69 -85 69h-215q-45 -37 -46 -80q0 -45 37 -58q39 -14 135 -14z" />
    <glyph glyph-name="gbreve.ss02" 
d="M360 680h67q0 -54 -38 -92q-37 -37 -92 -37q-54 0 -92 37q-38 38 -38 92h67q0 -27 18.5 -45t44.5 -18t44.5 18t18.5 45zM231 270q25 -23 64 -23t64 23q25 22 25 61q0 38 -25 60q-25 23 -64 23t-64 -23q-23 -23 -23 -60q0 -38 23 -61zM559 -26q0 -86 -61 -128
q-26 -19 -65 -29q-59 -17 -148 -17q-236 0 -236 141q0 62 61 108q-41 30 -41 81q0 68 84 108q-27 40 -27 93q0 71 46.5 115t122.5 44q77 0 125 -45q40 45 88 45q54 0 85 -34l-41 -51q-20 16 -45 16q-23 0 -51 -34q9 -25 9 -56q0 -72 -46.5 -116t-123.5 -44q-53 0 -96 24
q-46 -19 -46 -50q0 -37 47 -37h203q73 0 114.5 -35.5t41.5 -98.5zM301 -122q77 0 120 13q54 17 54 70q-1 69 -85 69h-215q-45 -37 -46 -80q0 -45 37 -58q39 -14 135 -14z" />
    <glyph glyph-name="gdotaccent.ss02" 
d="M360 577q-25 -25 -61 -25t-62 25q-25 26 -25 62t25 61q26 26 62 26t61 -26q26 -25 26 -61t-26 -62zM231 270q25 -23 64 -23t64 23q25 22 25 61q0 38 -25 60q-25 23 -64 23t-64 -23q-23 -23 -23 -60q0 -38 23 -61zM559 -26q0 -86 -61 -128q-26 -19 -65 -29
q-59 -17 -148 -17q-236 0 -236 141q0 62 61 108q-41 30 -41 81q0 68 84 108q-27 40 -27 93q0 71 46.5 115t122.5 44q77 0 125 -45q40 45 88 45q54 0 85 -34l-41 -51q-20 16 -45 16q-23 0 -51 -34q9 -25 9 -56q0 -72 -46.5 -116t-123.5 -44q-53 0 -96 24q-46 -19 -46 -50
q0 -37 47 -37h203q73 0 114.5 -35.5t41.5 -98.5zM301 -122q77 0 120 13q54 17 54 70q-1 69 -85 69h-215q-45 -37 -46 -80q0 -45 37 -58q39 -14 135 -14z" />
    <glyph glyph-name="uni0123.ss02" 
d="M292 551q-29 0 -47 23.5t-18 62.5q0 51 31.5 88.5t88.5 53.5l14 -45q-63 -16 -73 -61q61 -9 61 -62q0 -25 -17 -42.5t-40 -17.5zM231 270q25 -23 64 -23t64 23q25 22 25 61q0 38 -25 60q-25 23 -64 23t-64 -23q-23 -23 -23 -60q0 -38 23 -61zM559 -26q0 -86 -61 -128
q-26 -19 -65 -29q-59 -17 -148 -17q-236 0 -236 141q0 62 61 108q-41 30 -41 81q0 68 84 108q-27 40 -27 93q0 71 46.5 115t122.5 44q77 0 125 -45q40 45 88 45q54 0 85 -34l-41 -51q-20 16 -45 16q-23 0 -51 -34q9 -25 9 -56q0 -72 -46.5 -116t-123.5 -44q-53 0 -96 24
q-46 -19 -46 -50q0 -37 47 -37h203q73 0 114.5 -35.5t41.5 -98.5zM301 -122q77 0 120 13q54 17 54 70q-1 69 -85 69h-215q-45 -37 -46 -80q0 -45 37 -58q39 -14 135 -14z" />
    <glyph glyph-name="t.ss02" 
d="M514 183q0 -86 -42 -139.5t-116 -53.5q-66 0 -109 41t-43 107v231h-204v74h204v227h80v-227h224v-74h-224v-220q0 -34 20 -56.5t52 -22.5q78 0 78 112q0 40 -4 60l78 17q6 -37 6 -76z" />
    <glyph glyph-name="uni0163.ss02" 
d="M514 183q0 -86 -42 -139.5t-116 -53.5q-66 0 -109 41t-43 107v231h-204v74h204v227h80v-227h224v-74h-224v-220q0 -34 20 -56.5t52 -22.5q78 0 78 112q0 40 -4 60l78 17q6 -37 6 -76zM308 -289l-14 45q63 16 73 61q-61 9 -61 62q0 25 17 42.5t40 17.5q29 0 47 -23.5
t18 -62.5q0 -51 -31.5 -88.5t-88.5 -53.5z" />
    <glyph glyph-name="uni021B.ss02" 
d="M514 183q0 -86 -42 -139.5t-116 -53.5q-66 0 -109 41t-43 107v231h-204v74h204v227h80v-227h224v-74h-224v-220q0 -34 20 -56.5t52 -22.5q78 0 78 112q0 40 -4 60l78 17q6 -37 6 -76zM308 -289l-14 45q63 16 73 61q-61 9 -61 62q0 25 17 42.5t40 17.5q29 0 47 -23.5
t18 -62.5q0 -51 -31.5 -88.5t-88.5 -53.5z" />
    <glyph glyph-name="tcaron.ss02" 
d="M354 540l64 186h83l-69 -186h-78zM514 183q0 -86 -42 -139.5t-116 -53.5q-66 0 -109 41t-43 107v231h-204v74h204v227h80v-227h224v-74h-224v-220q0 -34 20 -56.5t52 -22.5q78 0 78 112q0 40 -4 60l78 17q6 -37 6 -76z" />
    <glyph glyph-name="tbar.ss02" 
d="M428 142h80q0 -66 -43 -109t-109 -43t-109 43t-43 109v80h-204v74h204v73h-204v74h204v227h80v-227h224v-74h-224v-73h224v-74h-224v-80q0 -32 20 -52t52 -20t52 20t20 52z" />
    <glyph glyph-name="w.ss03" 
d="M461 0h-98l-62 406l-73 -406h-98l-88 480h74l63 -385l71 385h101l62 -385l72 385h73z" />
    <glyph glyph-name="wcircumflex.ss03" 
d="M471 553h-92l-79 94l-79 -94h-92l129 143h84zM461 0h-98l-62 406l-73 -406h-98l-88 480h74l63 -385l71 385h101l62 -385l72 385h73z" />
    <glyph glyph-name="y.ss02" 
d="M168 -200q-61 0 -94.5 33.5t-33.5 89.5q0 41 18 70l60 -21q-11 -24 -11 -43q0 -26 16 -41.5t45 -15.5q27 0 44.5 17.5t39.5 66.5l23 52l-210 472h93l161 -372l165 372h84l-249 -559q-28 -64 -62.5 -92t-88.5 -29z" />
    <glyph glyph-name="yacute.ss02" 
d="M247 553l143 143h103l-146 -143h-100zM168 -200q-61 0 -94.5 33.5t-33.5 89.5q0 41 18 70l60 -21q-11 -24 -11 -43q0 -26 16 -41.5t45 -15.5q27 0 44.5 17.5t39.5 66.5l23 52l-210 472h93l161 -372l165 372h84l-249 -559q-28 -64 -62.5 -92t-88.5 -29z" />
    <glyph glyph-name="ycircumflex.ss02" 
d="M491 553h-92l-79 94l-79 -94h-92l129 143h84zM168 -200q-61 0 -94.5 33.5t-33.5 89.5q0 41 18 70l60 -21q-11 -24 -11 -43q0 -26 16 -41.5t45 -15.5q27 0 44.5 17.5t39.5 66.5l23 52l-210 472h93l161 -372l165 372h84l-249 -559q-28 -64 -62.5 -92t-88.5 -29z" />
    <glyph glyph-name="ydieresis.ss02" 
d="M462 553q-27 0 -46 19.5t-19 46.5q0 28 19 47t46 19q28 0 47 -19t19 -47q0 -27 -19 -46.5t-47 -19.5zM177 553q-27 0 -46 19.5t-19 46.5q0 28 19 47t46 19q28 0 47 -19t19 -47q0 -27 -19 -46.5t-47 -19.5zM168 -200q-61 0 -94.5 33.5t-33.5 89.5q0 41 18 70l60 -21
q-11 -24 -11 -43q0 -26 16 -41.5t45 -15.5q27 0 44.5 17.5t39.5 66.5l23 52l-210 472h93l161 -372l165 372h84l-249 -559q-28 -64 -62.5 -92t-88.5 -29z" />
    <glyph glyph-name="iacute_j.locl" 
d="M67 553l143 143h103l-146 -143h-100zM394 553l143 143h103l-146 -143h-100zM190 0h-80q1 48 1 240t-1 240h80q-1 -48 -1 -240q0 -216 1 -240zM409 480h80v-492q0 -92 -55 -147q-56 -56 -146 -56q-56 0 -101.5 21.5t-64.5 57.5l72 41q28 -44 103 -44q50 0 81 32.5t31 84.5
v502z" />
    <glyph glyph-name="a.sc" 
d="M217 201h159l-82 221zM532 0h-81l-47 127h-213l-44 -127h-79l183 500h98z" />
    <glyph glyph-name="b.sc" 
d="M338 431h-142v-141h141q33 0 54 20.5t21 51.5q0 32 -20 50.5t-54 18.5zM350 222h-154v-153h143q45 0 73 19.5t28 58.5q0 37 -24.5 56t-65.5 19zM357 0h-241v500h238q61 0 101 -35t40 -91q0 -76 -65 -114q93 -30 93 -114q0 -68 -45.5 -107t-120.5 -39z" />
    <glyph glyph-name="c.sc" 
d="M478 176l71 -32q-26 -72 -86.5 -113t-142.5 -41q-112 0 -180 72q-68 74 -68 192q0 114 68 185t180 71q91 0 154.5 -48t84.5 -131l-74 -26q-13 59 -57 94t-108 35q-75 0 -120.5 -49.5t-45.5 -130.5q0 -84 45.5 -136t120.5 -52q57 0 99 29t59 81z" />
    <glyph glyph-name="d.sc" 
d="M253 -7q-90 0 -136 7v504q52 6 136 6q130 0 209 -64q80 -63 80 -182q0 -133 -76 -202t-213 -69zM260 69q105 0 152 48.5t47 142.5q0 81 -52 128t-148 47q-4 0 -62 -2v-362q58 -2 63 -2z" />
    <glyph glyph-name="e.sc" 
d="M523 0h-380v500h376v-74h-296v-135h224v-74h-224v-143h300v-74z" />
    <glyph glyph-name="f.sc" 
d="M437 281v-74h-211v-207h-80v500h413v-74h-333v-145h211z" />
    <glyph glyph-name="g.sc" 
d="M540 255v-219q-88 -46 -192 -46q-136 0 -210.5 71t-74.5 193q0 117 69 186q69 70 193 70t206 -94l-66 -53q-26 31 -64 48.5t-76 17.5q-84 0 -130.5 -46.5t-46.5 -128.5q0 -85 51.5 -134t148.5 -49q65 0 112 16v94h-129v74h209z" />
    <glyph glyph-name="h.sc" 
d="M505 0h-80v223h-250v-223h-80v500h80v-203h250v203h80v-500z" />
    <glyph glyph-name="i.sc" 
d="M496 74v-74h-392v74h156v352h-156v74h392v-74h-156v-352h156z" />
    <glyph glyph-name="j.sc" 
d="M287 -10q-84 0 -136 50q-51 51 -51 126q0 40 18 75l68 -35q-9 -18 -9 -40q0 -43 32.5 -71t85.5 -28q52 0 84 30t32 81v248h-281v74h361v-309q0 -96 -55.5 -148.5t-148.5 -52.5z" />
    <glyph glyph-name="k.sc" 
d="M578 0h-118l-206 221l-64 -57v-164h-80v500h80v-237l266 237h114l-254 -224z" />
    <glyph glyph-name="l.sc" 
d="M541 0h-375v500h80v-426h295v-74z" />
    <glyph glyph-name="m.sc" 
d="M360 145h-124l-100 314v-459h-72v500h142l96 -308l93 308h141v-500h-72v458z" />
    <glyph glyph-name="n.sc" 
d="M503 0h-130l-200 459v-459h-76v500h143l187 -426v426h76v-500z" />
    <glyph glyph-name="o.sc" 
d="M300 -10q-112 0 -180 72q-68 74 -68 192q0 114 68 185t180 71q111 0 179 -71q69 -71 69 -185q0 -118 -69 -191q-67 -73 -179 -73zM465 254q0 81 -45.5 131t-119.5 50t-119.5 -49.5t-45.5 -131.5q0 -84 45 -137q46 -52 120 -52t119 52q46 52 46 137z" />
    <glyph glyph-name="p.sc" 
d="M369 426h-161v-179h160q43 0 67.5 24t24.5 68q0 39 -25.5 63t-65.5 24zM384 173h-176v-173h-80v500h259q68 0 112 -44t44 -112q0 -78 -47 -125q-46 -46 -112 -46z" />
    <glyph glyph-name="q.sc" 
d="M426 21l108 -141h-101l-83 114q-19 -4 -50 -4q-112 0 -180 72q-68 74 -68 192q0 114 68 185t180 71q111 0 179 -71q69 -71 69 -185q0 -80 -32 -140.5t-90 -92.5zM465 254q0 81 -45.5 131t-119.5 50t-119.5 -49.5t-45.5 -131.5q0 -84 45 -137q46 -52 120 -52t119 52
q46 52 46 137z" />
    <glyph glyph-name="r.sc" 
d="M356 426h-160v-146h170q30 0 50.5 21.5t20.5 54.5q0 32 -22.5 51t-58.5 19zM544 0h-98l-120 206h-130v-206h-80v500h254q66 0 108 -38.5t42 -100.5q0 -56 -28 -94.5t-79 -53.5z" />
    <glyph glyph-name="s.sc" 
d="M76 61l58 64q64 -55 185 -55q55 0 88.5 17t33.5 46q0 27 -37 47q-12 7 -56 18l-68 16q-72 18 -118 47q-56 36 -56 102q0 69 58 108t143 39q109 0 197 -68l-56 -61q-61 49 -152 49q-48 0 -76 -15.5t-28 -44.5q0 -30 42 -53q14 -7 61 -19l72 -16q78 -19 118 -51t40 -90
q0 -77 -63 -114q-62 -37 -158 -37q-142 0 -228 71z" />
    <glyph glyph-name="t.sc" 
d="M551 500v-74h-211v-426h-80v426h-211v74h502z" />
    <glyph glyph-name="u.sc" 
d="M423 181v319h80v-316q0 -88 -56 -141t-147 -53q-92 0 -148 53q-55 52 -55 141v316h80v-319q0 -51 33.5 -82t89.5 -31t89.5 31t33.5 82z" />
    <glyph glyph-name="v.sc" 
d="M538 500l-174 -500h-132l-172 500h87l154 -443l154 443h83z" />
    <glyph glyph-name="w.sc" 
d="M489 0h-128l-62 304l-62 -304h-128l-62 500h75l54 -452l67 307h114l69 -308l53 453h73z" />
    <glyph glyph-name="x.sc" 
d="M555 0h-100l-167 209l-158 -209h-90l201 269l-185 231h96l148 -183l143 183h87l-184 -241z" />
    <glyph glyph-name="y.sc" 
d="M556 500l-216 -290v-210h-80v210l-216 290h102l157 -215l157 215h96z" />
    <glyph glyph-name="z.sc" 
d="M76 0v74l331 352h-301v74h404v-74l-328 -352h334v-74h-440z" />
    <glyph glyph-name="agrave.sc" 
d="M151 716h103l143 -143h-100zM217 201h159l-82 221zM532 0h-81l-47 127h-213l-44 -127h-79l183 500h98z" />
    <glyph glyph-name="aacute.sc" 
d="M227 573l143 143h103l-146 -143h-100zM217 201h159l-82 221zM532 0h-81l-47 127h-213l-44 -127h-79l183 500h98z" />
    <glyph glyph-name="acircumflex.sc" 
d="M471 573h-92l-79 94l-79 -94h-92l129 143h84zM217 201h159l-82 221zM532 0h-81l-47 127h-213l-44 -127h-79l183 500h98z" />
    <glyph glyph-name="atilde.sc" 
d="M138 583l-46 49q72 78 134 78q46 0 80 -21q55 -32 75 -32q34 0 77 49l50 -45q-56 -75 -130 -75q-42 0 -75 21q-49 31 -73 31q-41 0 -92 -55zM217 201h159l-82 221zM532 0h-81l-47 127h-213l-44 -127h-79l183 500h98z" />
    <glyph glyph-name="adieresis.sc" 
d="M442 573q-27 0 -46 19.5t-19 46.5q0 28 19 47t46 19q28 0 47 -19t19 -47q0 -27 -19 -46.5t-47 -19.5zM157 573q-27 0 -46 19.5t-19 46.5q0 28 19 47t46 19q28 0 47 -19t19 -47q0 -27 -19 -46.5t-47 -19.5zM217 201h159l-82 221zM532 0h-81l-47 127h-213l-44 -127h-79
l183 500h98z" />
    <glyph glyph-name="aring.sc" 
d="M193 639q0 43 31 74q32 32 76 32t75.5 -31t31.5 -75t-32 -76q-31 -31 -75 -31q-45 0 -76 31t-31 76zM248 639q0 -22 15 -37t37 -15t37 15t15 37q0 21 -15 36t-37 15t-37 -15t-15 -36zM217 201h159l-82 221zM532 0h-81l-47 127h-213l-44 -127h-79l183 500h98z" />
    <glyph glyph-name="ae.sc" 
d="M221 198h102v222zM584 0h-261v129h-134l-59 -129h-86l236 500h300v-74h-182v-135h110v-74h-110v-143h186v-74z" />
    <glyph glyph-name="amacron.sc" 
d="M490 606h-380v74h380v-74zM217 201h159l-82 221zM532 0h-81l-47 127h-213l-44 -127h-79l183 500h98z" />
    <glyph glyph-name="abreve.sc" 
d="M363 700h67q0 -54 -38 -92q-37 -37 -92 -37q-54 0 -92 37q-38 38 -38 92h67q0 -27 18.5 -45t44.5 -18t44.5 18t18.5 45zM217 201h159l-82 221zM532 0h-81l-47 127h-213l-44 -127h-79l183 500h98z" />
    <glyph glyph-name="aogonek.sc" 
d="M217 201h159l-82 221zM569 -108l20 -68q-4 -1 -15 -1q-67 0 -104 34q-38 33 -38 78t18 67l-46 125h-213l-44 -127h-79l183 500h98l183 -500q-36 -14 -36 -52q0 -24 20.5 -40t52.5 -16z" />
    <glyph glyph-name="ccedilla.sc" 
d="M364 -46q0 -47 -41 -88q-40 -40 -89 -40v66q24 0 44 19.5t20 43.5q0 23 -9 37q-100 11 -158 81q-59 71 -59 181q0 114 68 185t180 71q91 0 154.5 -48t84.5 -131l-74 -26q-13 59 -57 94t-108 35q-75 0 -120.5 -49.5t-45.5 -130.5q0 -84 45.5 -136t120.5 -52q57 0 99 29
t59 81l71 -32q-23 -63 -72.5 -102.5t-117.5 -48.5q5 -25 5 -39z" />
    <glyph glyph-name="cacute.sc" 
d="M237 573l143 143h103l-146 -143h-100zM478 176l71 -32q-26 -72 -86.5 -113t-142.5 -41q-112 0 -180 72q-68 74 -68 192q0 114 68 185t180 71q91 0 154.5 -48t84.5 -131l-74 -26q-13 59 -57 94t-108 35q-75 0 -120.5 -49.5t-45.5 -130.5q0 -84 45.5 -136t120.5 -52
q57 0 99 29t59 81z" />
    <glyph glyph-name="ccircumflex.sc" 
d="M491 573h-92l-79 94l-79 -94h-92l129 143h84zM478 176l71 -32q-26 -72 -86.5 -113t-142.5 -41q-112 0 -180 72q-68 74 -68 192q0 114 68 185t180 71q91 0 154.5 -48t84.5 -131l-74 -26q-13 59 -57 94t-108 35q-75 0 -120.5 -49.5t-45.5 -130.5q0 -84 45.5 -136t120.5 -52
q57 0 99 29t59 81z" />
    <glyph glyph-name="cdotaccent.sc" 
d="M381 597q-25 -25 -61 -25t-62 25q-25 26 -25 62t25 61q26 26 62 26t61 -26q26 -25 26 -61t-26 -62zM478 176l71 -32q-26 -72 -86.5 -113t-142.5 -41q-112 0 -180 72q-68 74 -68 192q0 114 68 185t180 71q91 0 154.5 -48t84.5 -131l-74 -26q-13 59 -57 94t-108 35
q-75 0 -120.5 -49.5t-45.5 -130.5q0 -84 45.5 -136t120.5 -52q57 0 99 29t59 81z" />
    <glyph glyph-name="ccaron.sc" 
d="M481 725l-129 -143h-84l-129 143h92l79 -94l79 94h92zM478 176l71 -32q-26 -72 -86.5 -113t-142.5 -41q-112 0 -180 72q-68 74 -68 192q0 114 68 185t180 71q91 0 154.5 -48t84.5 -131l-74 -26q-13 59 -57 94t-108 35q-75 0 -120.5 -49.5t-45.5 -130.5q0 -84 45.5 -136
t120.5 -52q57 0 99 29t59 81z" />
    <glyph glyph-name="dcaron.sc" 
d="M451 726l-129 -143h-84l-129 143h92l79 -94l79 94h92zM253 -7q-90 0 -136 7v504q52 6 136 6q130 0 209 -64q80 -63 80 -182q0 -133 -76 -202t-213 -69zM260 69q105 0 152 48.5t47 142.5q0 81 -52 128t-148 47q-4 0 -62 -2v-362q58 -2 63 -2z" />
    <glyph glyph-name="dcroat.sc" 
d="M253 -7q-90 0 -136 7v214h-57v74h57v216q52 6 136 6q130 0 209 -64q80 -63 80 -182q0 -133 -76 -202t-213 -69zM260 69q105 0 152 48.5t47 142.5q0 81 -52 128t-148 47q-4 0 -62 -2v-145h154v-74h-154v-143q58 -2 63 -2z" />
    <glyph glyph-name="egrave.sc" 
d="M171 716h103l143 -143h-100zM523 0h-380v500h376v-74h-296v-135h224v-74h-224v-143h300v-74z" />
    <glyph glyph-name="eacute.sc" 
d="M257 573l143 143h103l-146 -143h-100zM523 0h-380v500h376v-74h-296v-135h224v-74h-224v-143h300v-74z" />
    <glyph glyph-name="ecircumflex.sc" 
d="M501 573h-92l-79 94l-79 -94h-92l129 143h84zM523 0h-380v500h376v-74h-296v-135h224v-74h-224v-143h300v-74z" />
    <glyph glyph-name="edieresis.sc" 
d="M472 573q-27 0 -46 19.5t-19 46.5q0 28 19 47t46 19q28 0 47 -19t19 -47q0 -27 -19 -46.5t-47 -19.5zM187 573q-27 0 -46 19.5t-19 46.5q0 28 19 47t46 19q28 0 47 -19t19 -47q0 -27 -19 -46.5t-47 -19.5zM523 0h-380v500h376v-74h-296v-135h224v-74h-224v-143h300v-74z
" />
    <glyph glyph-name="emacron.sc" 
d="M520 606h-380v74h380v-74zM523 0h-380v500h376v-74h-296v-135h224v-74h-224v-143h300v-74z" />
    <glyph glyph-name="ebreve.sc" 
d="M400 700h67q0 -54 -38 -92q-37 -37 -92 -37q-54 0 -92 37q-38 38 -38 92h67q0 -27 18.5 -45t44.5 -18t44.5 18t18.5 45zM523 0h-380v500h376v-74h-296v-135h224v-74h-224v-143h300v-74z" />
    <glyph glyph-name="edotaccent.sc" 
d="M391 597q-25 -25 -61 -25t-62 25q-25 26 -25 62t25 61q26 26 62 26t61 -26q26 -25 26 -61t-26 -62zM523 0h-380v500h376v-74h-296v-135h224v-74h-224v-143h300v-74z" />
    <glyph glyph-name="eogonek.sc" 
d="M560 -108l20 -68q-4 -1 -15 -1q-64 0 -103 32.5t-39 79.5q0 43 16 65h-296v500h376v-74h-296v-135h224v-74h-224v-143h300v-74q-36 -14 -36 -52q0 -24 20.5 -40t52.5 -16z" />
    <glyph glyph-name="ecaron.sc" 
d="M509 725l-129 -143h-84l-129 143h92l79 -94l79 94h92zM523 0h-380v500h376v-74h-296v-135h224v-74h-224v-143h300v-74z" />
    <glyph glyph-name="gcircumflex.sc" 
d="M494 573h-92l-79 94l-79 -94h-92l129 143h84zM540 255v-219q-88 -46 -192 -46q-136 0 -210.5 71t-74.5 193q0 117 69 186q69 70 193 70t206 -94l-66 -53q-26 31 -64 48.5t-76 17.5q-84 0 -130.5 -46.5t-46.5 -128.5q0 -85 51.5 -134t148.5 -49q65 0 112 16v94h-129v74
h209z" />
    <glyph glyph-name="gbreve.sc" 
d="M393 700h67q0 -54 -38 -92q-37 -37 -92 -37q-54 0 -92 37q-38 38 -38 92h67q0 -27 18.5 -45t44.5 -18t44.5 18t18.5 45zM540 255v-219q-88 -46 -192 -46q-136 0 -210.5 71t-74.5 193q0 117 69 186q69 70 193 70t206 -94l-66 -53q-26 31 -64 48.5t-76 17.5
q-84 0 -130.5 -46.5t-46.5 -128.5q0 -85 51.5 -134t148.5 -49q65 0 112 16v94h-129v74h209z" />
    <glyph glyph-name="gdotaccent.sc" 
d="M384 597q-25 -25 -61 -25t-62 25q-25 26 -25 62t25 61q26 26 62 26t61 -26q26 -25 26 -61t-26 -62zM540 255v-219q-88 -46 -192 -46q-136 0 -210.5 71t-74.5 193q0 117 69 186q69 70 193 70t206 -94l-66 -53q-26 31 -64 48.5t-76 17.5q-84 0 -130.5 -46.5t-46.5 -128.5
q0 -85 51.5 -134t148.5 -49q65 0 112 16v94h-129v74h209z" />
    <glyph glyph-name="uni0123.sc" 
d="M540 255v-219q-88 -46 -192 -46q-136 0 -210.5 71t-74.5 193q0 117 69 186q69 70 193 70t206 -94l-66 -53q-26 31 -64 48.5t-76 17.5q-84 0 -130.5 -46.5t-46.5 -128.5q0 -85 51.5 -134t148.5 -49q65 0 112 16v94h-129v74h209zM267 -289l-14 45q63 16 73 61q-61 9 -61 62
q0 25 17 42.5t40 17.5q29 0 47 -23.5t18 -62.5q0 -51 -31.5 -88.5t-88.5 -53.5z" />
    <glyph glyph-name="hcircumflex.sc" 
d="M471 573h-92l-79 94l-79 -94h-92l129 143h84zM505 0h-80v223h-250v-223h-80v500h80v-203h250v203h80v-500z" />
    <glyph glyph-name="hbar.sc" 
d="M175 297h250v78h-250v-78zM505 0h-80v223h-250v-223h-80v375h-64v64h64v61h80v-61h250v61h80v-61h64v-64h-64v-375z" />
    <glyph glyph-name="dotlessi.sc" 
d="M496 74v-74h-392v74h156v352h-156v74h392v-74h-156v-352h156z" />
    <glyph glyph-name="igrave.sc" 
d="M141 716h103l143 -143h-100zM496 74v-74h-392v74h156v352h-156v74h392v-74h-156v-352h156z" />
    <glyph glyph-name="iacute.sc" 
d="M227 573l143 143h103l-146 -143h-100zM496 74v-74h-392v74h156v352h-156v74h392v-74h-156v-352h156z" />
    <glyph glyph-name="icircumflex.sc" 
d="M471 573h-92l-79 94l-79 -94h-92l129 143h84zM496 74v-74h-392v74h156v352h-156v74h392v-74h-156v-352h156z" />
    <glyph glyph-name="idieresis.sc" 
d="M442 573q-27 0 -46 19.5t-19 46.5q0 28 19 47t46 19q28 0 47 -19t19 -47q0 -27 -19 -46.5t-47 -19.5zM157 573q-27 0 -46 19.5t-19 46.5q0 28 19 47t46 19q28 0 47 -19t19 -47q0 -27 -19 -46.5t-47 -19.5zM496 74v-74h-392v74h156v352h-156v74h392v-74h-156v-352h156z
" />
    <glyph glyph-name="itilde.sc" 
d="M138 583l-46 49q72 78 134 78q46 0 80 -21q55 -32 75 -32q34 0 77 49l50 -45q-56 -75 -130 -75q-42 0 -75 21q-49 31 -73 31q-41 0 -92 -55zM496 74v-74h-392v74h156v352h-156v74h392v-74h-156v-352h156z" />
    <glyph glyph-name="imacron.sc" 
d="M490 606h-380v74h380v-74zM496 74v-74h-392v74h156v352h-156v74h392v-74h-156v-352h156z" />
    <glyph glyph-name="ibreve.sc" 
d="M370 700h67q0 -54 -38 -92q-37 -37 -92 -37q-54 0 -92 37q-38 38 -38 92h67q0 -27 18.5 -45t44.5 -18t44.5 18t18.5 45zM496 74v-74h-392v74h156v352h-156v74h392v-74h-156v-352h156z" />
    <glyph glyph-name="iogonek.sc" 
d="M533 -108l20 -68q-4 -1 -15 -1q-64 0 -103 32.5t-39 79.5q0 43 16 65h-308v74h156v352h-156v74h392v-74h-156v-352h156v-74q-36 -14 -36 -52q0 -24 20.5 -40t52.5 -16z" />
    <glyph glyph-name="Idotaccent.c2sc" 
d="M361 597q-25 -25 -61 -25t-62 25q-25 26 -25 62t25 61q26 26 62 26t61 -26q26 -25 26 -61t-26 -62zM496 74v-74h-392v74h156v352h-156v74h392v-74h-156v-352h156z" />
    <glyph glyph-name="jcircumflex.sc" 
d="M511 573h-92l-79 94l-79 -94h-92l129 143h84zM287 -10q-84 0 -136 50q-51 51 -51 126q0 40 18 75l68 -35q-9 -18 -9 -40q0 -43 32.5 -71t85.5 -28q52 0 84 30t32 81v248h-281v74h361v-309q0 -96 -55.5 -148.5t-148.5 -52.5z" />
    <glyph glyph-name="eth.sc" 
d="M253 -7q-90 0 -136 7v214h-57v74h57v216q52 6 136 6q130 0 209 -64q80 -63 80 -182q0 -133 -76 -202t-213 -69zM260 69q105 0 152 48.5t47 142.5q0 81 -52 128t-148 47q-4 0 -62 -2v-145h154v-74h-154v-143q58 -2 63 -2z" />
    <glyph glyph-name="uni0137.sc" 
d="M578 0h-118l-206 221l-64 -57v-164h-80v500h80v-237l266 237h114l-254 -224zM252 -292l-14 45q63 16 73 61q-61 9 -61 62q0 25 17 42.5t40 17.5q29 0 47 -23.5t18 -62.5q0 -51 -31.5 -88.5t-88.5 -53.5z" />
    <glyph glyph-name="kgreenlandic.sc" 
d="M578 0h-118l-206 221l-64 -57v-164h-80v500h80v-237l266 237h114l-254 -224z" />
    <glyph glyph-name="lacute.sc" 
d="M154 573l143 143h103l-146 -143h-100zM541 0h-375v500h80v-426h295v-74z" />
    <glyph glyph-name="uni013C.sc" 
d="M541 0h-375v500h80v-426h295v-74zM288 -289l-14 45q63 16 73 61q-61 9 -61 62q0 25 17 42.5t40 17.5q29 0 47 -23.5t18 -62.5q0 -51 -31.5 -88.5t-88.5 -53.5z" />
    <glyph glyph-name="lcaron.sc" 
d="M316 390l64 186h83l-69 -186h-78zM541 0h-375v500h80v-426h295v-74z" />
    <glyph glyph-name="ldot.sc" 
d="M459 242q-25 -25 -61 -25t-62 25q-25 26 -25 62t25 61q26 26 62 26t61 -26q26 -25 26 -61t-26 -62zM541 0h-375v500h80v-426h295v-74z" />
    <glyph glyph-name="lslash.sc" 
d="M573 0h-375v192l-108 -45l-28 68l136 56v229h80v-195l141 58l28 -68l-169 -70v-151h295v-74z" />
    <glyph glyph-name="eng.sc" 
d="M309 -200q-89 0 -149 45l32 72q53 -41 115 -41q51 0 85 34t34 83l-253 459v-452h-76v500h143l186 -348v363h77v-512q0 -91 -54 -147t-140 -56z" />
    <glyph glyph-name="ntilde.sc" 
d="M138 583l-46 49q72 78 134 78q46 0 80 -21q55 -32 75 -32q34 0 77 49l50 -45q-56 -75 -130 -75q-42 0 -75 21q-49 31 -73 31q-41 0 -92 -55zM503 0h-130l-200 459v-459h-76v500h143l187 -426v426h76v-500z" />
    <glyph glyph-name="nacute.sc" 
d="M227 573l143 143h103l-146 -143h-100zM503 0h-130l-200 459v-459h-76v500h143l187 -426v426h76v-500z" />
    <glyph glyph-name="uni0146.sc" 
d="M503 0h-130l-200 459v-459h-76v500h143l187 -426v426h76v-500zM245 -289l-14 45q63 16 73 61q-61 9 -61 62q0 25 17 42.5t40 17.5q29 0 47 -23.5t18 -62.5q0 -51 -31.5 -88.5t-88.5 -53.5z" />
    <glyph glyph-name="ncaron.sc" 
d="M470 725l-129 -143h-84l-129 143h92l79 -94l79 94h92zM503 0h-130l-200 459v-459h-76v500h143l187 -426v426h76v-500z" />
    <glyph glyph-name="ograve.sc" 
d="M131 716h103l143 -143h-100zM300 -10q-112 0 -180 72q-68 74 -68 192q0 114 68 185t180 71q111 0 179 -71q69 -71 69 -185q0 -118 -69 -191q-67 -73 -179 -73zM465 254q0 81 -45.5 131t-119.5 50t-119.5 -49.5t-45.5 -131.5q0 -84 45 -137q46 -52 120 -52t119 52
q46 52 46 137z" />
    <glyph glyph-name="oacute.sc" 
d="M227 573l143 143h103l-146 -143h-100zM300 -10q-112 0 -180 72q-68 74 -68 192q0 114 68 185t180 71q111 0 179 -71q69 -71 69 -185q0 -118 -69 -191q-67 -73 -179 -73zM465 254q0 81 -45.5 131t-119.5 50t-119.5 -49.5t-45.5 -131.5q0 -84 45 -137q46 -52 120 -52
t119 52q46 52 46 137z" />
    <glyph glyph-name="ocircumflex.sc" 
d="M471 573h-92l-79 94l-79 -94h-92l129 143h84zM300 -10q-112 0 -180 72q-68 74 -68 192q0 114 68 185t180 71q111 0 179 -71q69 -71 69 -185q0 -118 -69 -191q-67 -73 -179 -73zM465 254q0 81 -45.5 131t-119.5 50t-119.5 -49.5t-45.5 -131.5q0 -84 45 -137
q46 -52 120 -52t119 52q46 52 46 137z" />
    <glyph glyph-name="otilde.sc" 
d="M138 583l-46 49q72 78 134 78q46 0 80 -21q55 -32 75 -32q34 0 77 49l50 -45q-56 -75 -130 -75q-42 0 -75 21q-49 31 -73 31q-41 0 -92 -55zM300 -10q-112 0 -180 72q-68 74 -68 192q0 114 68 185t180 71q111 0 179 -71q69 -71 69 -185q0 -118 -69 -191q-67 -73 -179 -73
zM465 254q0 81 -45.5 131t-119.5 50t-119.5 -49.5t-45.5 -131.5q0 -84 45 -137q46 -52 120 -52t119 52q46 52 46 137z" />
    <glyph glyph-name="odieresis.sc" 
d="M442 573q-27 0 -46 19.5t-19 46.5q0 28 19 47t46 19q28 0 47 -19t19 -47q0 -27 -19 -46.5t-47 -19.5zM157 573q-27 0 -46 19.5t-19 46.5q0 28 19 47t46 19q28 0 47 -19t19 -47q0 -27 -19 -46.5t-47 -19.5zM300 -10q-112 0 -180 72q-68 74 -68 192q0 114 68 185t180 71
q111 0 179 -71q69 -71 69 -185q0 -118 -69 -191q-67 -73 -179 -73zM465 254q0 81 -45.5 131t-119.5 50t-119.5 -49.5t-45.5 -131.5q0 -84 45 -137q46 -52 120 -52t119 52q46 52 46 137z" />
    <glyph glyph-name="oslash.sc" 
d="M299 -10q-93 0 -158 53l-47 -47l-49 49l49 49q-43 65 -43 160q0 114 68 185t180 71q95 0 159 -52l46 46l49 -49l-48 -48q42 -65 42 -153q0 -118 -69 -191q-67 -73 -179 -73zM134 254q0 -57 21 -99l246 246q-41 34 -102 34q-74 0 -119.5 -49.5t-45.5 -131.5zM299 65
q74 0 119 52q46 52 46 137q0 50 -20 92l-246 -246q41 -35 101 -35z" />
    <glyph glyph-name="omacron.sc" 
d="M490 606h-380v74h380v-74zM300 -10q-112 0 -180 72q-68 74 -68 192q0 114 68 185t180 71q111 0 179 -71q69 -71 69 -185q0 -118 -69 -191q-67 -73 -179 -73zM465 254q0 81 -45.5 131t-119.5 50t-119.5 -49.5t-45.5 -131.5q0 -84 45 -137q46 -52 120 -52t119 52
q46 52 46 137z" />
    <glyph glyph-name="obreve.sc" 
d="M370 700h67q0 -54 -38 -92q-37 -37 -92 -37q-54 0 -92 37q-38 38 -38 92h67q0 -27 18.5 -45t44.5 -18t44.5 18t18.5 45zM300 -10q-112 0 -180 72q-68 74 -68 192q0 114 68 185t180 71q111 0 179 -71q69 -71 69 -185q0 -118 -69 -191q-67 -73 -179 -73zM465 254
q0 81 -45.5 131t-119.5 50t-119.5 -49.5t-45.5 -131.5q0 -84 45 -137q46 -52 120 -52t119 52q46 52 46 137z" />
    <glyph glyph-name="ohungarumlaut.sc" 
d="M350 573l121 143h99l-126 -143h-94zM136 573l125 143h99l-130 -143h-94zM300 -10q-112 0 -180 72q-68 74 -68 192q0 114 68 185t180 71q111 0 179 -71q69 -71 69 -185q0 -118 -69 -191q-67 -73 -179 -73zM465 254q0 81 -45.5 131t-119.5 50t-119.5 -49.5t-45.5 -131.5
q0 -84 45 -137q46 -52 120 -52t119 52q46 52 46 137z" />
    <glyph glyph-name="oe.sc" 
d="M250 65q43 0 67 46t24 138q0 186 -91 186t-91 -186q0 -184 91 -184zM588 0h-247v25q-35 -35 -93 -35q-172 0 -172 259q0 129 45 195t127 66q54 0 93 -42v32h243v-74h-168v-135h96v-74h-96v-143h172v-74z" />
    <glyph glyph-name="racute.sc" 
d="M227 573l143 143h103l-146 -143h-100zM356 426h-160v-146h170q30 0 50.5 21.5t20.5 54.5q0 32 -22.5 51t-58.5 19zM544 0h-98l-120 206h-130v-206h-80v500h254q66 0 108 -38.5t42 -100.5q0 -56 -28 -94.5t-79 -53.5z" />
    <glyph glyph-name="uni0157.sc" 
d="M356 426h-160v-146h170q30 0 50.5 21.5t20.5 54.5q0 32 -22.5 51t-58.5 19zM544 0h-98l-120 206h-130v-206h-80v500h254q66 0 108 -38.5t42 -100.5q0 -56 -28 -94.5t-79 -53.5zM258 -289l-14 45q63 16 73 61q-61 9 -61 62q0 25 17 42.5t40 17.5q29 0 47 -23.5t18 -62.5
q0 -51 -31.5 -88.5t-88.5 -53.5z" />
    <glyph glyph-name="rcaron.sc" 
d="M473 725l-129 -143h-84l-129 143h92l79 -94l79 94h92zM356 426h-160v-146h170q30 0 50.5 21.5t20.5 54.5q0 32 -22.5 51t-58.5 19zM544 0h-98l-120 206h-130v-206h-80v500h254q66 0 108 -38.5t42 -100.5q0 -56 -28 -94.5t-79 -53.5z" />
    <glyph glyph-name="sacute.sc" 
d="M227 573l143 143h103l-146 -143h-100zM76 61l58 64q64 -55 185 -55q55 0 88.5 17t33.5 46q0 27 -37 47q-12 7 -56 18l-68 16q-72 18 -118 47q-56 36 -56 102q0 69 58 108t143 39q109 0 197 -68l-56 -61q-61 49 -152 49q-48 0 -76 -15.5t-28 -44.5q0 -30 42 -53
q14 -7 61 -19l72 -16q78 -19 118 -51t40 -90q0 -77 -63 -114q-62 -37 -158 -37q-142 0 -228 71z" />
    <glyph glyph-name="scircumflex.sc" 
d="M481 573h-92l-79 94l-79 -94h-92l129 143h84zM76 61l58 64q64 -55 185 -55q55 0 88.5 17t33.5 46q0 27 -37 47q-12 7 -56 18l-68 16q-72 18 -118 47q-56 36 -56 102q0 69 58 108t143 39q109 0 197 -68l-56 -61q-61 49 -152 49q-48 0 -76 -15.5t-28 -44.5q0 -30 42 -53
q14 -7 61 -19l72 -16q78 -19 118 -51t40 -90q0 -77 -63 -114q-62 -37 -158 -37q-142 0 -228 71z" />
    <glyph glyph-name="scedilla.sc" 
d="M231 -174v66q24 0 44 19.5t20 43.5q0 21 -8 35q-129 4 -211 71l58 64q64 -55 185 -55q55 0 88.5 17t33.5 46q0 27 -37 47q-12 7 -56 18l-68 16q-72 18 -118 47q-56 36 -56 102q0 69 58 108t143 39q109 0 197 -68l-56 -61q-61 49 -152 49q-48 0 -76 -15.5t-28 -44.5
q0 -30 42 -53q14 -7 61 -19l72 -16q78 -19 118 -51t40 -90q0 -63 -45 -100.5t-125 -47.5q6 -18 6 -39q0 -47 -41 -88q-40 -40 -89 -40z" />
    <glyph glyph-name="scaron.sc" 
d="M484 725l-129 -143h-84l-129 143h92l79 -94l79 94h92zM76 61l58 64q64 -55 185 -55q55 0 88.5 17t33.5 46q0 27 -37 47q-12 7 -56 18l-68 16q-72 18 -118 47q-56 36 -56 102q0 69 58 108t143 39q109 0 197 -68l-56 -61q-61 49 -152 49q-48 0 -76 -15.5t-28 -44.5
q0 -30 42 -53q14 -7 61 -19l72 -16q78 -19 118 -51t40 -90q0 -77 -63 -114q-62 -37 -158 -37q-142 0 -228 71z" />
    <glyph glyph-name="uni0219.sc" 
d="M76 61l58 64q64 -55 185 -55q55 0 88.5 17t33.5 46q0 27 -37 47q-12 7 -56 18l-68 16q-72 18 -118 47q-56 36 -56 102q0 69 58 108t143 39q109 0 197 -68l-56 -61q-61 49 -152 49q-48 0 -76 -15.5t-28 -44.5q0 -30 42 -53q14 -7 61 -19l72 -16q78 -19 118 -51t40 -90
q0 -77 -63 -114q-62 -37 -158 -37q-142 0 -228 71zM250 -289l-14 45q63 16 73 61q-61 9 -61 62q0 25 17 42.5t40 17.5q29 0 47 -23.5t18 -62.5q0 -51 -31.5 -88.5t-88.5 -53.5z" />
    <glyph glyph-name="germandbls.sc" 
d="M357 -10q-82 0 -127 22l23 73q38 -20 100 -20q41 0 66.5 23.5t25.5 59.5q0 43 -43.5 67.5t-116.5 24.5v59l103 127h-130q-44 0 -63.5 -25t-19.5 -79v-322h-78v322q0 84 43.5 131t124.5 47h211v-74l-98 -124q69 -8 109 -46t40 -96q0 -76 -46.5 -123t-123.5 -47z" />
    <glyph glyph-name="uni0163.sc" 
d="M551 500v-74h-211v-426h-80v426h-211v74h502zM245 -289l-14 45q63 16 73 61q-61 9 -61 62q0 25 17 42.5t40 17.5q29 0 47 -23.5t18 -62.5q0 -51 -31.5 -88.5t-88.5 -53.5z" />
    <glyph glyph-name="uni021B.sc" 
d="M551 500v-74h-211v-426h-80v426h-211v74h502zM245 -289l-14 45q63 16 73 61q-61 9 -61 62q0 25 17 42.5t40 17.5q29 0 47 -23.5t18 -62.5q0 -51 -31.5 -88.5t-88.5 -53.5z" />
    <glyph glyph-name="tcaron.sc" 
d="M471 725l-129 -143h-84l-129 143h92l79 -94l79 94h92zM551 500v-74h-211v-426h-80v426h-211v74h502z" />
    <glyph glyph-name="tbar.sc" 
d="M499 275v-74h-159v-201h-80v201h-159v74h159v151h-211v74h502v-74h-211v-151h159z" />
    <glyph glyph-name="ugrave.sc" 
d="M151 716h103l143 -143h-100zM423 181v319h80v-316q0 -88 -56 -141t-147 -53q-92 0 -148 53q-55 52 -55 141v316h80v-319q0 -51 33.5 -82t89.5 -31t89.5 31t33.5 82z" />
    <glyph glyph-name="uacute.sc" 
d="M227 573l143 143h103l-146 -143h-100zM423 181v319h80v-316q0 -88 -56 -141t-147 -53q-92 0 -148 53q-55 52 -55 141v316h80v-319q0 -51 33.5 -82t89.5 -31t89.5 31t33.5 82z" />
    <glyph glyph-name="ucircumflex.sc" 
d="M471 573h-92l-79 94l-79 -94h-92l129 143h84zM423 181v319h80v-316q0 -88 -56 -141t-147 -53q-92 0 -148 53q-55 52 -55 141v316h80v-319q0 -51 33.5 -82t89.5 -31t89.5 31t33.5 82z" />
    <glyph glyph-name="udieresis.sc" 
d="M442 573q-27 0 -46 19.5t-19 46.5q0 28 19 47t46 19q28 0 47 -19t19 -47q0 -27 -19 -46.5t-47 -19.5zM157 573q-27 0 -46 19.5t-19 46.5q0 28 19 47t46 19q28 0 47 -19t19 -47q0 -27 -19 -46.5t-47 -19.5zM423 181v319h80v-316q0 -88 -56 -141t-147 -53q-92 0 -148 53
q-55 52 -55 141v316h80v-319q0 -51 33.5 -82t89.5 -31t89.5 31t33.5 82z" />
    <glyph glyph-name="utilde.sc" 
d="M138 583l-46 49q72 78 134 78q46 0 80 -21q55 -32 75 -32q34 0 77 49l50 -45q-56 -75 -130 -75q-42 0 -75 21q-49 31 -73 31q-41 0 -92 -55zM423 181v319h80v-316q0 -88 -56 -141t-147 -53q-92 0 -148 53q-55 52 -55 141v316h80v-319q0 -51 33.5 -82t89.5 -31t89.5 31
t33.5 82z" />
    <glyph glyph-name="umacron.sc" 
d="M490 606h-380v74h380v-74zM423 181v319h80v-316q0 -88 -56 -141t-147 -53q-92 0 -148 53q-55 52 -55 141v316h80v-319q0 -51 33.5 -82t89.5 -31t89.5 31t33.5 82z" />
    <glyph glyph-name="ubreve.sc" 
d="M370 700h67q0 -54 -38 -92q-37 -37 -92 -37q-54 0 -92 37q-38 38 -38 92h67q0 -27 18.5 -45t44.5 -18t44.5 18t18.5 45zM423 181v319h80v-316q0 -88 -56 -141t-147 -53q-92 0 -148 53q-55 52 -55 141v316h80v-319q0 -51 33.5 -82t89.5 -31t89.5 31t33.5 82z" />
    <glyph glyph-name="uring.sc" 
d="M200 639q0 43 31 74q32 32 76 32t75.5 -31t31.5 -75t-32 -76q-31 -31 -75 -31q-45 0 -76 31t-31 76zM255 639q0 -22 15 -37t37 -15t37 15t15 37q0 21 -15 36t-37 15t-37 -15t-15 -36zM423 181v319h80v-316q0 -88 -56 -141t-147 -53q-92 0 -148 53q-55 52 -55 141v316h80
v-319q0 -51 33.5 -82t89.5 -31t89.5 31t33.5 82z" />
    <glyph glyph-name="uhungarumlaut.sc" 
d="M350 573l121 143h99l-126 -143h-94zM136 573l125 143h99l-130 -143h-94zM423 181v319h80v-316q0 -88 -56 -141t-147 -53q-92 0 -148 53q-55 52 -55 141v316h80v-319q0 -51 33.5 -82t89.5 -31t89.5 31t33.5 82z" />
    <glyph glyph-name="uogonek.sc" 
d="M413 -177q-64 0 -103 32.5t-39 79.5q0 34 11 56q-84 5 -134.5 57.5t-50.5 135.5v316h80v-319q0 -51 33.5 -82t89.5 -31t89.5 31t33.5 82v319h80v-316q0 -69 -35.5 -118t-98.5 -67q-34 -13 -34 -51q0 -24 20.5 -40t52.5 -16l20 -68q-4 -1 -15 -1z" />
    <glyph glyph-name="wcircumflex.sc" 
d="M471 573h-92l-79 94l-79 -94h-92l129 143h84zM489 0h-128l-62 304l-62 -304h-128l-62 500h75l54 -452l67 307h114l69 -308l53 453h73z" />
    <glyph glyph-name="yacute.sc" 
d="M227 573l143 143h103l-146 -143h-100zM556 500l-216 -290v-210h-80v210l-216 290h102l157 -215l157 215h96z" />
    <glyph glyph-name="ycircumflex.sc" 
d="M471 573h-92l-79 94l-79 -94h-92l129 143h84zM556 500l-216 -290v-210h-80v210l-216 290h102l157 -215l157 215h96z" />
    <glyph glyph-name="ydieresis.sc" 
d="M442 573q-27 0 -46 19.5t-19 46.5q0 28 19 47t46 19q28 0 47 -19t19 -47q0 -27 -19 -46.5t-47 -19.5zM157 573q-27 0 -46 19.5t-19 46.5q0 28 19 47t46 19q28 0 47 -19t19 -47q0 -27 -19 -46.5t-47 -19.5zM556 500l-216 -290v-210h-80v210l-216 290h102l157 -215l157 215
h96z" />
    <glyph glyph-name="thorn.sc" 
d="M369 335h-154v-169h153q39 0 68 25.5t29 61.5q0 37 -27 59.5t-69 22.5zM347 92h-132v-92h-80v500h80v-91h177q67 0 110 -41.5t43 -109.5q0 -83 -58 -125q-58 -41 -140 -41z" />
    <glyph glyph-name="zacute.sc" 
d="M227 573l143 143h103l-146 -143h-100zM76 0v74l331 352h-301v74h404v-74l-328 -352h334v-74h-440z" />
    <glyph glyph-name="zdotaccent.sc" 
d="M371 597q-25 -25 -61 -25t-62 25q-25 26 -25 62t25 61q26 26 62 26t61 -26q26 -25 26 -61t-26 -62zM76 0v74l331 352h-301v74h404v-74l-328 -352h334v-74h-440z" />
    <glyph glyph-name="zcaron.sc" 
d="M481 725l-129 -143h-84l-129 143h92l79 -94l79 94h92zM76 0v74l331 352h-301v74h404v-74l-328 -352h334v-74h-440z" />
    <glyph glyph-name="ij.sc" 
d="M175 208h-80v292h80v-292zM425 208v292h80v-279q0 -114 -60 -172.5t-168 -58.5q-114 0 -171 75l65 51q37 -49 115 -49q64 0 101.5 37.5t37.5 103.5z" />
    <glyph glyph-name="ampersand.c2sc" 
d="M457 -10q-58 0 -120 46q-55 -46 -132 -46q-68 0 -121 35q-51 36 -51 104q0 52 30 83t90 51q-25 57 -25 104q0 67 40 104q40 39 100 39t100 -33q42 -33 42 -95q0 -61 -44 -96q-40 -32 -118 -59q35 -54 85 -99q0 1 4 6.5t8.5 12t6.5 9.5q1 2 9 15t13 23q20 34 24 40
q46 68 92 63q30 0 53 -16l-36 -64q-27 14 -51 -18l-15 -22l-35 -59q-9 -15 -21 -30q43 -26 70 -26q54 0 54 96l66 -25q0 -70 -32.5 -106.5t-85.5 -36.5zM199 360q0 -34 18 -78q22 6 62 19q24 10 41.5 29.5t17.5 43.5q0 30 -19 48.5t-49 18.5q-33 0 -52 -22.5t-19 -58.5z
M210 62q41 0 72 19q-58 55 -100 125q-71 -29 -71 -74q0 -33 26.5 -51.5t72.5 -18.5z" />
    <glyph glyph-name="alpha.sc" 
d="M217 201h159l-82 221zM532 0h-81l-47 127h-213l-44 -127h-79l183 500h98z" />
    <glyph glyph-name="beta.sc" 
d="M338 431h-142v-141h141q33 0 54 20.5t21 51.5q0 32 -20 50.5t-54 18.5zM350 222h-154v-153h143q45 0 73 19.5t28 58.5q0 37 -24.5 56t-65.5 19zM357 0h-241v500h238q61 0 101 -35t40 -91q0 -76 -65 -114q93 -30 93 -114q0 -68 -45.5 -107t-120.5 -39z" />
    <glyph glyph-name="gamma.sc" 
d="M541 500v-74h-296v-426h-80v500h376z" />
    <glyph glyph-name="delta.sc" 
d="M173 74h248l-124 350zM532 0h-464l183 500h98z" />
    <glyph glyph-name="epsilon.sc" 
d="M523 0h-380v500h376v-74h-296v-135h224v-74h-224v-143h300v-74z" />
    <glyph glyph-name="zeta.sc" 
d="M76 0v74l331 352h-301v74h404v-74l-328 -352h334v-74h-440z" />
    <glyph glyph-name="eta.sc" 
d="M505 0h-80v223h-250v-223h-80v500h80v-203h250v203h80v-500z" />
    <glyph glyph-name="theta.sc" 
d="M300 -10q-112 0 -180 72q-68 74 -68 192q0 114 68 185t180 71q111 0 179 -71q69 -71 69 -185q0 -118 -69 -191q-67 -73 -179 -73zM465 254q0 81 -45.5 131t-119.5 50t-119.5 -49.5t-45.5 -131.5q0 -84 45 -137q46 -52 120 -52t119 52q46 52 46 137zM410 215h-220v74h220
v-74z" />
    <glyph glyph-name="iota.sc" 
d="M496 74v-74h-392v74h156v352h-156v74h392v-74h-156v-352h156z" />
    <glyph glyph-name="kappa.sc" 
d="M578 0h-118l-206 221l-64 -57v-164h-80v500h80v-237l266 237h114l-254 -224z" />
    <glyph glyph-name="lambda.sc" 
d="M532 0h-84l-151 427l-151 -427h-78l183 500h98z" />
    <glyph glyph-name="uni03BC.sc" 
d="M360 145h-124l-100 314v-459h-72v500h142l96 -308l93 308h141v-500h-72v458z" />
    <glyph glyph-name="nu.sc" 
d="M503 0h-130l-200 459v-459h-76v500h143l187 -426v426h76v-500z" />
    <glyph glyph-name="xi.sc" 
d="M102 500h396v-78h-396v78zM138 293h324v-78h-324v78zM100 78h400v-78h-400v78z" />
    <glyph glyph-name="omicron.sc" 
d="M300 -10q-112 0 -180 72q-68 74 -68 192q0 114 68 185t180 71q111 0 179 -71q69 -71 69 -185q0 -118 -69 -191q-67 -73 -179 -73zM465 254q0 81 -45.5 131t-119.5 50t-119.5 -49.5t-45.5 -131.5q0 -84 45 -137q46 -52 120 -52t119 52q46 52 46 137z" />
    <glyph glyph-name="pi.sc" 
d="M505 0h-80v426h-250v-426h-80v500h410v-500z" />
    <glyph glyph-name="rho.sc" 
d="M369 426h-161v-179h160q43 0 67.5 24t24.5 68q0 39 -25.5 63t-65.5 24zM384 173h-176v-173h-80v500h259q68 0 112 -44t44 -112q0 -78 -47 -125q-46 -46 -112 -46z" />
    <glyph glyph-name="sigma1.sc" 
d="M508 74v-74h-377v74l165 184l-165 168v74h373v-74h-262l156 -156l-173 -196h283z" />
    <glyph glyph-name="tau.sc" 
d="M551 500v-74h-211v-426h-80v426h-211v74h502z" />
    <glyph glyph-name="upsilon.sc" 
d="M556 500l-216 -290v-210h-80v210l-216 290h102l157 -215l157 215h96z" />
    <glyph glyph-name="phi.sc" 
d="M340 57v-57h-80v57q-94 10 -150 63t-56 134q0 78 56 129t150 60v57h80v-57q94 -9 150 -60t56 -129q0 -81 -56 -134t-150 -63zM127 254q0 -52 36 -87t97 -44v254q-61 -8 -97 -41t-36 -82zM473 254q0 49 -36 82t-97 41v-254q61 9 97 44t36 87z" />
    <glyph glyph-name="chi.sc" 
d="M555 0h-100l-167 209l-158 -209h-90l201 269l-185 231h96l148 -183l143 183h87l-184 -241z" />
    <glyph glyph-name="psi.sc" 
d="M335 57v-57h-70v57q-77 11 -122.5 62.5t-45.5 129.5v251h70v-264q0 -43 26.5 -72.5t71.5 -37.5v374h70v-374q45 8 71.5 37.5t26.5 72.5v264h70v-251q0 -78 -45.5 -129.5t-122.5 -62.5z" />
    <glyph glyph-name="omega.sc" 
d="M257 74l-20 -74h-164v74h98q-98 86 -98 206q0 101 62 166q63 64 165 64q103 0 164 -64q63 -64 63 -166q0 -121 -97 -206h97v-74h-164l-20 74q101 86 101 206q0 69 -40 112t-104 43q-65 0 -104.5 -43t-39.5 -112q0 -128 101 -206z" />
    <glyph glyph-name="alphatonos.sc" 
d="M48 314l64 186h83l-69 -186h-78zM259 201h159l-82 221zM574 0h-81l-47 127h-213l-44 -127h-79l183 500h98z" />
    <glyph glyph-name="epsilontonos.sc" 
d="M8 314l64 186h83l-69 -186h-78zM553 0h-350v500h346v-74h-266v-135h194v-74h-194v-143h270v-74z" />
    <glyph glyph-name="etatonos.sc" 
d="M8 314l64 186h83l-69 -186h-78zM550 0h-80v223h-210v-223h-80v500h80v-203h210v203h80v-500z" />
    <glyph glyph-name="iotadieresis.sc" 
d="M442 553q-27 0 -46 19.5t-19 46.5q0 28 19 47t46 19q28 0 47 -19t19 -47q0 -27 -19 -46.5t-47 -19.5zM157 553q-27 0 -46 19.5t-19 46.5q0 28 19 47t46 19q28 0 47 -19t19 -47q0 -27 -19 -46.5t-47 -19.5zM496 74v-74h-392v74h156v352h-156v74h392v-74h-156v-352h156z
" />
    <glyph glyph-name="iotatonos.sc" 
d="M8 314l64 186h83l-69 -186h-78zM556 74v-74h-352v74h136v352h-136v74h352v-74h-136v-352h136z" />
    <glyph glyph-name="omegatonos.sc" 
d="M8 314l64 186h83l-69 -186h-78zM327 74l-20 -74h-164v74h98q-98 86 -98 206q0 102 58 166t154 64q95 0 153 -64q59 -65 59 -166q0 -121 -97 -206h97v-74h-164l-20 74q101 86 101 206q0 69 -35.5 112t-93.5 43t-93.5 -43t-35.5 -112q0 -128 101 -206z" />
    <glyph glyph-name="omicrontonos.sc" 
d="M357 -10q-97 0 -155 72q-58 73 -58 192q0 115 58 185q59 71 155 71q95 0 154 -71t59 -185q0 -117 -59 -191q-58 -73 -154 -73zM8 314l64 186h83l-69 -186h-78zM487 254q0 81 -36 131t-94 50q-59 0 -94.5 -49.5t-35.5 -131.5q0 -85 36 -137t94 -52t94 52t36 137z" />
    <glyph glyph-name="upsilondieresis.sc" 
d="M442 553q-27 0 -46 19.5t-19 46.5q0 28 19 47t46 19q28 0 47 -19t19 -47q0 -27 -19 -46.5t-47 -19.5zM157 553q-27 0 -46 19.5t-19 46.5q0 28 19 47t46 19q28 0 47 -19t19 -47q0 -27 -19 -46.5t-47 -19.5zM556 500l-216 -290v-210h-80v210l-216 290h102l157 -215l157 215
h96z" />
    <glyph glyph-name="upsilontonos.sc" 
d="M8 314l64 186h83l-69 -186h-78zM566 500l-146 -290v-210h-80v210l-146 290h96l93 -207l93 207h90z" />
    <glyph glyph-name="uni0414.locl" 
d="M183 74h227l-110 527zM486 -120v120h-373v-120h-77v194h70l131 576h132l124 -576h70v-194h-77z" />
    <glyph glyph-name="uni0418.locl" 
d="M517 0h-77v595l-234 -595h-123v650h77v-562l221 562h136v-650z" />
    <glyph glyph-name="uni0419.locl" 
d="M368 850h67q0 -54 -38 -92q-37 -37 -92 -37q-54 0 -92 37q-38 38 -38 92h67q0 -27 18.5 -45t44.5 -18t44.5 18t18.5 45zM517 0h-77v595l-234 -595h-123v650h77v-562l221 562h136v-650z" />
    <glyph glyph-name="uni041B.locl" 
d="M592 0h-87l-168 588l-168 -588h-83l188 650h132z" />
    <glyph glyph-name="uni0424.locl" 
d="M340 -2v-78h-80v78q-101 15 -161 99t-60 212q0 125 60 207t161 96v68h80v-68q101 -14 161 -96t60 -207q0 -128 -60 -212t-161 -99zM122 309q0 -93 37.5 -155.5t100.5 -78.5v460q-63 -15 -100.5 -75.5t-37.5 -150.5zM478 309q0 90 -37.5 150.5t-100.5 75.5v-460
q63 16 100.5 78.5t37.5 155.5z" />
    <glyph glyph-name="uni0432.locl" 
d="M183 473v-96h120q53 0 83 33t30 90q0 51 -28 80t-77 29q-57 0 -92.5 -38t-35.5 -98zM103 72v403q0 88 59 147q58 58 153 58q85 0 136.5 -46.5t51.5 -123.5q0 -118 -99 -158q63 -14 100.5 -58.5t37.5 -108.5q0 -90 -63 -143q-62 -52 -166 -52q-63 0 -119.5 21t-90.5 61z
M183 305v-199q47 -44 134 -44q62 0 100 34t38 89q0 54 -38.5 87t-104.5 33h-129z" />
    <glyph glyph-name="uni0433.locl" 
d="M146 361l-44 59q92 71 215 71q74 0 127 -35q52 -34 52 -95q0 -65 -40 -99.5t-120 -46.5q-100 -14 -131 -33q-31 -18 -31 -45q0 -69 107 -69q114 0 179 56l57 -58q-79 -75 -237 -75q-93 0 -143 37t-50 105q0 60 40 94.5t128 49.5q92 17 122 30q31 13 31 43q0 63 -107 63
q-90 0 -155 -52z" />
    <glyph glyph-name="uni0434.locl" 
d="M384 372q-37 46 -93 46q-55 0 -93 -45q-38 -46 -38 -118t38 -118q38 -45 93 -45t93 45q38 47 38 118t-38 117zM263 -200q-115 0 -178 72l48 59q51 -59 139 -59q142 0 142 214q-56 -66 -142 -66q-84 0 -139 63q-55 64 -55 172q0 109 55 171q55 64 139 64q87 0 141 -66
q-1 13 -1 56h80q-1 -43 -1 -190v-202q0 -288 -228 -288z" />
    <glyph glyph-name="uni0436.locl" 
d="M337 0h-74v204h-34l-120 -204h-87l146 239l-143 241h87l116 -202h35v57q0 287 -1 335h76q-1 -48 -1 -392h35l119 202h87l-146 -239l143 -241h-87l-117 204h-34v-204z" />
    <glyph glyph-name="uni0437.locl" 
d="M275 -200q-73 0 -139 32q-65 32 -98 84l69 50q24 -40 73 -64.5t105 -24.5q65 0 105 34t40 89q0 53 -42 85.5t-111 32.5h-88v68h85q58 0 93 31t35 83t-35 83t-93 31q-43 0 -82.5 -20t-60.5 -52l-52 54q28 43 84.5 68.5t121.5 25.5q90 0 145 -49t55 -129q0 -110 -90 -157
q55 -19 86.5 -60.5t31.5 -98.5q0 -88 -66 -142q-65 -54 -172 -54z" />
    <glyph glyph-name="uni0438.locl" 
d="M502 0h-81q0 30 3 59q-56 -69 -147 -69q-75 0 -128 50q-51 51 -51 133v307h82v-295q0 -59 30.5 -91t81.5 -32q54 0 91 34q39 34 39 89v295h80q-1 -48 -1 -240t1 -240z" />
    <glyph glyph-name="uni0439.locl" 
d="M357 680h67q0 -54 -38 -92q-37 -37 -92 -37q-54 0 -92 37q-38 38 -38 92h67q0 -27 18.5 -45t44.5 -18t44.5 18t18.5 45zM502 0h-81q0 30 3 59q-56 -69 -147 -69q-75 0 -128 50q-51 51 -51 133v307h82v-295q0 -59 30.5 -91t81.5 -32q54 0 91 34q39 34 39 89v295h80
q-1 -48 -1 -240t1 -240z" />
    <glyph glyph-name="uni043A.locl" 
d="M572 0h-112l-187 204h-87q0 -157 1 -204h-80q1 48 1 335t-1 335h80q-1 -48 -1 -392h89l181 202h100l-209 -233z" />
    <glyph glyph-name="uni043B.locl" 
d="M552 1h-89l-163 377l-165 -377h-84l213 480h75z" />
    <glyph glyph-name="uni043D.locl" 
d="M505 0h-80v208h-252v-208h-80v480h80v-198h252v198h80v-480z" />
    <glyph glyph-name="uni043F.locl" 
d="M173 290v-290h-80q1 48 1 240t-1 240h80q0 -35 -2 -63q54 73 152 73q77 0 129 -52q53 -53 53 -136v-302h-80v290q0 61 -32 94.5t-85 33.5q-54 0 -95 -36q-40 -34 -40 -92z" />
    <glyph glyph-name="uni0442.locl" 
d="M140 290v-290h-75q1 48 1 240t-1 240h75q0 -30 -1 -39q37 49 90 49q32 0 57.5 -18.5t38.5 -51.5q37 70 103 70q46 0 76 -38t30 -100v-352h-74v346q0 35 -13.5 53.5t-37.5 18.5q-33 0 -52.5 -34.5t-19.5 -93.5v-290h-74v346q0 35 -14.5 53.5t-38.5 18.5q-32 0 -51 -34.5
t-19 -93.5z" />
    <glyph glyph-name="uni0446.locl" 
d="M571 62v-162h-77v90q-32 1 -52 18t-24 42q-1 3 -1 10q-52 -70 -147 -70q-75 0 -128 50q-51 51 -51 133v307h82v-295q0 -59 30.5 -91t81.5 -32q54 0 91 34q39 34 39 89v295h80v-387q0 -31 43 -31h33z" />
    <glyph glyph-name="uni0447.locl" 
d="M477 480v-480h-80v191q-53 -17 -113 -17q-91 0 -152 44q-60 44 -60 138v124h83v-119q0 -112 141 -112q59 0 101 15v216h80z" />
    <glyph glyph-name="uni0448.locl" 
d="M577 0h-75q0 30 1 39q-37 -49 -90 -49q-32 0 -57.5 18.5t-38.5 51.5q-37 -70 -103 -70q-46 0 -76 38t-30 100v352h74v-346q0 -35 13.5 -53.5t37.5 -18.5q33 0 52.5 34.5t19.5 93.5v290h74v-346q0 -35 14.5 -53.5t38.5 -18.5q32 0 51 34.5t19 93.5v290h75q-1 -48 -1 -240
t1 -240z" />
    <glyph glyph-name="uni0449.locl" 
d="M599 62v-162h-77v90q-56 3 -69 54q-35 -54 -93 -54q-32 0 -57.5 18.5t-38.5 51.5q-37 -70 -103 -70q-46 0 -76 38t-30 100v352h74v-346q0 -35 13.5 -53.5t37.5 -18.5q33 0 52.5 34.5t19.5 93.5v290h74v-346q0 -35 14.5 -53.5t38.5 -18.5q32 0 51 34.5t19 93.5v290h74
v-387q0 -31 43 -31h33z" />
    <glyph glyph-name="uni044A.locl" 
d="M575 154q0 -78 -57 -121q-56 -43 -145 -43q-154 0 -221 82v334h-130v74h210v-189q72 20 137 20q91 0 148 -42q58 -40 58 -115zM371 62q58 0 89.5 23.5t31.5 68.5q0 39 -35.5 63.5t-94.5 24.5q-79 0 -130 -19v-117q47 -44 139 -44z" />
    <glyph glyph-name="uni044C.locl" 
d="M345 -10q-154 0 -221 82v408h80v-189q72 20 137 20q91 0 148 -42q58 -40 58 -115q0 -78 -57 -121q-56 -43 -145 -43zM343 62q58 0 89.5 23.5t31.5 68.5q0 39 -35.5 63.5t-94.5 24.5q-79 0 -130 -19v-117q47 -44 139 -44z" />
    <glyph glyph-name="uni044E.locl" 
d="M384 -10q-65 0 -106.5 58t-46.5 165h-92v-213h-74v670h74v-383h93q8 97 49 150t103 53q70 0 112.5 -65.5t42.5 -184.5t-42.5 -184.5t-112.5 -65.5zM385 69q33 0 52.5 44t19.5 127t-19.5 127t-52.5 44q-34 0 -53.5 -44t-19.5 -127t19.5 -127t53.5 -44z" />
    <glyph glyph-name="uni0430.sc" 
d="M217 201h159l-82 221zM532 0h-81l-47 127h-213l-44 -127h-79l183 500h98z" />
    <glyph glyph-name="uni0431.sc" 
d="M347 250h-137v-181h151q45 0 72.5 22t27.5 68q0 45 -30.5 68t-83.5 23zM379 0h-249v500h363v-74h-283v-107h150q77 0 130 -38q54 -37 54 -117q0 -79 -44.5 -121.5t-120.5 -42.5z" />
    <glyph glyph-name="uni0432.sc" 
d="M338 431h-142v-141h141q33 0 54 20.5t21 51.5q0 32 -20 50.5t-54 18.5zM350 222h-154v-153h143q45 0 73 19.5t28 58.5q0 37 -24.5 56t-65.5 19zM357 0h-241v500h238q61 0 101 -35t40 -91q0 -76 -65 -114q93 -30 93 -114q0 -68 -45.5 -107t-120.5 -39z" />
    <glyph glyph-name="uni0433.sc" 
d="M573 500v-74h-297v-426h-80v500h377z" />
    <glyph glyph-name="uni0434.sc" 
d="M174 74h223v352h-170q-1 -151 -13 -237q-11 -78 -40 -115zM477 500v-426h72v-194h-72v120h-350v-120h-72v194q28 13 37 20q28 19 42 77q5 26 8 75q4 47 4 105q1 35 1 149h330z" />
    <glyph glyph-name="uni0435.sc" 
d="M523 0h-380v500h376v-74h-296v-135h224v-74h-224v-143h300v-74z" />
    <glyph glyph-name="uni0451.sc" 
d="M472 573q-27 0 -46 19.5t-19 46.5q0 28 19 47t46 19q28 0 47 -19t19 -47q0 -27 -19 -46.5t-47 -19.5zM187 573q-27 0 -46 19.5t-19 46.5q0 28 19 47t46 19q28 0 47 -19t19 -47q0 -27 -19 -46.5t-47 -19.5zM523 0h-380v500h376v-74h-296v-135h224v-74h-224v-143h300v-74z
" />
    <glyph glyph-name="uni0436.sc" 
d="M336 0h-72v230h-24l-115 -230h-80l136 268l-138 232h78l115 -196h28v196h72v-196h28l115 196h78l-138 -232l136 -268h-80l-115 230h-24v-230z" />
    <glyph glyph-name="uni0437.sc" 
d="M314 -10q-161 0 -232 116l64 48q50 -87 168 -87q61 0 96.5 20t35.5 59q0 34 -28 55t-73 21h-112v68h107q34 0 56 19t22 51q0 33 -31.5 53.5t-82.5 20.5q-84 0 -129 -72l-52 54q67 94 192 94q83 0 134.5 -38.5t51.5 -102.5q0 -30 -18.5 -59.5t-48.5 -46.5q45 -14 70 -45
t25 -73q0 -73 -58.5 -114t-156.5 -41z" />
    <glyph glyph-name="uni0438.sc" 
d="M503 0h-77v467l-202 -467h-127v500h77v-434l189 434h140v-500z" />
    <glyph glyph-name="uni0439.sc" 
d="M370 700h67q0 -54 -38 -92q-37 -37 -92 -37q-54 0 -92 37q-38 38 -38 92h67q0 -27 18.5 -45t44.5 -18t44.5 18t18.5 45zM503 0h-77v467l-202 -467h-127v500h77v-434l189 434h140v-500z" />
    <glyph glyph-name="uni043A.sc" 
d="M570 0h-102l-204 230h-77v-230h-80v500h80v-196h80l191 196h98l-219 -232z" />
    <glyph glyph-name="uni043B.sc" 
d="M514 0h-80v426h-176q-1 -168 -14 -253q-11 -80 -41 -121q-30 -40 -97 -67l-34 77q28 14 38.5 20.5t23.5 21.5t21 38q16 56 19 125l3 99q1 34 1 134h336v-500z" />
    <glyph glyph-name="uni043C.sc" 
d="M360 145h-124l-100 314v-459h-72v500h142l96 -308l93 308h141v-500h-72v458z" />
    <glyph glyph-name="uni043D.sc" 
d="M505 0h-80v223h-250v-223h-80v500h80v-203h250v203h80v-500z" />
    <glyph glyph-name="uni043E.sc" 
d="M300 -10q-112 0 -180 72q-68 74 -68 192q0 114 68 185t180 71q111 0 179 -71q69 -71 69 -185q0 -118 -69 -191q-67 -73 -179 -73zM465 254q0 81 -45.5 131t-119.5 50t-119.5 -49.5t-45.5 -131.5q0 -84 45 -137q46 -52 120 -52t119 52q46 52 46 137z" />
    <glyph glyph-name="uni043F.sc" 
d="M503 0h-80v426h-246v-426h-80v500h406v-500z" />
    <glyph glyph-name="uni0440.sc" 
d="M369 426h-161v-179h160q43 0 67.5 24t24.5 68q0 39 -25.5 63t-65.5 24zM384 173h-176v-173h-80v500h259q68 0 112 -44t44 -112q0 -78 -47 -125q-46 -46 -112 -46z" />
    <glyph glyph-name="uni0441.sc" 
d="M478 176l71 -32q-26 -72 -86.5 -113t-142.5 -41q-112 0 -180 72q-68 74 -68 192q0 114 68 185t180 71q91 0 154.5 -48t84.5 -131l-74 -26q-13 59 -57 94t-108 35q-75 0 -120.5 -49.5t-45.5 -130.5q0 -84 45.5 -136t120.5 -52q57 0 99 29t59 81z" />
    <glyph glyph-name="uni0442.sc" 
d="M551 500v-74h-211v-426h-80v426h-211v74h502z" />
    <glyph glyph-name="uni0443.sc" 
d="M208 -10q-79 0 -111 56l61 39q18 -25 50 -25q45 0 73 55l-203 385h89l155 -304l155 304h84l-201 -395q-58 -114 -152 -115z" />
    <glyph glyph-name="uni0444.sc" 
d="M340 66v-66h-80v66q-98 8 -152.5 57.5t-54.5 130.5q0 78 54 125t153 55v66h80v-66q99 -8 153 -55t54 -125q0 -81 -54.5 -130.5t-152.5 -57.5zM474 254q0 48 -35 77t-99 37v-236q64 8 99 39.5t35 82.5zM126 254q0 -51 35 -82.5t99 -39.5v236q-64 -8 -99 -37t-35 -77z" />
    <glyph glyph-name="uni0445.sc" 
d="M555 0h-100l-167 209l-158 -209h-90l201 269l-185 231h96l148 -183l143 183h87l-184 -241z" />
    <glyph glyph-name="uni0446.sc" 
d="M494 500v-426h72v-194h-72v120h-406v500h80v-426h246v426h80z" />
    <glyph glyph-name="uni0447.sc" 
d="M492 500v-500h-80v225q-63 -26 -128 -26q-88 0 -147 44q-57 43 -57 138v119h83v-114q0 -112 133 -112q67 0 116 25v201h80z" />
    <glyph glyph-name="uni0448.sc" 
d="M536 0h-472v500h72v-426h127v426h72v-426h129v426h72v-500z" />
    <glyph glyph-name="uni0449.sc" 
d="M526 500v-426h72v-194h-72v120h-472v500h72v-426h127v426h72v-426h129v426h72z" />
    <glyph glyph-name="uni044A.sc" 
d="M347 250h-137v-181h151q45 0 72.5 22t27.5 68q0 45 -30.5 68t-83.5 23zM379 0h-249v426h-131v74h211v-181h150q77 0 130 -38q54 -37 54 -117q0 -79 -44.5 -121.5t-120.5 -42.5z" />
    <glyph glyph-name="uni044B.sc" 
d="M526 0h-80v500h80v-500zM189 235h-35v-166h49q100 0 100 85q0 39 -31 60t-83 21zM221 0h-147v500h80v-196h48q74 0 129 -38q55 -37 55 -107q0 -77 -44.5 -118t-120.5 -41z" />
    <glyph glyph-name="uni044C.sc" 
d="M347 250h-137v-181h151q45 0 72.5 22t27.5 68q0 45 -30.5 68t-83.5 23zM379 0h-249v500h80v-181h150q77 0 130 -38q54 -37 54 -117q0 -79 -44.5 -121.5t-120.5 -42.5z" />
    <glyph glyph-name="uni044D.sc" 
d="M332 -9q-91 0 -154.5 48t-84.5 131l74 26q13 -59 57 -94t108 -35q67 0 111 40t53 108h-266v74h265q-11 67 -54.5 106.5t-108.5 39.5q-57 0 -99 -29t-59 -81l-71 32q26 72 86.5 113t142.5 41q113 0 180 -73q68 -73 68 -191q0 -115 -68 -186q-67 -70 -180 -70z" />
    <glyph glyph-name="uni044E.sc" 
d="M393 -10q-161 0 -168 235h-76v-225h-80v500h80v-201h78q15 211 166 211q174 0 174 -261q0 -259 -174 -259zM393 67q91 0 91 182q0 184 -91 184q-85 0 -85 -184q0 -182 85 -182z" />
    <glyph glyph-name="uni044F.sc" 
d="M331 250h137v181h-151q-45 0 -72.5 -22t-27.5 -68q0 -45 30.5 -68t83.5 -23zM468 181h-150q-4 0 -34 2l-96 -183h-85l111 202q-80 41 -80 134q0 79 44.5 121.5t120.5 42.5h249v-500h-80v181z" />
    <glyph glyph-name="uni0491.sc" 
d="M573 608v-182h-297v-426h-80v500h305v108h72z" />
    <glyph glyph-name="uni0452.sc" 
d="M541 179q0 -75 -47 -130t-138 -59v80q105 16 105 102q0 42 -30.5 66.5t-79.5 24.5q-55 0 -95 -36q-39 -35 -39 -92v-135h-80q1 37 1 260v166h-113v74h304v-74h-112v-101q0 -33 -2 -63q54 73 152 73q73 0 123 -44q51 -43 51 -112z" />
    <glyph glyph-name="uni0453.sc" 
d="M297 573l143 143h103l-146 -143h-100zM573 500v-74h-297v-426h-80v500h377z" />
    <glyph glyph-name="uni0454.sc" 
d="M480 177l71 -32q-26 -72 -86.5 -113t-142.5 -41q-112 0 -180 72q-68 74 -68 192q0 114 68 185t180 71q91 0 154.5 -48t84.5 -131l-74 -26q-13 59 -57 94t-108 35q-67 0 -111 -40t-53 -108h266v-74h-265q11 -67 54.5 -106.5t108.5 -39.5q57 0 99 29t59 81z" />
    <glyph glyph-name="uni0455.sc" 
d="M76 61l58 64q64 -55 185 -55q55 0 88.5 17t33.5 46q0 27 -37 47q-12 7 -56 18l-68 16q-72 18 -118 47q-56 36 -56 102q0 69 58 108t143 39q109 0 197 -68l-56 -61q-61 49 -152 49q-48 0 -76 -15.5t-28 -44.5q0 -30 42 -53q14 -7 61 -19l72 -16q78 -19 118 -51t40 -90
q0 -77 -63 -114q-62 -37 -158 -37q-142 0 -228 71z" />
    <glyph glyph-name="uni0456.sc" 
d="M496 74v-74h-392v74h156v352h-156v74h392v-74h-156v-352h156z" />
    <glyph glyph-name="uni0457.sc" 
d="M442 573q-27 0 -46 19.5t-19 46.5q0 28 19 47t46 19q28 0 47 -19t19 -47q0 -27 -19 -46.5t-47 -19.5zM157 573q-27 0 -46 19.5t-19 46.5q0 28 19 47t46 19q28 0 47 -19t19 -47q0 -27 -19 -46.5t-47 -19.5zM496 74v-74h-392v74h156v352h-156v74h392v-74h-156v-352h156z
" />
    <glyph glyph-name="uni0458.sc" 
d="M287 -10q-84 0 -136 50q-51 51 -51 126q0 40 18 75l68 -35q-9 -18 -9 -40q0 -43 32.5 -71t85.5 -28q52 0 84 30t32 81v248h-281v74h361v-309q0 -96 -55.5 -148.5t-148.5 -52.5z" />
    <glyph glyph-name="uni0459.sc" 
d="M416 0h-108v426h-95q-1 -110 -12 -189q-9 -78 -41 -150q-31 -70 -84 -94l-32 77q62 32 79 168q9 79 10 123q3 55 3 139h252v-201h38q64 0 111 -38t47 -102q0 -73 -45.5 -116t-122.5 -43zM416 230h-28v-161h31q36 0 59 22.5t23 62.5q0 33 -24.5 54.5t-60.5 21.5z" />
    <glyph glyph-name="uni045A.sc" 
d="M410 230h-35v-161h38q36 0 59 22.5t23 62.5q0 33 -24.5 54.5t-60.5 21.5zM410 0h-115v230h-133v-230h-80v500h80v-196h133v196h80v-201h45q64 0 111 -38t47 -102q0 -73 -45.5 -116t-122.5 -43z" />
    <glyph glyph-name="uni045B.sc" 
d="M207 135v-135h-80q1 37 1 260v166h-125v74h330v-74h-126v-101q0 -35 -2 -61q53 71 146 71q69 0 116 -42q46 -42 46 -111v-182h-82v170q0 45 -26.5 69t-72.5 24q-50 0 -88 -36q-37 -34 -37 -92z" />
    <glyph glyph-name="uni045C.sc" 
d="M247 573l143 143h103l-146 -143h-100zM570 0h-102l-204 230h-77v-230h-80v500h80v-196h80l191 196h98l-219 -232z" />
    <glyph glyph-name="uni045E.sc" 
d="M370 700h67q0 -54 -38 -92q-37 -37 -92 -37q-54 0 -92 37q-38 38 -38 92h67q0 -27 18.5 -45t44.5 -18t44.5 18t18.5 45zM208 -10q-79 0 -111 56l61 39q18 -25 50 -25q45 0 73 55l-203 385h89l155 -304l155 304h84l-201 -395q-58 -114 -152 -115z" />
    <glyph glyph-name="uni045F.sc" 
d="M494 500v-500h-167v-120h-72v120h-167v500h80v-426h246v426h80z" />
    <glyph glyph-name="uni0463.sc" 
d="M347 250h-137v-181h151q45 0 72.5 22t27.5 68q0 45 -30.5 68t-83.5 23zM379 0h-249v367h-99v70h99v63h80v-63h155v-70h-155v-48h150q77 0 130 -38q54 -37 54 -117q0 -79 -44.5 -121.5t-120.5 -42.5z" />
    <glyph glyph-name="uni0473.sc" 
d="M300 -10q-112 0 -180 72q-68 74 -68 192q0 114 68 185t180 71q111 0 179 -71q69 -71 69 -185q0 -118 -69 -191q-67 -73 -179 -73zM300 435q-66 0 -109.5 -39.5t-53.5 -106.5h326q-10 67 -54 106.5t-109 39.5zM300 65q64 0 107.5 40.5t54.5 109.5h-324q10 -69 53.5 -109.5
t108.5 -40.5z" />
    <glyph glyph-name="uni0475.sc" 
d="M355 0h-133l-172 500h87l154 -438l89 246q37 102 86 152t124 50l-5 -81q-83 0 -126 -127z" />
    <glyph glyph-name="parenleft.c2sc" 
d="M373 244q0 -147 107 -252l-53 -52q-137 114 -137 299t137 299l53 -52q-107 -104 -107 -242z" />
    <glyph glyph-name="slash.c2sc" 
d="M508 520l-348 -578l-68 41l348 578z" />
    <glyph glyph-name="parenright.c2sc" 
d="M267 234q0 147 -107 252l53 52q137 -114 137 -299t-137 -299l-53 52q107 104 107 242z" />
    <glyph glyph-name="bracketleft.c2sc" 
d="M380 53h156v-73h-236v540h236v-73h-156v-394z" />
    <glyph glyph-name="backslash.c2sc" 
d="M508 -17l-68 -41l-348 578l68 41z" />
    <glyph glyph-name="bracketright.c2sc" 
d="M260 447h-156v73h236v-540h-236v73h156v394z" />
    <glyph glyph-name="braceleft.c2sc" 
d="M536 53v-73h-58q-54 0 -94 38q-38 40 -38 94v38q0 24 -17.5 41.5t-41.5 17.5h-21v73h21q24 0 41.5 17.5t17.5 41.5v47q0 55 38 93q39 39 94 39h58v-73h-51q-24 0 -41.5 -17.5t-17.5 -41.5v-47q0 -63 -63 -95q63 -32 63 -96v-38q0 -24 17.5 -41.5t41.5 -17.5h51z" />
    <glyph glyph-name="bar.c2sc" 
d="M260 540h80v-580h-80v580z" />
    <glyph glyph-name="braceright.c2sc" 
d="M294 159v-47q0 -55 -39 -94q-38 -38 -93 -38h-58v73h51q24 0 41.5 17.5t17.5 41.5v47q0 63 63 95q-63 32 -63 96v38q0 24 -17.5 41.5t-41.5 17.5h-51v73h58q56 0 93 -39q39 -37 39 -93v-38q0 -24 17.5 -41.5t41.5 -17.5h21v-73h-21q-24 0 -41.5 -17.5t-17.5 -41.5z" />
    <glyph glyph-name="exclam.c2sc" 
d="M260 500h80v-294h-80v294zM361 15q-25 -25 -61 -25t-62 25q-25 26 -25 62t25 61q26 26 62 26t61 -26q26 -25 26 -61t-26 -62z" />
    <glyph glyph-name="exclamdown.c2sc" 
d="M278 484q26 26 62 26t61 -26q26 -25 26 -61t-26 -62q-25 -25 -61 -25t-62 25q-25 26 -25 62t25 61zM380 0h-80v294h80v-294z" />
    <glyph glyph-name="question.c2sc" 
d="M256 209l21 70q12 -3 26 -3q44 0 70.5 22t26.5 59q0 34 -27 54.5t-71 20.5q-50 0 -80.5 -22t-30.5 -58q0 -16 3 -26l-73 -11q-4 16 -4 36q0 72 51.5 115.5t136.5 43.5q80 0 129 -40.5t49 -106.5q0 -71 -50 -114.5t-133 -43.5q-23 0 -44 4zM361 15q-25 -25 -61 -25t-62 25
q-25 26 -25 62t25 61q26 26 62 26t61 -26q26 -25 26 -61t-26 -62z" />
    </font>
</defs>
</svg>
